<svg width="664" height="371" viewBox="0 0 664 371" fill="none" xmlns="http://www.w3.org/2000/svg">
<g clip-path="url(#clip0_611_838)">
<path d="M332 301.649V0" stroke="#2BFB97" stroke-miterlimit="10"/>
<path d="M327.119 302.03L280.066 4.1019" stroke="#2BFB97" stroke-miterlimit="10"/>
<path d="M322.345 303.189L229.41 16.3008" stroke="#2BFB97" stroke-miterlimit="10"/>
<path d="M317.816 305.064L181.279 36.2918" stroke="#2BFB97" stroke-miterlimit="10"/>
<path d="M313.634 307.641L136.855 63.6021" stroke="#2BFB97" stroke-miterlimit="10"/>
<path d="M309.896 310.828L97.2383 97.5304" stroke="#2BFB97" stroke-miterlimit="10"/>
<path d="M306.717 314.58L63.4102 137.268" stroke="#2BFB97" stroke-miterlimit="10"/>
<path d="M304.149 318.773L36.1836 181.825" stroke="#2BFB97" stroke-miterlimit="10"/>
<path d="M302.279 323.317L16.252 230.102" stroke="#2BFB97" stroke-miterlimit="10"/>
<path d="M301.123 328.105L4.08984 280.911" stroke="#2BFB97" stroke-miterlimit="10"/>
<path d="M300.743 333H0" stroke="#2BFB97" stroke-miterlimit="10"/>
<path d="M301.123 337.91L4.08984 385.089" stroke="#2BFB97" stroke-miterlimit="10"/>
<path d="M302.279 342.683L16.252 435.898" stroke="#2BFB97" stroke-miterlimit="10"/>
<path d="M304.149 347.242L36.1836 484.175" stroke="#2BFB97" stroke-miterlimit="10"/>
<path d="M306.717 351.436L63.4102 528.732" stroke="#2BFB97" stroke-miterlimit="10"/>
<path d="M309.896 355.172L97.2383 568.47" stroke="#2BFB97" stroke-miterlimit="10"/>
<path d="M313.634 358.358L136.855 602.413" stroke="#2BFB97" stroke-miterlimit="10"/>
<path d="M317.816 360.935L181.279 629.708" stroke="#2BFB97" stroke-miterlimit="10"/>
<path d="M322.345 362.811L229.41 649.699" stroke="#2BFB97" stroke-miterlimit="10"/>
<path d="M327.119 363.97L280.066 661.898" stroke="#2BFB97" stroke-miterlimit="10"/>
<path d="M332 364.351V666" stroke="#2BFB97" stroke-miterlimit="10"/>
<path d="M336.895 363.97L383.932 661.898" stroke="#2BFB97" stroke-miterlimit="10"/>
<path d="M341.654 362.811L434.589 649.699" stroke="#2BFB97" stroke-miterlimit="10"/>
<path d="M346.199 360.935L482.721 629.708" stroke="#2BFB97" stroke-miterlimit="10"/>
<path d="M350.381 358.358L527.144 602.413" stroke="#2BFB97" stroke-miterlimit="10"/>
<path d="M354.105 355.172L566.763 568.47" stroke="#2BFB97" stroke-miterlimit="10"/>
<path d="M357.283 351.436L600.605 528.732" stroke="#2BFB97" stroke-miterlimit="10"/>
<path d="M359.852 347.242L627.817 484.175" stroke="#2BFB97" stroke-miterlimit="10"/>
<path d="M361.721 342.683L647.747 435.898" stroke="#2BFB97" stroke-miterlimit="10"/>
<path d="M362.877 337.91L659.91 385.089" stroke="#2BFB97" stroke-miterlimit="10"/>
<path d="M363.258 333H664.001" stroke="#2BFB97" stroke-miterlimit="10"/>
<path d="M362.877 328.105L659.91 280.911" stroke="#2BFB97" stroke-miterlimit="10"/>
<path d="M361.721 323.317L647.747 230.102" stroke="#2BFB97" stroke-miterlimit="10"/>
<path d="M359.852 318.773L627.817 181.825" stroke="#2BFB97" stroke-miterlimit="10"/>
<path d="M357.283 314.58L600.605 137.268" stroke="#2BFB97" stroke-miterlimit="10"/>
<path d="M354.105 310.828L566.763 97.5304" stroke="#2BFB97" stroke-miterlimit="10"/>
<path d="M350.381 307.641L527.144 63.6021" stroke="#2BFB97" stroke-miterlimit="10"/>
<path d="M346.199 305.064L482.721 36.2918" stroke="#2BFB97" stroke-miterlimit="10"/>
<path d="M341.654 303.189L434.589 16.3008" stroke="#2BFB97" stroke-miterlimit="10"/>
<path d="M336.895 302.03L383.932 4.1019" stroke="#2BFB97" stroke-miterlimit="10"/>
</g>
<defs>
<clipPath id="clip0_611_838">
<rect width="664" height="666" fill="white"/>
</clipPath>
</defs>
</svg>
