<svg width="227" height="146" viewBox="0 0 227 146" fill="none" xmlns="http://www.w3.org/2000/svg">
  <path d="M69.3698 135.5L69.9598 135.35C66.4049 136.26 62.7055 136.462 59.0728 135.942C55.4401 135.423 51.9453 134.193 48.7881 132.323C45.6308 130.452 42.8728 127.979 40.6717 125.042C38.4706 122.106 36.8695 118.765 35.9598 115.21L27.9598 84.59C26.0302 77.4398 27.0195 69.816 30.7101 63.395C34.4006 56.9741 40.4902 52.2818 47.6398 50.35L60.5398 47C72.0198 44 70.8898 54.36 73.9498 66L84.6198 109C87.6798 120.61 82.4198 132.08 69.3698 135.5Z" fill="#F4B566" stroke="#3B0F02" stroke-width="4.42" stroke-miterlimit="10"/>
  <path d="M222.71 55.81C229.94 74.16 209.13 89.39 195.97 89.06C183.57 88.75 176.12 80.06 173.17 68.83C170.22 57.6 162.22 47.31 171.29 38.83C179.91 30.8 216.79 40.77 222.71 55.81Z" fill="#F4B566" stroke="#3B0F02" stroke-width="4.42" stroke-miterlimit="10"/>
  <path d="M221.09 57.14C219.998 54.6586 218.34 52.4669 216.25 50.74C215.76 65.39 201.39 77.39 189.87 85.66C192.156 86.5443 194.579 87.0215 197.03 87.07C208.87 87.37 227.59 73.65 221.09 57.14Z" fill="#E08339"/>
  <path d="M3.26 114.6C5.99 134.13 31.59 137.17 42.89 130.41C53.54 124.04 55.75 112.81 52.8 101.58C49.85 90.35 51.8 77.46 39.7 74.58C28.23 71.78 1 98.59 3.26 114.6Z" fill="#F4B566" stroke="#3B0F02" stroke-width="4.42" stroke-miterlimit="10"/>
  <path d="M5.32983 115C5.05211 112.287 5.41518 109.547 6.38983 107C14.0198 119.52 32.4398 122.91 46.5398 124.45C44.9806 126.342 43.1023 127.946 40.9898 129.19C30.8298 135.27 7.77983 132.54 5.32983 115Z" fill="#E08339"/>
  <path d="M175.21 104.78L174.63 104.93C181.78 102.998 187.869 98.3059 191.56 91.8849C195.251 85.464 196.24 77.8402 194.31 70.69L186.31 40.08C185.402 36.5242 183.801 33.1824 181.601 30.2454C179.4 27.3085 176.642 24.8342 173.484 22.9637C170.327 21.0933 166.831 19.8636 163.198 19.3447C159.565 18.8259 155.865 19.0282 152.31 19.94L139.4 23.33C127.92 26.33 134 34.83 137.06 46.47L148.91 89.17C152 100.81 162.17 108.2 175.21 104.78Z" fill="#F4B566" stroke="#3B0F02" stroke-width="4.42" stroke-miterlimit="10"/>
  <path d="M153.85 66L154.85 64C154.85 63.24 154.85 62.47 154.91 61.71C154.65 62.19 154.38 62.71 154.11 63.15C153.893 63.5256 153.616 63.8633 153.29 64.15C153.48 64.77 153.66 65.38 153.85 66Z" fill="#E08339"/>
  <path d="M159.86 86.35C159.679 86.6081 159.475 86.8491 159.25 87.07C157.358 89.2512 155.355 91.334 153.25 93.31C152.947 93.5731 152.611 93.7951 152.25 93.97C156.25 101.7 164.36 106.06 174.25 103.57C180.739 101.733 186.253 97.4331 189.616 91.5873C192.979 85.7415 193.924 78.8129 192.25 72.28L184.87 44.18C184.16 42.12 183.81 38.12 182.47 38.48C178.4 55.94 171.5 72.72 159.86 86.35Z" fill="#E08339"/>
  <path d="M69.3698 135.5L69.9598 135.35C66.4049 136.26 62.7055 136.462 59.0728 135.942C55.4401 135.423 51.9453 134.193 48.7881 132.323C45.6308 130.452 42.8728 127.979 40.6717 125.042C38.4706 122.106 36.8695 118.765 35.9598 115.21L27.9598 84.59C26.0302 77.4398 27.0195 69.816 30.7101 63.395C34.4006 56.9741 40.4902 52.2818 47.6398 50.35L60.5398 47C72.0198 44 70.8898 54.36 73.9498 66L84.6198 109C87.6798 120.61 82.4198 132.08 69.3698 135.5Z" fill="#F4B566" stroke="#3B0F02" stroke-width="4.42" stroke-miterlimit="10"/>
  <path d="M73.68 111.91C73.9664 112.043 74.2643 112.15 74.57 112.23C77.298 113.199 80.0752 114.024 82.89 114.7C83.2705 114.786 83.6602 114.823 84.05 114.81C84.37 123.5 79.45 131.28 69.58 134C63.0259 135.586 56.1116 134.55 50.31 131.113C44.5084 127.676 40.278 122.11 38.52 115.6L31.14 87.5C30.75 85.35 29.14 81.7 30.43 81.35C42.58 94.54 56.85 105.76 73.68 111.91Z" fill="#E08339"/>
  <path d="M162.57 48.36C160.637 41.1587 158.149 34.1177 155.13 27.3C154.65 26.3 154.13 25.3 153.64 24.3C147.48 12.67 137.91 6.25999 125 3.99999C114.064 2.23162 102.879 2.77284 92.1641 5.5888C81.4497 8.40475 71.4437 13.4331 62.7901 20.35C52.6901 28.65 47.5001 38.94 47.8501 52.11C47.8501 53.22 47.9502 54.33 48.0302 55.44C48.75 62.8623 50.0438 70.2176 51.9001 77.44C53.9801 86.16 56.3135 94.8267 58.9001 103.44C61.9001 113.72 65.2701 126.61 72.5701 134.8C78.8701 141.86 89.3601 144.73 98.4101 142.35L126.2 135L154.01 127.7C163.01 125.32 170.78 117.7 172.8 108.42C175.13 97.7 171.69 84.84 169.29 74.42C167.29 65.6667 165.05 56.98 162.57 48.36Z" fill="#F4B566" stroke="#3B0F02" stroke-width="4.42" stroke-miterlimit="10"/>
  <path d="M158.41 100.3C148.97 110.62 133.58 114.13 120.05 114.18C105.2 114.18 92.4198 109.72 80.4898 101.32C75.0198 97.4701 69.5998 93.6601 63.8798 90.1801C61.1353 88.5745 58.5237 86.7521 56.0698 84.7301C57.6698 91.0767 59.3998 97.3934 61.2598 103.68C64.1298 113.33 67.2598 125.43 74.2598 133.09C80.2598 139.69 90.3298 142.33 99.0298 140.04L125.77 133.04L152.52 126.04C161.22 123.75 168.68 116.51 170.67 107.81C172.67 98.8801 170.41 88.4001 168.3 79.3101C166.62 87.0001 163.89 94.31 158.41 100.3Z" fill="#E08339"/>
  <path d="M136.49 77.1C140.665 77.1 144.05 73.7153 144.05 69.54C144.05 65.3647 140.665 61.98 136.49 61.98C132.315 61.98 128.93 65.3647 128.93 69.54C128.93 73.7153 132.315 77.1 136.49 77.1Z" fill="#3B0F02"/>
  <path d="M89.1899 89.53C93.3652 89.53 96.7499 86.1453 96.7499 81.97C96.7499 77.7948 93.3652 74.41 89.1899 74.41C85.0146 74.41 81.6299 77.7948 81.6299 81.97C81.6299 86.1453 85.0146 89.53 89.1899 89.53Z" fill="#3B0F02"/>
  <path d="M72.3198 68.4701C76.6598 62.8001 85.8398 61.6901 91.4098 66.1601C96.9798 70.6301 97.8798 79.8401 93.2798 85.3001" stroke="#3B0F02" stroke-width="3.54" stroke-linecap="round" stroke-linejoin="round"/>
  <path d="M136.49 77.1C140.665 77.1 144.05 73.7153 144.05 69.54C144.05 65.3647 140.665 61.98 136.49 61.98C132.315 61.98 128.93 65.3647 128.93 69.54C128.93 73.7153 132.315 77.1 136.49 77.1Z" fill="#3B0F02"/>
  <path d="M119.62 56.05C123.96 50.37 133.14 49.26 138.72 53.73C144.3 58.2 145.18 67.41 140.58 72.87" stroke="#3B0F02" stroke-width="3.54" stroke-linecap="round" stroke-linejoin="round"/>
  <path d="M107.25 97.56C108.533 98.8114 110.123 99.7023 111.861 100.143C113.598 100.583 115.42 100.558 117.145 100.069C118.869 99.58 120.434 98.6451 121.681 97.3583C122.929 96.0716 123.815 94.4785 124.25 92.74" stroke="#3B0F02" stroke-width="3.54" stroke-linecap="round" stroke-linejoin="round"/>
</svg>
