<svg viewBox="32 90 240 1" fill="none">
  <path d="M110.37 149.517L110.96 149.367C107.405 150.278 103.706 150.479 100.073 149.96C96.4401 149.44 92.9453 148.21 89.7881 146.34C86.6308 144.47 83.8728 141.996 81.6718 139.06C79.4707 136.124 77.8695 132.783 76.9598 129.227L68.9598 98.6074C67.0302 91.4572 68.0195 83.8334 71.7101 77.4125C75.4006 70.9916 81.4902 66.2993 88.6398 64.3674L101.54 61.0174C113.02 58.0174 111.89 68.3774 114.95 80.0174L125.62 123.017C128.68 134.627 123.42 146.097 110.37 149.517Z" fill="#F4B566" stroke="#3B0F02" stroke-width="4.42" stroke-miterlimit="10"/>
  <path d="M263.71 69.8275C270.94 88.1775 250.13 103.407 236.97 103.077C224.57 102.767 217.12 94.0774 214.17 82.8474C211.22 71.6174 203.22 61.3274 212.29 52.8474C220.91 44.8174 257.79 54.7875 263.71 69.8275Z" fill="#FFAE49" stroke="black" stroke-width="4.42" stroke-miterlimit="10"/>
  <path d="M262.09 71.1576C260.998 68.6761 259.34 66.4844 257.25 64.7576C256.76 79.4076 242.39 91.4076 230.87 99.6776C233.156 100.562 235.579 101.039 238.03 101.088C249.87 101.388 268.59 87.6676 262.09 71.1576Z" fill="#DE7420"/>
  <path d="M44.26 128.618C46.99 148.148 72.59 151.188 83.89 144.428C94.54 138.058 96.75 126.828 93.8 115.598C90.85 104.368 92.8 91.4776 80.7 88.5976C69.23 85.7976 42 112.608 44.26 128.618Z" fill="#FFAE49" stroke="black" stroke-width="4.42" stroke-miterlimit="10"/>
  <path d="M46.3298 129.018C46.0521 126.305 46.4152 123.565 47.3899 121.018C55.0199 133.538 73.4399 136.928 87.5399 138.468C85.9807 140.359 84.1023 141.964 81.9898 143.208C71.8298 149.288 48.7798 146.558 46.3298 129.018Z" fill="#DE7420"/>
  <path d="M216.21 118.798L215.63 118.948C222.78 117.016 228.869 112.323 232.56 105.903C236.251 99.4816 237.24 91.8578 235.31 84.7076L227.31 54.0976C226.402 50.5418 224.801 47.1999 222.601 44.263C220.4 41.3261 217.642 38.8517 214.484 36.9813C211.327 35.1109 207.831 33.8811 204.198 33.3623C200.565 32.8435 196.865 33.0457 193.31 33.9576L180.4 37.3476C168.92 40.3476 175 48.8476 178.06 60.4876L189.91 103.188C193 114.828 203.17 122.218 216.21 118.798Z" fill="#FFAE49" stroke="black" stroke-width="4.42" stroke-miterlimit="10"/>
  <path d="M194.85 80.0175L195.85 78.0175C195.85 77.2575 195.9 76.4875 195.91 75.7275C195.65 76.2075 195.38 76.7275 195.11 77.1675C194.893 77.5431 194.616 77.8809 194.29 78.1675C194.48 78.7875 194.66 79.3975 194.85 80.0175Z" fill="#E08339"/>
  <path d="M200.86 100.368C200.679 100.626 200.475 100.867 200.25 101.088C198.358 103.269 196.355 105.352 194.25 107.328C193.947 107.591 193.611 107.813 193.25 107.988C197.25 115.718 205.36 120.078 215.25 117.588C221.739 115.751 227.253 111.451 230.616 105.605C233.979 99.7591 234.924 92.8305 233.25 86.2976L225.87 58.1976C225.16 56.1376 224.81 52.1376 223.47 52.4976C219.4 69.9576 212.5 86.7376 200.86 100.368Z" fill="#DE7420"/>
  <path d="M110.37 149.517L110.96 149.367C107.405 150.278 103.706 150.479 100.073 149.96C96.4401 149.44 92.9453 148.21 89.7881 146.34C86.6308 144.47 83.8728 141.996 81.6718 139.06C79.4707 136.124 77.8695 132.783 76.9598 129.227L68.9598 98.6074C67.0302 91.4572 68.0195 83.8334 71.7101 77.4125C75.4006 70.9916 81.4902 66.2993 88.6398 64.3674L101.54 61.0174C113.02 58.0174 111.89 68.3774 114.95 80.0174L125.62 123.017C128.68 134.627 123.42 146.097 110.37 149.517Z" fill="#FFAE49" stroke="black" stroke-width="4.42" stroke-miterlimit="10"/>
  <path d="M114.68 125.928C114.966 126.061 115.264 126.168 115.57 126.248C118.298 127.217 121.075 128.041 123.89 128.718C124.27 128.803 124.66 128.84 125.05 128.828C125.37 137.518 120.45 145.298 110.58 148.018C104.026 149.604 97.1114 148.568 91.3097 145.131C85.5081 141.694 81.2777 136.128 79.5198 129.618L72.1398 101.518C71.7498 99.3677 70.0898 95.7177 71.4298 95.3677C83.5798 108.558 97.8498 119.778 114.68 125.928Z" fill="#DE7420"/>
  <path d="M203.57 62.3774C201.637 55.1761 199.149 48.1351 196.13 41.3174C195.65 40.3174 195.13 39.3174 194.64 38.3174C188.48 26.6874 178.91 20.2774 166 18.0174C155.064 16.2491 143.879 16.7903 133.164 19.6063C122.45 22.4222 112.444 27.4505 103.79 34.3675C93.6901 42.6675 88.5001 52.9574 88.8501 66.1274C88.8501 67.2374 88.9501 68.3474 89.0301 69.4574C89.7499 76.8797 91.0438 84.2351 92.9001 91.4575C94.9801 100.177 97.2968 108.844 99.8501 117.457C102.9 127.737 106.22 140.627 113.52 148.817C119.82 155.877 130.31 158.747 139.36 156.367L167.2 149.017L195.01 141.717C204.01 139.337 211.78 131.717 213.8 122.437C216.13 111.717 212.69 98.8575 210.29 88.4375C208.29 79.6841 206.05 70.9974 203.57 62.3774Z" fill="#FFAE49" stroke="black" stroke-width="4.42" stroke-miterlimit="10"/>
  <path d="M199.41 114.318C189.97 124.638 174.58 128.148 161.05 128.198C146.2 128.198 133.42 123.738 121.49 115.338C116.02 111.488 110.6 107.678 104.88 104.198C102.135 102.592 99.5237 100.77 97.0698 98.7477C98.6698 105.094 100.4 111.411 102.26 117.698C105.13 127.348 108.26 139.448 115.26 147.108C121.26 153.708 131.33 156.348 140.03 154.058L166.77 147.058L193.52 140.058C202.22 137.768 209.68 130.528 211.67 121.828C213.67 112.898 211.41 102.418 209.3 93.3276C207.62 101.018 204.89 108.328 199.41 114.318Z" fill="#DE7420"/>
  <path d="M177.49 91.1176C181.665 91.1176 185.05 87.7328 185.05 83.5576C185.05 79.3823 181.665 75.9976 177.49 75.9976C173.315 75.9976 169.93 79.3823 169.93 83.5576C169.93 87.7328 173.315 91.1176 177.49 91.1176Z" fill="#3B0F02"/>
  <path d="M137.25 95.9877C137.25 99.8869 134.089 103.048 130.19 103.048C126.291 103.048 123.13 99.8869 123.13 95.9877C123.13 92.0886 126.291 88.9277 130.19 88.9277C134.089 88.9277 137.25 92.0886 137.25 95.9877Z" fill="black" stroke="black"/>
  <path d="M113.32 82.4876C117.66 76.8176 126.84 75.7076 132.41 80.1776C137.98 84.6476 138.88 93.8576 134.28 99.3176" stroke="black" stroke-width="3.54" stroke-linecap="round" stroke-linejoin="round"/>
  <path d="M184.55 83.5576C184.55 87.4567 181.389 90.6176 177.49 90.6176C173.591 90.6176 170.43 87.4567 170.43 83.5576C170.43 79.6584 173.591 76.4976 177.49 76.4976C181.389 76.4976 184.55 79.6584 184.55 83.5576Z" fill="black" stroke="black"/>
  <path d="M160.62 70.0675C164.96 64.3875 174.14 63.2775 179.72 67.7475C185.3 72.2175 186.18 81.4275 181.58 86.8875" stroke="black" stroke-width="3.54" stroke-linecap="round" stroke-linejoin="round"/>
  <path d="M148.25 111.578C149.533 112.829 151.123 113.72 152.861 114.16C154.598 114.601 156.42 114.575 158.145 114.086C159.869 113.598 161.434 112.663 162.681 111.376C163.929 110.089 164.815 108.496 165.25 106.758" stroke="black" stroke-width="3.54" stroke-linecap="round" stroke-linejoin="round"/>
  <path d="M110.37 149.517L110.96 149.367C107.405 150.278 103.706 150.479 100.073 149.96C96.4401 149.44 92.9453 148.21 89.7881 146.34C86.6308 144.47 83.8728 141.996 81.6718 139.06C79.4707 136.124 77.8695 132.783 76.9598 129.227L68.9598 98.6074C67.0302 91.4572 68.0195 83.8334 71.7101 77.4125C75.4006 70.9916 81.4902 66.2993 88.6398 64.3674L101.54 61.0174C113.02 58.0174 111.89 68.3774 114.95 80.0174L125.62 123.017C128.68 134.627 123.42 146.097 110.37 149.517Z" fill="#F4B566" stroke="#3B0F02" stroke-width="4.42" stroke-miterlimit="10"/>
  <path d="M263.71 69.8275C270.94 88.1775 250.13 103.407 236.97 103.077C224.57 102.767 217.12 94.0774 214.17 82.8474C211.22 71.6174 203.22 61.3274 212.29 52.8474C220.91 44.8174 257.79 54.7875 263.71 69.8275Z" fill="#FFAE49" stroke="black" stroke-width="4.42" stroke-miterlimit="10"/>
  <path d="M262.09 71.1576C260.998 68.6761 259.34 66.4844 257.25 64.7576C256.76 79.4076 242.39 91.4076 230.87 99.6776C233.156 100.562 235.579 101.039 238.03 101.088C249.87 101.388 268.59 87.6676 262.09 71.1576Z" fill="#DE7420"/>
  <path d="M44.26 128.618C46.99 148.148 72.59 151.188 83.89 144.428C94.54 138.058 96.75 126.828 93.8 115.598C90.85 104.368 92.8 91.4776 80.7 88.5976C69.23 85.7976 42 112.608 44.26 128.618Z" fill="#FFAE49" stroke="black" stroke-width="4.42" stroke-miterlimit="10"/>
  <path d="M46.3298 129.018C46.0521 126.305 46.4152 123.565 47.3899 121.018C55.0199 133.538 73.4399 136.928 87.5399 138.468C85.9807 140.359 84.1023 141.964 81.9898 143.208C71.8298 149.288 48.7798 146.558 46.3298 129.018Z" fill="#DE7420"/>
  <path d="M216.21 118.798L215.63 118.948C222.78 117.016 228.869 112.323 232.56 105.903C236.251 99.4816 237.24 91.8578 235.31 84.7076L227.31 54.0976C226.402 50.5418 224.801 47.1999 222.601 44.263C220.4 41.3261 217.642 38.8517 214.484 36.9813C211.327 35.1109 207.831 33.8811 204.198 33.3623C200.565 32.8435 196.865 33.0457 193.31 33.9576L180.4 37.3476C168.92 40.3476 175 48.8476 178.06 60.4876L189.91 103.188C193 114.828 203.17 122.218 216.21 118.798Z" fill="#FFAE49" stroke="black" stroke-width="4.42" stroke-miterlimit="10"/>
  <path d="M194.85 80.0175L195.85 78.0175C195.85 77.2575 195.9 76.4875 195.91 75.7275C195.65 76.2075 195.38 76.7275 195.11 77.1675C194.893 77.5431 194.616 77.8809 194.29 78.1675C194.48 78.7875 194.66 79.3975 194.85 80.0175Z" fill="#E08339"/>
  <path d="M200.86 100.368C200.679 100.626 200.475 100.867 200.25 101.088C198.358 103.269 196.355 105.352 194.25 107.328C193.947 107.591 193.611 107.813 193.25 107.988C197.25 115.718 205.36 120.078 215.25 117.588C221.739 115.751 227.253 111.451 230.616 105.605C233.979 99.7591 234.924 92.8305 233.25 86.2976L225.87 58.1976C225.16 56.1376 224.81 52.1376 223.47 52.4976C219.4 69.9576 212.5 86.7376 200.86 100.368Z" fill="#DE7420"/>
  <path d="M110.37 149.517L110.96 149.367C107.405 150.278 103.706 150.479 100.073 149.96C96.4401 149.44 92.9453 148.21 89.7881 146.34C86.6308 144.47 83.8728 141.996 81.6718 139.06C79.4707 136.124 77.8695 132.783 76.9598 129.227L68.9598 98.6074C67.0302 91.4572 68.0195 83.8334 71.7101 77.4125C75.4006 70.9916 81.4902 66.2993 88.6398 64.3674L101.54 61.0174C113.02 58.0174 111.89 68.3774 114.95 80.0174L125.62 123.017C128.68 134.627 123.42 146.097 110.37 149.517Z" fill="#FFAE49" stroke="black" stroke-width="4.42" stroke-miterlimit="10"/>
  <path d="M114.68 125.928C114.966 126.061 115.264 126.168 115.57 126.248C118.298 127.217 121.075 128.041 123.89 128.718C124.27 128.803 124.66 128.84 125.05 128.828C125.37 137.518 120.45 145.298 110.58 148.018C104.026 149.604 97.1114 148.568 91.3097 145.131C85.5081 141.694 81.2777 136.128 79.5198 129.618L72.1398 101.518C71.7498 99.3677 70.0898 95.7177 71.4298 95.3677C83.5798 108.558 97.8498 119.778 114.68 125.928Z" fill="#DE7420"/>
  <path d="M203.57 62.3774C201.637 55.1761 199.149 48.1351 196.13 41.3174C195.65 40.3174 195.13 39.3174 194.64 38.3174C188.48 26.6874 178.91 20.2774 166 18.0174C155.064 16.2491 143.879 16.7903 133.164 19.6063C122.45 22.4222 112.444 27.4505 103.79 34.3675C93.6901 42.6675 88.5001 52.9574 88.8501 66.1274C88.8501 67.2374 88.9501 68.3474 89.0301 69.4574C89.7499 76.8797 91.0438 84.2351 92.9001 91.4575C94.9801 100.177 97.2968 108.844 99.8501 117.457C102.9 127.737 106.22 140.627 113.52 148.817C119.82 155.877 130.31 158.747 139.36 156.367L167.2 149.017L195.01 141.717C204.01 139.337 211.78 131.717 213.8 122.437C216.13 111.717 212.69 98.8575 210.29 88.4375C208.29 79.6841 206.05 70.9974 203.57 62.3774Z" fill="#FFAE49" stroke="black" stroke-width="4.42" stroke-miterlimit="10"/>
  <path d="M199.41 114.318C189.97 124.638 174.58 128.148 161.05 128.198C146.2 128.198 133.42 123.738 121.49 115.338C116.02 111.488 110.6 107.678 104.88 104.198C102.135 102.592 99.5237 100.77 97.0698 98.7477C98.6698 105.094 100.4 111.411 102.26 117.698C105.13 127.348 108.26 139.448 115.26 147.108C121.26 153.708 131.33 156.348 140.03 154.058L166.77 147.058L193.52 140.058C202.22 137.768 209.68 130.528 211.67 121.828C213.67 112.898 211.41 102.418 209.3 93.3276C207.62 101.018 204.89 108.328 199.41 114.318Z" fill="#DE7420"/>
  <path d="M177.49 91.1176C181.665 91.1176 185.05 87.7328 185.05 83.5576C185.05 79.3823 181.665 75.9976 177.49 75.9976C173.315 75.9976 169.93 79.3823 169.93 83.5576C169.93 87.7328 173.315 91.1176 177.49 91.1176Z" fill="#3B0F02"/>
  <path d="M137.25 95.9877C137.25 99.8869 134.089 103.048 130.19 103.048C126.291 103.048 123.13 99.8869 123.13 95.9877C123.13 92.0886 126.291 88.9277 130.19 88.9277C134.089 88.9277 137.25 92.0886 137.25 95.9877Z" fill="black" stroke="black"/>
  <path d="M113.32 82.4876C117.66 76.8176 126.84 75.7076 132.41 80.1776C137.98 84.6476 138.88 93.8576 134.28 99.3176" stroke="black" stroke-width="3.54" stroke-linecap="round" stroke-linejoin="round"/>
  <path d="M184.55 83.5576C184.55 87.4567 181.389 90.6176 177.49 90.6176C173.591 90.6176 170.43 87.4567 170.43 83.5576C170.43 79.6584 173.591 76.4976 177.49 76.4976C181.389 76.4976 184.55 79.6584 184.55 83.5576Z" fill="black" stroke="black"/>
  <path d="M160.62 70.0675C164.96 64.3875 174.14 63.2775 179.72 67.7475C185.3 72.2175 186.18 81.4275 181.58 86.8875" stroke="black" stroke-width="3.54" stroke-linecap="round" stroke-linejoin="round"/>
  <path d="M148.25 111.578C149.533 112.829 151.123 113.72 152.861 114.16C154.598 114.601 156.42 114.575 158.145 114.086C159.869 113.598 161.434 112.663 162.681 111.376C163.929 110.089 164.815 108.496 165.25 106.758" stroke="black" stroke-width="3.54" stroke-linecap="round" stroke-linejoin="round"/>
</svg>
