<svg viewBox="0 0 152 184" fill="none" xmlns="http://www.w3.org/2000/svg">
  <circle cx="103.546" cy="204.435" r="51.5047" transform="rotate(90 103.546 204.435)" fill="#6EE7B7" />
  <path
    opacity="0.1"
    d="M52.0408 -3.55817C52.0408 3.2432 53.3804 9.97798 55.9832 16.2616C58.5859 22.5453 62.4009 28.2547 67.2102 33.064C72.0195 37.8733 77.729 41.6883 84.0126 44.2911C90.2963 46.8938 97.031 48.2335 103.832 48.2335C110.634 48.2335 117.369 46.8938 123.652 44.291C129.936 41.6883 135.645 37.8733 140.455 33.064C145.264 28.2547 149.079 22.5453 151.682 16.2616C154.284 9.97796 155.624 3.24318 155.624 -3.55819L103.832 -3.55818L52.0408 -3.55817Z"
    fill="#34D399"
  />
  <path
    opacity="0.1"
    d="M-0.000156403 151.908C6.82777 151.908 13.5888 150.563 19.897 147.95C26.2052 145.337 31.9369 141.507 36.765 136.679C41.5931 131.851 45.4229 126.119 48.0359 119.811C50.6488 113.503 51.9936 106.742 51.9936 99.9139C51.9936 93.086 50.6488 86.3249 48.0358 80.0167C45.4229 73.7086 41.5931 67.9768 36.765 63.1487C31.9369 58.3207 26.2052 54.4908 19.897 51.8779C13.5888 49.265 6.82775 47.9201 -0.000176938 47.9201L-0.000160948 99.9139L-0.000156403 151.908Z"
    fill="#34D399"
  />
  <rect
    opacity="0.2"
    x="155.996"
    y="47.9528"
    width="103.953"
    height="103.954"
    transform="rotate(90 155.996 47.9528)"
    fill="#34D399"
  />
</svg>
