<svg viewBox="0 0 24 24" xmlns="http://www.w3.org/2000/svg" fill="currentColor">
  <path
    d="M12 0.959961C5.9126 0.959961 0.959961 5.91212 0.959961 12C0.959961 12.2654 1.175 12.48 1.43996 12.48H4.79996C5.06492 12.48 5.27996 12.2649 5.27996 12C5.27996 8.2886 8.2886 5.27996 12 5.27996C15.7113 5.27996 18.72 8.2886 18.72 12C18.72 15.7113 15.7113 18.72 12 18.72V15.36C12 15.095 11.7849 14.88 11.52 14.88H8.15996C7.895 14.88 7.67996 15.095 7.67996 15.36V18.72H5.27996V16.8C5.27996 16.535 5.06492 16.32 4.79996 16.32H2.87996C2.615 16.32 2.39996 16.535 2.39996 16.8V18.72C2.39996 18.9849 2.615 19.2 2.87996 19.2H4.79996V21.6C4.79996 21.8649 5.015 22.08 5.27996 22.08H7.67996C7.94492 22.08 8.15996 21.8649 8.15996 21.6V19.2H11.52V22.56C11.52 22.8254 11.735 23.04 12 23.04C18.0873 23.04 23.04 18.0878 23.04 12C23.04 5.91212 18.0873 0.959961 12 0.959961Z"
  />
</svg>
