<svg viewBox="0 0 24 24" fill="currentColor" xmlns="http://www.w3.org/2000/svg">
  <path d="M9.6 4.32007V6.72007H4.8V9.12007H2.4V11.5201H0.54C0.3075 11.5201 0.11625 11.6813 0.075 11.9101C0.0712502 11.9269 0 12.3282 0 12.8401C0 13.1757 0.031875 13.5413 0.09 13.9051C0.639375 13.7738 1.64625 13.5769 1.47 12.9301C2.41687 14.0269 4.68937 13.6951 5.265 13.1551C5.90812 14.0869 9.65437 13.7307 9.915 13.0051C10.7212 13.9501 13.2206 13.9501 14.025 13.0051C14.2856 13.7307 18.0169 14.0869 18.66 13.1551C18.8644 13.3463 19.29 13.5057 19.785 13.5901C19.9519 13.2732 20.1056 12.9544 20.25 12.6151C23.2987 12.5776 23.9569 10.3857 23.985 10.2901C24.0375 10.1063 23.9662 9.91694 23.82 9.79507C23.7694 9.75194 22.6444 8.83882 20.82 9.15007C20.3081 7.48319 18.99 6.72382 18.93 6.69007C18.7575 6.59257 18.5437 6.60757 18.39 6.73507C18.3412 6.77444 17.2069 7.73632 17.385 9.70507C17.43 10.2001 17.5594 10.6369 17.76 11.0251C17.3662 11.2444 16.6894 11.5201 15.6 11.5201H15.36V9.12007H12.96V4.32007H9.6ZM19.785 13.5901C19.7269 13.7026 19.6519 13.8113 19.59 13.9201H23.925C23.4037 13.7888 22.2844 13.6126 22.47 12.9301C21.8569 13.6388 20.6925 13.7438 19.785 13.5901ZM19.59 13.9201H0.09C0.20625 14.6251 0.44625 15.3638 0.81 16.0801C3.41625 16.6932 6.15187 15.7594 6.18 15.7501C6.43125 15.6619 6.69375 15.8007 6.78 16.0501C6.86812 16.2994 6.74437 16.5788 6.495 16.6651C6.40312 16.6969 4.755 17.2501 2.73 17.2501C2.32875 17.2501 1.90687 17.2276 1.485 17.1751C2.745 18.8457 4.88063 20.1601 8.16 20.1601C13.3463 20.1601 17.3344 17.9569 19.59 13.9201ZM0.09 13.9201C0.0881251 13.9126 0.0918749 13.9126 0.09 13.9051C0.0581251 13.9126 0.028125 13.9126 0 13.9201H0.09ZM10.56 5.28007H12V6.72007H10.56V5.28007ZM5.76 7.68007H7.2V9.12007H5.76V7.68007ZM8.16 7.68007H9.6V9.12007H8.16V7.68007ZM10.56 7.68007H12V9.12007H10.56V7.68007ZM3.36 10.0801H4.8V11.5201H3.36V10.0801ZM5.76 10.0801H7.2V11.5201H5.76V10.0801ZM8.16 10.0801H9.6V11.5201H8.16V10.0801ZM10.56 10.0801H12V11.5201H10.56V10.0801ZM12.96 10.0801H14.4V11.5201H12.96V10.0801ZM7.68 14.8801C7.74187 14.8801 7.80562 14.8894 7.86 14.9101C7.80187 14.9438 7.755 15.0019 7.755 15.0751C7.755 15.1838 7.84125 15.2851 7.95 15.2851C8.02312 15.2851 8.09625 15.2401 8.13 15.1801C8.15437 15.2363 8.16 15.2944 8.16 15.3601C8.16 15.6244 7.94437 15.8401 7.68 15.8401C7.41562 15.8401 7.2 15.6244 7.2 15.3601C7.2 15.0957 7.41562 14.8801 7.68 14.8801Z" />
</svg>
