<svg viewBox="0 0 24 24" fill="currentColor" xmlns="http://www.w3.org/2000/svg">
  <path d="M7.5299 1.91992C6.76115 1.91992 6.09928 2.34555 5.7149 2.96992L3.2699 7.34992L5.3699 11.0399L8.3999 5.75992H19.8299L18.2849 2.96992C17.9005 2.34555 17.2387 1.91992 16.4699 1.91992H7.5299ZM8.9249 6.71992L5.9099 11.9999L8.3549 16.2749L8.9249 17.2799H15.0299L18.0899 11.9999L15.0299 6.71992H8.9249ZM16.1699 6.71992L19.1999 11.9999L19.0499 12.2399L13.3949 22.0799H16.4699C17.2387 22.0799 17.9005 21.6543 18.2849 21.0299L22.7549 13.1099C23.1393 12.4387 23.1393 11.5743 22.7549 10.9499L20.3999 6.71992H16.1699ZM2.6849 8.35492L1.1999 10.9499C0.815527 11.6212 0.815527 12.4387 1.1999 13.1099L5.6699 21.0299C6.05428 21.7012 6.71615 22.0799 7.4849 22.0799H12.2399L14.4899 18.2399H8.3999L7.5899 16.7999L7.5299 16.7099L4.7999 11.9999L2.6849 8.35492ZM11.9999 9.59992C13.3443 9.59992 14.3999 10.6555 14.3999 11.9999C14.3999 13.3443 13.3443 14.3999 11.9999 14.3999C10.6555 14.3999 9.5999 13.3443 9.5999 11.9999C9.5999 10.6555 10.6555 9.59992 11.9999 9.59992Z" />
</svg>
