<svg width="32" height="32" viewBox="0 0 32 32" fill="currentColor" xmlns="http://www.w3.org/2000/svg">
<path d="M16.0083 29.6655L21.5283 12.6768H10.4883L16.0083 29.6655Z" />
<path d="M16.0086 29.6655L10.4886 12.6768H2.75244L16.0086 29.6655Z" />
<path d="M2.75225 12.6768L1.07482 17.8395C0.921818 18.3103 1.08939 18.8262 1.48996 19.1172L16.0084 29.6655L2.75225 12.6768Z" />
<path d="M2.75269 12.6758H10.4888L7.16411 2.4437C6.99311 1.91713 6.24826 1.91727 6.07726 2.4437L2.75269 12.6758Z" />
<path d="M16.0095 29.6655L21.5295 12.6768H29.2657L16.0095 29.6655Z" />
<path d="M29.2657 12.6768L30.9431 17.8395C31.0961 18.3103 30.9285 18.8262 30.528 19.1172L16.0095 29.6655L29.2657 12.6768Z" />
<path d="M29.2652 12.6758H21.5291L24.8538 2.4437C25.0248 1.91713 25.7696 1.91727 25.9406 2.4437L29.2652 12.6758Z" />
</svg>
