<svg viewBox="0 0 24 24" xmlns="http://www.w3.org/2000/svg" fill="currentColor">
  <path
    d="M20.0001 3C19.4696 3 18.9609 3.21071 18.5859 3.58579C18.2108 3.96086 18.0001 4.46957 18.0001 5C18.0005 5.34254 18.0889 5.67923 18.2569 5.97779C18.4248 6.27635 18.6666 6.52678 18.9591 6.70508C18.8173 7.99271 18.2999 8.76694 17.7911 9.2793C17.2955 9.77839 16.9212 9.945 16.7852 10H14.0001V5C14 4.73479 13.8947 4.48045 13.7071 4.29292C13.5196 4.10539 13.2653 4.00003 13.0001 4H5.00007C4.82961 4.00001 4.66198 4.04358 4.51309 4.12659C4.36421 4.2096 4.23901 4.32929 4.14939 4.47429C4.05976 4.61929 4.00869 4.78479 4.00102 4.95508C3.99334 5.12537 4.02932 5.29479 4.10554 5.44727L5.00007 7.23633V11H2.00007C1.83851 11.0001 1.67938 11.0394 1.53631 11.1144C1.39323 11.1895 1.27047 11.2981 1.17852 11.4309C1.08656 11.5637 1.02816 11.7169 1.00831 11.8772C0.988459 12.0375 1.00775 12.2003 1.06452 12.3516L4.06452 20.3516C4.13604 20.542 4.26389 20.706 4.43104 20.8219C4.5982 20.9377 4.79669 20.9999 5.00007 21H21.0001C21.2313 20.9999 21.4554 20.9197 21.6342 20.773C21.813 20.6263 21.9354 20.4221 21.9805 20.1953L22.9805 15.1953C22.9934 15.131 23 15.0656 23.0001 15V11C23 10.7348 22.8947 10.4805 22.7071 10.2929C22.5196 10.1054 22.2653 10 22.0001 10H19.7852C20.3553 9.20758 20.8331 8.13125 20.963 6.75C21.2766 6.57774 21.5382 6.32451 21.7206 6.0167C21.903 5.7089 21.9995 5.3578 22.0001 5C22.0001 4.46957 21.7894 3.96086 21.4143 3.58579C21.0392 3.21071 20.5305 3 20.0001 3ZM6.61726 6H12.0001V14H9.53523L7.8321 11.4453C7.74078 11.3083 7.61706 11.196 7.47191 11.1183C7.32677 11.0407 7.16469 11 7.00007 11V7C7.00011 6.84475 6.964 6.69162 6.8946 6.55273L6.61726 6ZM14.0001 12H21.0001V14H14.0001V12ZM3.44343 13H6.46491L8.16804 15.5547C8.25936 15.6917 8.38308 15.804 8.52823 15.8817C8.67337 15.9593 8.83545 16 9.00007 16H20.7794L20.1798 19H5.69343L3.44343 13Z"
  />
</svg>
