<svg width="627" height="575" viewBox="0 0 627 575" fill="none" xmlns="http://www.w3.org/2000/svg">
<circle opacity="0.03" cx="313.529" cy="261.477" r="82.3525" fill="white"/>
<circle cx="313.5" cy="261.5" r="211" stroke="#2E2D2D" stroke-dasharray="3.5 3.5"/>
<circle cx="313.5" cy="261.5" r="313" stroke="url(#paint0_linear_100_18667)" stroke-dasharray="3.5 3.5"/>
<circle opacity="0.06" cx="313.529" cy="261.477" r="39.7057" fill="white"/>
<circle opacity="0.32" cx="313.529" cy="261.477" r="27.941" fill="white"/>
<path opacity="0.5" d="M409.898 261.376C409.898 207.871 366.523 164.496 313.018 164.496C259.512 164.496 216.138 207.871 216.138 261.376" stroke="white" stroke-width="0.73529" stroke-dasharray="2.4 2.4"/>
<path opacity="0.5" d="M216.138 260.263C216.138 313.769 259.513 357.144 313.018 357.144C366.524 357.144 409.898 313.769 409.898 260.263" stroke="white" stroke-width="0.73529" stroke-dasharray="2.4 2.4"/>
<path opacity="0.5" d="M244.513 192.872C282.347 155.038 343.689 155.038 381.523 192.872" stroke="white" stroke-width="1.83823"/>
<path d="M244.513 192.871C260.375 177.01 280.368 167.798 301.029 165.236" stroke="#2EFF9B" stroke-width="1.83823"/>
<path opacity="0.5" d="M381.523 328.768C343.689 366.602 282.347 366.602 244.513 328.768" stroke="white" stroke-width="1.83823"/>
<path opacity="0.2" d="M447.088 261.376C447.088 187.331 387.063 127.306 313.018 127.306C238.973 127.306 178.948 187.331 178.948 261.376" stroke="white" stroke-width="0.73529" stroke-dasharray="3.32 3.32"/>
<path opacity="0.2" d="M178.948 260.263C178.948 334.308 238.973 394.333 313.018 394.333C387.063 394.333 447.088 334.308 447.088 260.263" stroke="white" stroke-width="0.73529" stroke-dasharray="3.32 3.32"/>
<path opacity="0.3" d="M218.216 166.574C270.574 114.216 355.462 114.216 407.82 166.574" stroke="white" stroke-width="1.83823"/>
<path d="M407.82 166.574C391.03 149.784 370.894 138.378 349.558 132.356" stroke="#2EFF9B" stroke-width="1.83823"/>
<path opacity="0.3" d="M407.82 355.065C355.462 407.423 270.574 407.423 218.216 355.065" stroke="white" stroke-width="1.83823"/>
<path d="M218.216 355.065C248.648 385.497 290.069 398.241 329.705 393.297" stroke="#2EFF9B" stroke-width="1.83823"/>
<path d="M372.342 261.377C372.342 228.613 345.782 202.053 313.018 202.053C280.255 202.053 253.694 228.613 253.694 261.377" stroke="white" stroke-width="0.73529" stroke-dasharray="2.4 2.4"/>
<path d="M253.694 260.263C253.694 293.026 280.254 319.587 313.018 319.587C345.781 319.587 372.342 293.026 372.342 260.263" stroke="white" stroke-width="0.73529" stroke-dasharray="2.4 2.4"/>
<rect x="287.979" y="236.477" width="50.0787" height="50.0787" rx="25.0394" fill="#212121"/>
<circle cx="313.018" cy="261.516" r="24.7394" stroke="#212121" stroke-width="0.599867" stroke-dasharray="2.4 2.4"/>
<circle cx="313.018" cy="261.516" r="24.7394" stroke="#212121" stroke-width="0.599867" stroke-dasharray="2.4 2.4"/>
<path d="M313.011 255.86L324.187 262.263V256.92L313.004 250.509L301.849 256.927V262.277L313.011 255.86Z" fill="#E6E5DE"/>
<path d="M322.399 268.703L324.187 267.656V264.376L313.004 257.959L301.849 264.376V267.671L303.637 268.703L313.004 263.309L322.399 268.703Z" fill="#E6E5DE"/>
<path d="M313.011 270.894L315.849 272.524L320.512 269.855L313.004 265.543L305.525 269.855L310.186 272.524L313.011 270.894Z" fill="#E6E5DE"/>
<g filter="url(#filter0_d_100_18667)">
<path d="M187.059 350.107C187.059 346.733 189.794 343.998 193.168 343.998H286.681C290.055 343.998 292.79 346.733 292.79 350.107V375.843C292.79 379.217 290.055 381.952 286.681 381.952H193.168C189.794 381.952 187.059 379.217 187.059 375.843V350.107Z" fill="white" fill-opacity="0.1" shape-rendering="crispEdges"/>
<path d="M187.559 350.107C187.559 347.009 190.07 344.498 193.168 344.498H286.681C289.779 344.498 292.29 347.009 292.29 350.107V375.843C292.29 378.941 289.779 381.452 286.681 381.452H193.168C190.07 381.452 187.559 378.941 187.559 375.843V350.107Z" stroke="#E5E5E5" stroke-opacity="0.4" shape-rendering="crispEdges"/>
<rect x="206.364" y="358.915" width="8.1208" height="8.1208" rx="4.0604" fill="#2EFF9B" fill-opacity="0.5" stroke="#2EFF9B" stroke-width="0.702547"/>
<path d="M221.968 368.475V357.74H223.807V362.049H226.689V357.74H228.527V368.475H226.689V363.755H223.807V368.475H221.968ZM233.139 368.475V359.446H230.33V357.74H237.801V359.446H234.992V368.475H233.139ZM241.957 368.475V359.446H239.148V357.74H246.618V359.446H243.81V368.475H241.957ZM248.421 368.475V357.74H251.995C252.711 357.74 253.333 357.877 253.863 358.152C254.402 358.426 254.819 358.813 255.113 359.313C255.407 359.804 255.554 360.382 255.554 361.049C255.554 361.706 255.402 362.284 255.098 362.784C254.804 363.284 254.392 363.671 253.863 363.946C253.333 364.22 252.711 364.357 251.995 364.357H250.26V368.475H248.421ZM250.26 362.696H251.995C252.505 362.696 252.912 362.549 253.216 362.255C253.529 361.951 253.686 361.549 253.686 361.049C253.686 360.539 253.529 360.137 253.216 359.843C252.912 359.549 252.505 359.402 251.995 359.402H250.26V362.696ZM256.989 370.093L262.136 356.269H264.048L258.901 370.093H256.989ZM269.233 368.622C268.537 368.622 267.93 368.495 267.41 368.24C266.9 367.985 266.503 367.627 266.219 367.166C265.934 366.705 265.792 366.161 265.792 365.534H267.645C267.645 366.014 267.782 366.392 268.057 366.666C268.341 366.931 268.738 367.063 269.248 367.063C269.758 367.063 270.15 366.926 270.425 366.652C270.699 366.377 270.836 366.005 270.836 365.534V364.696C270.836 364.215 270.699 363.843 270.425 363.578C270.15 363.304 269.758 363.166 269.248 363.166H268.042V361.505L270.41 359.313H266.278V357.74H272.278V359.402L269.248 362.181V361.593C270.307 361.593 271.145 361.872 271.763 362.431C272.38 362.99 272.689 363.745 272.689 364.696V365.534C272.689 366.161 272.547 366.705 272.263 367.166C271.979 367.627 271.577 367.985 271.057 368.24C270.537 368.495 269.93 368.622 269.233 368.622Z" fill="white"/>
</g>
<g filter="url(#filter1_d_100_18667)">
<path d="M378.234 142.756C378.234 139.382 380.969 136.646 384.344 136.646H460.856C464.23 136.646 466.966 139.382 466.966 142.756V168.491C466.966 171.865 464.23 174.601 460.856 174.601H384.344C380.969 174.601 378.234 171.865 378.234 168.491V142.756Z" fill="white" fill-opacity="0.1" shape-rendering="crispEdges"/>
<path d="M378.734 142.756C378.734 139.658 381.246 137.146 384.344 137.146H460.856C463.954 137.146 466.466 139.658 466.466 142.756V168.491C466.466 171.589 463.954 174.101 460.856 174.101H384.344C381.246 174.101 378.734 171.589 378.734 168.491V142.756Z" stroke="#E5E5E5" stroke-opacity="0.4" shape-rendering="crispEdges"/>
<rect x="397.539" y="151.563" width="8.1208" height="8.1208" rx="4.0604" fill="#2EFF9B" fill-opacity="0.5" stroke="#2EFF9B" stroke-width="0.702547"/>
<path d="M416.482 161.271C415.796 161.271 415.193 161.143 414.673 160.888C414.163 160.624 413.766 160.256 413.482 159.785C413.208 159.305 413.07 158.741 413.07 158.094V153.418C413.07 152.761 413.208 152.197 413.482 151.727C413.766 151.256 414.163 150.893 414.673 150.638C415.193 150.374 415.796 150.241 416.482 150.241C417.178 150.241 417.776 150.374 418.276 150.638C418.786 150.893 419.183 151.256 419.467 151.727C419.752 152.197 419.894 152.761 419.894 153.418H418.041C418.041 152.908 417.904 152.521 417.629 152.256C417.364 151.991 416.982 151.859 416.482 151.859C415.982 151.859 415.595 151.991 415.32 152.256C415.046 152.521 414.909 152.903 414.909 153.403V158.094C414.909 158.594 415.046 158.981 415.32 159.256C415.595 159.53 415.982 159.668 416.482 159.668C416.982 159.668 417.364 159.53 417.629 159.256C417.904 158.981 418.041 158.594 418.041 158.094V157.006H416.217V155.418H419.894V158.094C419.894 158.741 419.752 159.305 419.467 159.785C419.183 160.256 418.786 160.624 418.276 160.888C417.776 161.143 417.178 161.271 416.482 161.271ZM421.947 161.124V150.388H425.344C426.06 150.388 426.677 150.521 427.197 150.785C427.726 151.05 428.138 151.423 428.432 151.903C428.726 152.374 428.873 152.932 428.873 153.579C428.873 154.285 428.692 154.908 428.329 155.447C427.976 155.986 427.496 156.369 426.888 156.594L429.02 161.124H426.962L425.094 156.859H423.785V161.124H421.947ZM423.785 155.241H425.344C425.863 155.241 426.27 155.099 426.564 154.815C426.859 154.53 427.006 154.138 427.006 153.638C427.006 153.128 426.859 152.731 426.564 152.447C426.27 152.153 425.863 152.006 425.344 152.006H423.785V155.241ZM430.779 161.124V150.388H434.353C435.068 150.388 435.691 150.526 436.22 150.8C436.76 151.075 437.176 151.462 437.47 151.962C437.765 152.452 437.912 153.03 437.912 153.697C437.912 154.354 437.76 154.932 437.456 155.432C437.162 155.932 436.75 156.32 436.22 156.594C435.691 156.869 435.068 157.006 434.353 157.006H432.618V161.124H430.779ZM432.618 155.344H434.353C434.863 155.344 435.269 155.197 435.573 154.903C435.887 154.599 436.044 154.197 436.044 153.697C436.044 153.187 435.887 152.785 435.573 152.491C435.269 152.197 434.863 152.05 434.353 152.05H432.618V155.344ZM442.935 161.271C442.249 161.271 441.646 161.143 441.126 160.888C440.617 160.624 440.22 160.256 439.935 159.785C439.661 159.305 439.524 158.741 439.524 158.094V153.418C439.524 152.761 439.661 152.197 439.935 151.727C440.22 151.256 440.617 150.893 441.126 150.638C441.646 150.374 442.249 150.241 442.935 150.241C443.631 150.241 444.229 150.374 444.729 150.638C445.239 150.893 445.636 151.256 445.921 151.727C446.205 152.197 446.347 152.761 446.347 153.418H444.494C444.494 152.908 444.357 152.521 444.082 152.256C443.818 151.991 443.435 151.859 442.935 151.859C442.435 151.859 442.048 151.991 441.773 152.256C441.499 152.521 441.362 152.903 441.362 153.403V158.094C441.362 158.594 441.499 158.981 441.773 159.256C442.048 159.521 442.435 159.653 442.935 159.653C443.435 159.653 443.818 159.521 444.082 159.256C444.357 158.981 444.494 158.594 444.494 158.094H446.347C446.347 158.731 446.205 159.29 445.921 159.771C445.636 160.251 445.239 160.624 444.729 160.888C444.229 161.143 443.631 161.271 442.935 161.271Z" fill="white"/>
</g>
<g filter="url(#filter2_d_100_18667)">
<path d="M162.059 180.991C162.059 177.617 164.794 174.882 168.168 174.882H261.681C265.055 174.882 267.79 177.617 267.79 180.991V206.726C267.79 210.1 265.055 212.836 261.681 212.836H168.168C164.794 212.836 162.059 210.1 162.059 206.726V180.991Z" fill="white" fill-opacity="0.1" shape-rendering="crispEdges"/>
<path d="M162.559 180.991C162.559 177.893 165.07 175.382 168.168 175.382H261.681C264.779 175.382 267.29 177.893 267.29 180.991V206.726C267.29 209.824 264.779 212.336 261.681 212.336H168.168C165.07 212.336 162.559 209.824 162.559 206.726V180.991Z" stroke="#E5E5E5" stroke-opacity="0.4" shape-rendering="crispEdges"/>
<rect x="181.364" y="189.798" width="8.1208" height="8.1208" rx="4.0604" fill="#2EFF9B" fill-opacity="0.5" stroke="#2EFF9B" stroke-width="0.702547"/>
<path d="M196.969 199.359V188.623H198.807V192.932H201.689V188.623H203.527V199.359H201.689V194.638H198.807V199.359H196.969ZM208.139 199.359V190.329H205.33V188.623H212.801V190.329H209.992V199.359H208.139ZM216.957 199.359V190.329H214.148V188.623H221.619V190.329H218.81V199.359H216.957ZM223.422 199.359V188.623H226.995C227.711 188.623 228.333 188.761 228.863 189.035C229.402 189.31 229.819 189.697 230.113 190.197C230.407 190.687 230.554 191.266 230.554 191.932C230.554 192.589 230.402 193.167 230.098 193.667C229.804 194.167 229.392 194.555 228.863 194.829C228.333 195.104 227.711 195.241 226.995 195.241H225.26V199.359H223.422ZM225.26 193.579H226.995C227.505 193.579 227.912 193.432 228.216 193.138C228.53 192.834 228.686 192.432 228.686 191.932C228.686 191.422 228.53 191.02 228.216 190.726C227.912 190.432 227.505 190.285 226.995 190.285H225.26V193.579ZM231.989 200.976L237.137 187.153H239.048L233.901 200.976H231.989ZM241.087 199.359V197.579L244.44 194.212C244.91 193.731 245.258 193.3 245.484 192.918C245.709 192.525 245.822 192.123 245.822 191.712C245.822 191.212 245.685 190.824 245.41 190.55C245.136 190.266 244.763 190.123 244.292 190.123C243.773 190.123 243.366 190.275 243.072 190.579C242.778 190.873 242.631 191.285 242.631 191.815H240.793C240.802 191.128 240.949 190.54 241.234 190.05C241.528 189.55 241.94 189.163 242.469 188.888C242.998 188.614 243.616 188.476 244.322 188.476C244.998 188.476 245.587 188.604 246.087 188.859C246.587 189.114 246.974 189.471 247.248 189.932C247.523 190.393 247.66 190.942 247.66 191.579C247.66 192.236 247.489 192.878 247.145 193.506C246.812 194.123 246.273 194.79 245.528 195.506L243.292 197.697H247.792V199.359H241.087Z" fill="white"/>
</g>
<g filter="url(#filter3_d_100_18667)">
<path d="M302 427.109C302 423.735 304.735 421 308.109 421H428.622C431.996 421 434.731 423.735 434.731 427.109V452.845C434.731 456.219 431.996 458.954 428.622 458.954H308.109C304.735 458.954 302 456.219 302 452.845V427.109Z" fill="white" fill-opacity="0.1" shape-rendering="crispEdges"/>
<path d="M302.5 427.109C302.5 424.011 305.011 421.5 308.109 421.5H428.622C431.72 421.5 434.231 424.011 434.231 427.109V452.845C434.231 455.943 431.72 458.454 428.622 458.454H308.109C305.011 458.454 302.5 455.943 302.5 452.845V427.109Z" stroke="#E5E5E5" stroke-opacity="0.4" shape-rendering="crispEdges"/>
<rect x="321.305" y="435.917" width="8.1208" height="8.1208" rx="4.0604" fill="#2EFF9B" fill-opacity="0.5" stroke="#2EFF9B" stroke-width="0.702547"/>
<path d="M337.116 445.477L336.013 434.742H337.601L338.248 442.242C338.268 442.408 338.282 442.614 338.292 442.859C338.312 443.095 338.326 443.335 338.336 443.58C338.356 443.825 338.366 444.041 338.366 444.227C338.385 444.041 338.405 443.825 338.424 443.58C338.444 443.335 338.464 443.095 338.483 442.859C338.513 442.614 338.537 442.408 338.557 442.242L339.439 434.742H340.983L341.807 442.242C341.836 442.408 341.861 442.614 341.88 442.859C341.91 443.095 341.939 443.335 341.968 443.58C341.998 443.825 342.022 444.041 342.042 444.227C342.052 444.041 342.062 443.825 342.071 443.58C342.081 443.335 342.091 443.095 342.101 442.859C342.12 442.614 342.14 442.408 342.16 442.242L342.792 434.742H344.366L343.204 445.477H341.174L340.38 437.948C340.361 437.761 340.336 437.546 340.307 437.301C340.287 437.046 340.268 436.796 340.248 436.551C340.228 436.296 340.214 436.08 340.204 435.904C340.194 436.08 340.174 436.296 340.145 436.551C340.125 436.796 340.106 437.046 340.086 437.301C340.067 437.546 340.047 437.761 340.027 437.948L339.16 445.477H337.116ZM345.889 445.477V434.742H352.33V436.345H347.698V439.139H351.816V440.727H347.698V443.874H352.33V445.477H345.889ZM354.545 445.477V434.742H357.839C358.878 434.742 359.702 434.992 360.31 435.492C360.918 435.982 361.222 436.654 361.222 437.507C361.222 437.987 361.114 438.404 360.898 438.756C360.682 439.109 360.388 439.384 360.016 439.58C359.653 439.776 359.231 439.874 358.751 439.874V439.815C359.271 439.806 359.731 439.904 360.133 440.109C360.545 440.306 360.869 440.6 361.104 440.992C361.349 441.384 361.472 441.859 361.472 442.418C361.472 443.036 361.329 443.575 361.045 444.036C360.761 444.497 360.359 444.855 359.839 445.109C359.329 445.355 358.717 445.477 358.001 445.477H354.545ZM356.339 443.948H357.883C358.423 443.948 358.844 443.805 359.148 443.521C359.462 443.227 359.619 442.83 359.619 442.33C359.619 441.83 359.462 441.428 359.148 441.124C358.844 440.81 358.423 440.654 357.883 440.654H356.339V443.948ZM356.339 439.168H357.81C358.3 439.168 358.682 439.041 358.957 438.786C359.241 438.521 359.383 438.163 359.383 437.712C359.383 437.261 359.241 436.908 358.957 436.654C358.682 436.399 358.3 436.271 357.81 436.271H356.339V439.168ZM366.672 445.624C365.936 445.624 365.299 445.502 364.76 445.256C364.221 445.011 363.804 444.663 363.51 444.212C363.226 443.752 363.079 443.212 363.069 442.595H364.907C364.907 443.036 365.064 443.384 365.378 443.639C365.701 443.884 366.137 444.006 366.686 444.006C367.216 444.006 367.628 443.884 367.922 443.639C368.226 443.394 368.378 443.055 368.378 442.624C368.378 442.261 368.27 441.948 368.054 441.683C367.848 441.408 367.549 441.222 367.157 441.124L365.922 440.786C365.079 440.57 364.427 440.183 363.966 439.624C363.515 439.065 363.289 438.389 363.289 437.595C363.289 436.987 363.427 436.457 363.701 436.007C363.976 435.556 364.363 435.207 364.863 434.962C365.373 434.717 365.971 434.595 366.657 434.595C367.696 434.595 368.52 434.864 369.128 435.404C369.735 435.933 370.044 436.649 370.054 437.551H368.216C368.216 437.129 368.079 436.801 367.804 436.565C367.53 436.32 367.142 436.198 366.642 436.198C366.162 436.198 365.789 436.31 365.525 436.536C365.26 436.761 365.128 437.08 365.128 437.492C365.128 437.864 365.226 438.183 365.422 438.448C365.628 438.703 365.922 438.884 366.304 438.992L367.583 439.345C368.436 439.56 369.088 439.948 369.539 440.506C369.99 441.056 370.216 441.737 370.216 442.551C370.216 443.158 370.069 443.698 369.775 444.168C369.481 444.629 369.069 444.987 368.539 445.242C368.01 445.497 367.387 445.624 366.672 445.624ZM375.46 445.624C374.774 445.624 374.176 445.497 373.666 445.242C373.166 444.977 372.779 444.609 372.504 444.139C372.239 443.658 372.107 443.095 372.107 442.448V437.771C372.107 437.124 372.239 436.565 372.504 436.095C372.779 435.614 373.166 435.247 373.666 434.992C374.176 434.727 374.774 434.595 375.46 434.595C376.156 434.595 376.754 434.727 377.254 434.992C377.754 435.247 378.136 435.614 378.401 436.095C378.676 436.565 378.813 437.119 378.813 437.757V442.448C378.813 443.095 378.676 443.658 378.401 444.139C378.136 444.609 377.754 444.977 377.254 445.242C376.754 445.497 376.156 445.624 375.46 445.624ZM375.46 444.006C375.96 444.006 376.337 443.874 376.592 443.609C376.847 443.335 376.975 442.948 376.975 442.448V437.771C376.975 437.261 376.847 436.874 376.592 436.609C376.337 436.345 375.96 436.212 375.46 436.212C374.96 436.212 374.583 436.345 374.328 436.609C374.073 436.874 373.945 437.261 373.945 437.771V442.448C373.945 442.948 374.073 443.335 374.328 443.609C374.592 443.874 374.97 444.006 375.46 444.006ZM384.337 445.624C383.65 445.624 383.047 445.497 382.528 445.242C382.018 444.977 381.621 444.609 381.337 444.139C381.062 443.658 380.925 443.095 380.925 442.448V437.771C380.925 437.114 381.062 436.551 381.337 436.08C381.621 435.609 382.018 435.247 382.528 434.992C383.047 434.727 383.65 434.595 384.337 434.595C385.033 434.595 385.631 434.727 386.131 434.992C386.641 435.247 387.038 435.609 387.322 436.08C387.606 436.551 387.748 437.114 387.748 437.771H385.895C385.895 437.261 385.758 436.874 385.484 436.609C385.219 436.345 384.837 436.212 384.337 436.212C383.837 436.212 383.449 436.345 383.175 436.609C382.9 436.874 382.763 437.257 382.763 437.757V442.448C382.763 442.948 382.9 443.335 383.175 443.609C383.449 443.874 383.837 444.006 384.337 444.006C384.837 444.006 385.219 443.874 385.484 443.609C385.758 443.335 385.895 442.948 385.895 442.448H387.748C387.748 443.085 387.606 443.644 387.322 444.124C387.038 444.605 386.641 444.977 386.131 445.242C385.631 445.497 385.033 445.624 384.337 445.624ZM389.801 445.477V434.742H391.64V439.08H392.919L394.934 434.742H396.934L394.537 439.889L397.051 445.477H395.007L392.89 440.756H391.64V445.477H389.801ZM398.796 445.477V434.742H405.237V436.345H400.604V439.139H404.722V440.727H400.604V443.874H405.237V445.477H398.796ZM409.805 445.477V436.448H406.996V434.742H414.466V436.448H411.657V445.477H409.805Z" fill="white"/>
</g>
<g filter="url(#filter4_d_100_18667)">
<path d="M172 65.3087C172 62.9291 173.929 61 176.309 61H215.691C218.071 61 220 62.9291 220 65.3087V104.691C220 107.071 218.071 109 215.691 109H176.309C173.929 109 172 107.071 172 104.691V65.3087Z" fill="white" fill-opacity="0.02" shape-rendering="crispEdges"/>
<path d="M172.353 65.3087C172.353 63.1238 174.124 61.3526 176.309 61.3526H215.691C217.876 61.3526 219.647 63.1238 219.647 65.3087V104.691C219.647 106.876 217.876 108.647 215.691 108.647H176.309C174.124 108.647 172.353 106.876 172.353 104.691V65.3087Z" stroke="#DADADA" stroke-opacity="0.1" stroke-width="0.705263" shape-rendering="crispEdges"/>
<path fill-rule="evenodd" clip-rule="evenodd" d="M179.557 82.2128C179.481 82.2128 179.463 82.1747 179.5 82.1181L179.898 81.6066C179.936 81.5497 180.031 81.5119 180.106 81.5119H186.868C186.944 81.5119 186.963 81.5688 186.925 81.6256L186.603 82.1181C186.565 82.1747 186.47 82.2316 186.414 82.2316L179.557 82.2128ZM176.697 83.955C176.622 83.955 176.603 83.9175 176.64 83.8603L177.038 83.3491C177.076 83.2922 177.171 83.2544 177.247 83.2544H185.883C185.959 83.2544 185.997 83.3113 185.978 83.3681L185.826 83.8225C185.807 83.8984 185.731 83.9363 185.656 83.9363L176.697 83.955ZM181.28 85.6975C181.205 85.6975 181.186 85.6406 181.224 85.5838L181.489 85.1103C181.527 85.0534 181.603 84.9969 181.679 84.9969H185.466C185.542 84.9969 185.58 85.0534 185.58 85.1294L185.542 85.5838C185.542 85.6597 185.466 85.7166 185.41 85.7166L181.28 85.6975ZM200.94 81.8719C199.746 82.175 198.932 82.4022 197.758 82.705C197.474 82.7809 197.455 82.7997 197.209 82.5156C196.925 82.1938 196.716 81.9853 196.319 81.7959C195.125 81.2091 193.97 81.3794 192.89 82.0803C191.603 82.9134 190.94 84.1444 190.959 85.6784C190.977 87.1938 192.019 88.4438 193.515 88.6522C194.803 88.8225 195.883 88.3678 196.735 87.4022C196.905 87.1938 197.057 86.9666 197.246 86.7013H193.591C193.194 86.7013 193.099 86.455 193.231 86.1331C193.478 85.5459 193.932 84.5613 194.197 84.0688C194.254 83.955 194.387 83.7656 194.671 83.7656H201.565C201.527 84.2772 201.527 84.7884 201.451 85.3C201.243 86.6634 200.731 87.9134 199.898 89.0119C198.534 90.8113 196.754 91.9284 194.5 92.2316C192.644 92.4778 190.921 92.1178 189.406 90.9816C188.004 89.9209 187.209 88.5194 187 86.7772C186.754 84.7128 187.36 82.8566 188.61 81.2278C189.955 79.4666 191.735 78.3491 193.913 77.9513C195.694 77.6294 197.398 77.8378 198.932 78.8794C199.936 79.5422 200.655 80.4513 201.129 81.5497C201.243 81.7203 201.167 81.815 200.94 81.8716L200.94 81.8719Z" fill="#B6B6B6"/>
<path d="M207.211 92.3456C205.488 92.3075 203.915 91.8153 202.59 90.6788C201.472 89.7131 200.772 88.4819 200.544 87.0235C200.203 84.8835 200.79 82.9894 202.078 81.3041C203.461 79.4856 205.128 78.5388 207.382 78.141C209.313 77.8003 211.132 77.9897 212.779 79.1069C214.275 80.1297 215.203 81.5122 215.45 83.3303C215.771 85.8872 215.033 87.9706 213.271 89.751C212.021 91.0197 210.487 91.8153 208.726 92.175C208.215 92.2697 207.703 92.2888 207.211 92.3456ZM211.719 84.6941C211.7 84.4478 211.7 84.2585 211.662 84.0691C211.321 82.1941 209.597 81.1335 207.798 81.5503C206.037 81.9478 204.9 83.0653 204.484 84.8456C204.143 86.3228 204.863 87.8191 206.226 88.425C207.268 88.8797 208.31 88.8228 209.313 88.3116C210.81 87.535 211.624 86.3228 211.719 84.6941Z" fill="#B6B6B6"/>
</g>
<defs>
<filter id="filter0_d_100_18667" x="148.718" y="305.658" width="182.412" height="114.634" filterUnits="userSpaceOnUse" color-interpolation-filters="sRGB">
<feFlood flood-opacity="0" result="BackgroundImageFix"/>
<feColorMatrix in="SourceAlpha" type="matrix" values="0 0 0 0 0 0 0 0 0 0 0 0 0 0 0 0 0 0 127 0" result="hardAlpha"/>
<feOffset dy="6.10941"/>
<feGaussianBlur stdDeviation="3.0547"/>
<feComposite in2="hardAlpha" operator="out"/>
<feColorMatrix type="matrix" values="0 0 0 0 0 0 0 0 0 0 0 0 0 0 0 0 0 0 0.05 0"/>
<feBlend mode="normal" in2="BackgroundImageFix" result="effect1_dropShadow_100_18667"/>
<feBlend mode="normal" in="SourceGraphic" in2="effect1_dropShadow_100_18667" result="shape"/>
</filter>
<filter id="filter1_d_100_18667" x="339.894" y="98.3063" width="165.412" height="114.634" filterUnits="userSpaceOnUse" color-interpolation-filters="sRGB">
<feFlood flood-opacity="0" result="BackgroundImageFix"/>
<feColorMatrix in="SourceAlpha" type="matrix" values="0 0 0 0 0 0 0 0 0 0 0 0 0 0 0 0 0 0 127 0" result="hardAlpha"/>
<feOffset dy="6.10941"/>
<feGaussianBlur stdDeviation="3.0547"/>
<feComposite in2="hardAlpha" operator="out"/>
<feColorMatrix type="matrix" values="0 0 0 0 0 0 0 0 0 0 0 0 0 0 0 0 0 0 0.05 0"/>
<feBlend mode="normal" in2="BackgroundImageFix" result="effect1_dropShadow_100_18667"/>
<feBlend mode="normal" in="SourceGraphic" in2="effect1_dropShadow_100_18667" result="shape"/>
</filter>
<filter id="filter2_d_100_18667" x="123.719" y="136.541" width="182.412" height="114.634" filterUnits="userSpaceOnUse" color-interpolation-filters="sRGB">
<feFlood flood-opacity="0" result="BackgroundImageFix"/>
<feColorMatrix in="SourceAlpha" type="matrix" values="0 0 0 0 0 0 0 0 0 0 0 0 0 0 0 0 0 0 127 0" result="hardAlpha"/>
<feOffset dy="6.10941"/>
<feGaussianBlur stdDeviation="3.0547"/>
<feComposite in2="hardAlpha" operator="out"/>
<feColorMatrix type="matrix" values="0 0 0 0 0 0 0 0 0 0 0 0 0 0 0 0 0 0 0.05 0"/>
<feBlend mode="normal" in2="BackgroundImageFix" result="effect1_dropShadow_100_18667"/>
<feBlend mode="normal" in="SourceGraphic" in2="effect1_dropShadow_100_18667" result="shape"/>
</filter>
<filter id="filter3_d_100_18667" x="263.66" y="382.66" width="209.412" height="114.634" filterUnits="userSpaceOnUse" color-interpolation-filters="sRGB">
<feFlood flood-opacity="0" result="BackgroundImageFix"/>
<feColorMatrix in="SourceAlpha" type="matrix" values="0 0 0 0 0 0 0 0 0 0 0 0 0 0 0 0 0 0 127 0" result="hardAlpha"/>
<feOffset dy="6.10941"/>
<feGaussianBlur stdDeviation="3.0547"/>
<feComposite in2="hardAlpha" operator="out"/>
<feColorMatrix type="matrix" values="0 0 0 0 0 0 0 0 0 0 0 0 0 0 0 0 0 0 0.05 0"/>
<feBlend mode="normal" in2="BackgroundImageFix" result="effect1_dropShadow_100_18667"/>
<feBlend mode="normal" in="SourceGraphic" in2="effect1_dropShadow_100_18667" result="shape"/>
</filter>
<filter id="filter4_d_100_18667" x="144.96" y="33.9601" width="102.08" height="102.08" filterUnits="userSpaceOnUse" color-interpolation-filters="sRGB">
<feFlood flood-opacity="0" result="BackgroundImageFix"/>
<feColorMatrix in="SourceAlpha" type="matrix" values="0 0 0 0 0 0 0 0 0 0 0 0 0 0 0 0 0 0 127 0" result="hardAlpha"/>
<feOffset dy="4.30874"/>
<feGaussianBlur stdDeviation="2.15437"/>
<feComposite in2="hardAlpha" operator="out"/>
<feColorMatrix type="matrix" values="0 0 0 0 0 0 0 0 0 0 0 0 0 0 0 0 0 0 0.05 0"/>
<feBlend mode="normal" in2="BackgroundImageFix" result="effect1_dropShadow_100_18667"/>
<feBlend mode="normal" in="SourceGraphic" in2="effect1_dropShadow_100_18667" result="shape"/>
</filter>
<linearGradient id="paint0_linear_100_18667" x1="313.5" y1="-0.500014" x2="313.5" y2="523.5" gradientUnits="userSpaceOnUse">
<stop stop-color="#111111"/>
<stop offset="0.48" stop-color="#323232"/>
<stop offset="1" stop-color="#111111"/>
</linearGradient>
</defs>
</svg>
