<svg viewBox="0 0 128 40" fill="currentColor" xmlns="http://www.w3.org/2000/svg">
    <path d="M111.327 16.0816C110.775 14 106.49 9.22449 103.368 5.36735C103.306 5.30612 103.122 5 102.755 5C102.449 5 102.204 5.30612 102.327 5.55102C102.449 5.79591 105.449 12.0408 104.898 14.0612C104.347 16.1428 101.592 15.7143 101.163 15.7143C100.919 15.7143 101.102 15.8979 101.347 16.1428C102.878 17.4898 103.857 19.3878 103.857 21.8367V23.6735C103.857 23.7347 103.857 23.7347 103.919 23.7347C107.409 23.4285 112.735 21.2857 111.327 16.0816Z" />
    <path d="M97.7957 28.1434C97.7957 29.9189 95.4085 30.8985 93.8777 30.8985C92.2247 30.8985 89.8979 29.9189 89.8979 28.1434V21.8985C89.8979 20.123 92.2247 19.3271 93.8777 19.3271C95.4085 19.3271 97.7957 20.1842 97.7957 21.8985V28.1434ZM93.8777 15.4087C90.2041 15.47 85.9183 17.5516 85.9183 21.8373V28.3883C85.9183 32.7353 90.2041 34.8169 93.8777 34.8169C97.4897 34.7557 101.775 32.7353 101.775 28.3883V21.8985C101.775 17.6128 97.4897 15.47 93.8777 15.4087Z" />
    <path d="M70.1225 28.1434C70.1225 29.9189 67.7347 30.8985 66.2041 30.8985C64.5511 30.8985 62.2246 29.9189 62.2246 28.1434V21.8985C62.2246 20.123 64.5511 19.3271 66.2041 19.3271C67.7347 19.3271 70.1225 20.1842 70.1225 21.8985V28.1434ZM66.1429 15.4087C62.4694 15.47 58.1837 17.5516 58.1837 21.8373V28.3883C58.1837 32.7353 62.4694 34.8169 66.1429 34.8169C69.7552 34.7557 74.0409 32.7353 74.0409 28.3883V21.8985C74.0409 17.6128 69.7552 15.47 66.1429 15.4087Z" />
    <path d="M26.2245 16.1428C26.4694 15.898 26.6531 15.7143 26.4082 15.7143C25.9796 15.7143 23.2245 16.1428 22.6735 14.0612C22.1224 11.9796 25.1225 5.79592 25.2449 5.55102C25.3061 5.30612 25.1225 5 24.7551 5C24.449 5 24.2041 5.36735 24.1429 5.36735C21.0816 9.22449 16.7347 14 16.1837 16.0816C14.7755 21.2857 20.2245 23.4286 23.6531 23.7959C23.7143 23.7959 23.7143 23.7347 23.7143 23.7347V21.898C23.7755 19.3878 24.6938 17.4898 26.2245 16.1428Z" />
    <path d="M57.9389 16.8774C55.0001 16.0815 52.8573 15.7754 49.6736 15.7754C46.5511 15.7754 44.3471 16.0815 41.4083 16.8774C41.2859 16.9386 41.2246 17.0611 41.2858 17.1223C42.2654 17.9795 42.694 19.0815 42.8776 20.306C44.4695 19.9386 45.9389 19.6938 47.6532 19.5713V34.6938C47.6532 34.755 47.7144 34.755 47.7757 34.755H51.5716C51.6328 34.755 51.694 34.755 51.694 34.6938V19.5713C53.347 19.6938 54.694 19.8774 56.2858 20.306C56.5307 19.0815 57.0205 17.9182 58.0613 17.1223C58.0613 16.9998 58.0001 16.8774 57.9389 16.8774Z" />
    <path d="M86.0409 15.5917C85.7347 15.5305 84.9388 15.4081 84.2041 15.4693C80.5919 15.5917 76.4899 17.7346 76.4899 21.8979V34.8163C76.4899 34.8775 76.5511 34.8775 76.6123 34.8775H80.4082C80.4694 34.8775 80.5306 34.8775 80.5306 34.8163V21.8979C80.5306 20.4897 82.2449 19.6938 83.6531 19.3877C84.0817 18.0407 84.8776 16.9999 86.1021 16.0204C86.2858 15.8367 86.2246 15.5917 86.0409 15.5917Z" />
    <path d="M37.1836 23.0004C37.1836 23.0616 37.1836 23.0616 37.1224 23.1228C37.1224 23.1841 37.0611 23.1841 36.9999 23.1841H29.7755V21.8984C29.7755 20.1228 31.9183 19.2657 33.5714 19.2657C35.1632 19.2657 37.1836 20.1228 37.1836 21.8984V23.0004ZM33.5714 15.2861C29.8367 15.3473 25.7346 17.4902 25.7346 21.8372V28.4494C25.7346 32.8575 29.8367 34.9391 33.5714 35.0004C36.2652 35.0004 39.2652 33.8984 40.7346 31.5106C40.7958 31.4494 40.7346 31.3269 40.6734 31.2657C39.3877 30.531 38.653 30.1025 37.3673 29.429C37.3061 29.429 37.3061 29.429 37.2448 29.4902C36.5714 30.6535 34.7958 31.2657 33.5714 31.2657C31.9183 31.2657 29.7755 30.2249 29.7755 28.4494V26.4902H40.1224C40.6734 26.4902 41.102 26.0616 41.102 25.5106V21.8984C41.102 17.4902 37.2448 15.3473 33.5714 15.2861Z" />
</svg>
