<svg viewBox="0 0 84 19" fill="currentColor" xmlns="http://www.w3.org/2000/svg">
    <path d="M68.0804 16.5943C67.9577 16.5943 67.8739 16.5943 67.7931 16.5943C64.812 16.5943 61.831 16.5943 58.8529 16.5943C58.5147 16.5943 58.2782 16.3548 58.2782 16.0196C58.2782 15.9089 58.2782 15.8011 58.2782 15.6934C58.5177 15.6305 58.7421 15.5826 58.9547 15.5108C59.2569 15.4091 59.3767 15.2355 59.2839 14.9391C59.0564 14.2298 58.796 13.5294 58.5386 12.8291C58.5237 12.7872 58.4309 12.7482 58.377 12.7482C57.3713 12.7423 56.3657 12.7482 55.363 12.7423C55.2283 12.7423 55.2014 12.8141 55.1744 12.9099C55.0068 13.4875 54.8422 14.0652 54.6686 14.6398C54.4561 15.3402 54.1389 15.9747 53.5223 16.4207C52.4119 17.2288 50.8944 17.0911 49.9097 16.1364C49.1345 15.3851 48.6466 14.4662 48.2306 13.4965C48.048 13.0715 47.8325 12.6614 47.644 12.2364C47.5362 12 47.3596 11.8593 47.1142 11.8234C46.8239 11.7815 46.5276 11.7665 46.2343 11.7396C46.2163 11.8054 46.2043 11.8324 46.2043 11.8593C46.2133 12.9039 46.1983 13.9485 46.2373 14.993C46.2612 15.5976 46.2941 15.5078 46.8029 15.6216C46.8957 15.6425 46.9945 15.6665 47.0903 15.6605C47.3776 15.6395 47.5572 15.8281 47.6709 16.0286C47.7487 16.1633 47.7038 16.3758 47.6949 16.5494C47.6949 16.5674 47.5632 16.5943 47.4913 16.5943C45.6955 16.5943 43.8997 16.5943 42.1069 16.5943C39.2366 16.5943 36.3692 16.5943 33.4989 16.5943C33.1188 16.5943 32.8913 16.3698 32.8913 15.9897C32.8913 15.8999 32.8913 15.8101 32.8913 15.6964C33.0649 15.6694 33.2325 15.6455 33.4001 15.6156C34.0257 15.5108 34.2472 15.3103 34.2651 14.6758C34.2951 13.6102 34.2831 12.5447 34.2801 11.4792C34.2801 10.8507 34.2681 10.2191 34.2651 9.5906C34.2651 9.08478 34.2651 8.58195 34.2202 8.06116C34.1783 8.14796 34.1334 8.23475 34.0945 8.32155C32.9272 10.9704 31.76 13.6222 30.5957 16.271C30.4879 16.5165 30.1527 16.5853 29.9701 16.3788C29.8265 16.2172 29.6888 16.0376 29.605 15.84C28.5365 13.284 27.4799 10.722 26.4204 8.15993C26.3905 8.09109 26.3605 8.02225 26.2917 7.9564C26.2707 8.27965 26.2498 8.5999 26.2348 8.92315C26.166 10.3239 26.0882 11.7276 26.0403 13.1284C26.0163 13.7838 26.0493 14.4423 26.0702 15.0978C26.0792 15.4091 26.1301 15.4629 26.4324 15.5348C26.6479 15.5856 26.8664 15.6216 27.0848 15.6485C27.4859 15.6994 27.7732 16.1423 27.6206 16.5165C27.6026 16.5584 27.4979 16.5883 27.435 16.5883C26.9083 16.5943 26.3815 16.5913 25.8547 16.5913C25.1214 16.5913 24.3851 16.5913 23.6518 16.5913C23.3765 16.5913 23.1221 16.3339 23.1221 16.0555C23.1221 15.9328 23.1221 15.8101 23.1221 15.6934C23.3825 15.6335 23.6279 15.5946 23.8643 15.5198C24.2714 15.3941 24.5228 15.1068 24.5827 14.6877C24.6784 14.0382 24.7682 13.3858 24.8251 12.7333C24.9688 10.9824 25.1005 9.23143 25.2202 7.47752C25.2441 7.13332 25.2142 6.78912 25.1992 6.44193C25.1903 6.25037 25.1064 6.11868 24.8939 6.08875C24.6874 6.06181 24.4869 6.01692 24.2804 5.98699C23.8883 5.92713 23.6997 5.71163 23.6997 5.31655C23.6997 5.22676 23.6997 5.13996 23.6997 5.02622H23.9392C24.8461 5.02622 25.7559 5.04418 26.6628 5.01724C27.0549 5.00527 27.2614 5.20581 27.3961 5.50212C28.0426 6.89986 28.6741 8.30659 29.3117 9.71032C29.7516 10.6801 30.1916 11.6468 30.6316 12.6166C30.6525 12.6644 30.6795 12.7123 30.7154 12.7901C30.7663 12.6914 30.8112 12.6136 30.8471 12.5327C31.9635 10.1174 33.0829 7.70199 34.1903 5.28362C34.2831 5.08309 34.3848 5.01425 34.6033 5.02323C35.0403 5.04119 35.4773 5.02922 35.9143 5.02922C36.1388 5.02922 36.4171 5.30458 36.4201 5.52905C36.4381 6.52573 36.45 7.51942 36.474 8.5161C36.5189 10.264 36.5698 12.015 36.6177 13.7629C36.6266 14.0382 36.6266 14.3166 36.6386 14.592C36.6865 15.5647 37.5305 16.0136 38.3835 15.5228C38.8534 15.2534 39.1079 14.8374 39.1079 14.2956C39.1138 11.8444 39.1108 9.39605 39.1079 6.94476C39.1079 6.72627 39.0779 6.50179 39.036 6.28629C39.0211 6.21446 38.9283 6.11868 38.8564 6.10072C38.602 6.04086 38.3416 6.00794 38.0812 5.97502C37.8807 5.94808 37.6054 5.66374 37.6024 5.46021C37.6024 5.32253 37.6024 5.18785 37.6024 5.0382C37.6802 5.03221 37.74 5.02622 37.8029 5.02622C39.3353 5.02622 40.8678 5.02622 42.3972 5.02622C42.6636 5.02622 42.9389 5.2956 42.9389 5.55898C42.9389 5.68768 42.9389 5.81938 42.9389 5.95107C42.6696 5.98699 42.4211 6.01392 42.1787 6.05882C41.7447 6.13664 41.5562 6.33418 41.4933 6.77116C41.4694 6.94176 41.4514 7.11536 41.4514 7.28596C41.4514 9.72229 41.4514 12.1586 41.4514 14.5949C41.4514 14.6907 41.4514 14.7895 41.4694 14.8853C41.5831 15.5767 42.1069 15.7592 42.7055 15.6814C43.4238 15.5886 43.9147 14.993 43.9147 14.2687C43.9147 12.0179 43.9147 9.77018 43.9147 7.51942C43.9147 6.77116 43.9177 6.0259 43.9206 5.27764C43.9206 5.21778 43.9206 5.15492 43.9206 5.07411C44.0104 5.06813 44.0823 5.06214 44.1541 5.06214C45.3184 5.06214 46.4827 5.05915 47.647 5.07112C48.2576 5.07711 48.8771 5.11302 49.4398 5.36444C50.4784 5.82836 51.2835 6.5407 51.508 7.70798C51.7804 9.12368 51.1907 10.258 49.9067 10.9225C49.7481 11.0063 49.5865 11.0811 49.4099 11.1679C49.4368 11.2278 49.4607 11.2817 49.4907 11.3325C50.194 12.5627 50.8974 13.7958 51.6038 15.0259C51.7474 15.2774 52.0108 15.2983 52.2562 15.2983C52.7022 15.3013 53.0284 15.0589 53.1901 14.6398C54.4082 11.5181 55.6264 8.39338 56.8356 5.26866C56.9224 5.04119 57.0331 4.90351 57.2815 4.89453C57.3145 4.89453 57.3474 4.87358 57.3803 4.86759C57.5 4.84664 57.6676 4.76583 57.7335 4.81671C57.8921 4.93943 58.0537 5.10105 58.1226 5.28362C59.2689 8.35148 60.4003 11.4223 61.5346 14.4932C61.6005 14.6728 61.6783 14.8523 61.7651 15.0259C62.0584 15.6186 62.6391 15.846 63.2736 15.6216C63.8782 15.4061 64.2284 14.8883 64.2314 14.1909C64.2314 12.413 64.2314 10.6322 64.2314 8.85431C64.2314 8.14796 64.2433 7.4416 64.2104 6.73824C64.1805 6.04685 64.1745 6.11569 63.525 6.00794C63.3305 5.97502 63.118 6.0229 62.9474 5.84033C62.8037 5.68768 62.7139 5.54402 62.7438 5.33151C62.7558 5.23873 62.7438 5.14295 62.7438 5.0352C62.8246 5.03221 62.8875 5.02622 62.9474 5.02622C64.4379 5.02622 65.9284 5.02622 67.4189 5.02622C67.6734 5.02622 67.9427 5.2956 67.9427 5.54701C67.9427 5.67871 67.9427 5.80741 67.9427 5.95107C67.7093 5.98699 67.4848 6.01093 67.2633 6.05283C66.8144 6.13963 66.5929 6.34914 66.5749 6.80408C66.539 7.71696 66.539 8.62983 66.527 9.54271C66.527 9.7193 66.527 9.89888 66.527 10.1323C66.6797 10.0306 66.8054 9.97071 66.8982 9.87793C67.5716 9.22245 68.251 8.56997 68.9065 7.89355C69.3105 7.47752 69.6817 7.02557 70.0588 6.5826C70.1845 6.43295 70.2833 6.25935 70.418 6.05583C70.0109 5.981 69.5799 6.03488 69.3973 5.63082C69.3225 5.46321 69.3644 5.24172 69.3494 5.03221C69.4452 5.02622 69.5141 5.02024 69.5799 5.02024C70.9178 5.02024 72.2557 5.02024 73.5936 5.02024C73.854 5.02024 74.1263 5.2956 74.1263 5.55898C74.1263 5.68768 74.1263 5.81938 74.1263 5.94209C73.7851 6.00195 73.4709 6.04086 73.1626 6.1097C72.4293 6.27731 71.8426 6.70831 71.3129 7.21413C70.403 8.0881 69.5111 8.97703 68.6132 9.85997C68.5952 9.87793 68.5802 9.90187 68.5533 9.94078C68.9454 10.4526 69.3225 10.9704 69.7266 11.4702C70.6424 12.5986 71.5613 13.727 72.4981 14.8374C73.0488 15.4899 73.7612 15.8041 74.6202 15.6455C75.2158 15.5348 75.6677 14.9751 75.6857 14.3705C75.7007 13.8736 75.6947 13.3738 75.6947 12.8769C75.6947 10.3448 75.6947 7.80974 75.6947 5.27764C75.6947 5.20281 75.6947 5.12799 75.6947 5.03221C75.7755 5.02922 75.8413 5.02024 75.9072 5.02024C76.9398 5.02024 77.9724 5.02024 79.005 5.02024C79.2534 5.02024 79.5317 5.2956 79.5347 5.54103C79.5347 5.6787 79.5347 5.81339 79.5347 5.94808C79.2803 5.981 79.0529 6.00495 78.8284 6.04385C78.3016 6.13664 78.1011 6.35214 78.0532 6.8849C78.0322 7.11835 78.0203 7.3548 78.0203 7.58826C78.0203 9.8031 78.0173 12.0179 78.0203 14.2328C78.0203 14.5501 78.0622 14.8673 78.0831 15.1816C78.0921 15.3342 78.1759 15.418 78.3256 15.442C79.0978 15.5647 79.87 15.5797 80.6392 15.418C81.121 15.3163 81.4533 15.011 81.6837 14.5979C81.9022 14.2059 82.0908 13.7988 82.2793 13.3917C82.3362 13.266 82.3871 13.2152 82.5248 13.272C82.6595 13.3259 82.8211 13.3289 82.9348 13.4097C83.1503 13.5624 83.306 13.733 83.2192 14.0622C83.0186 14.8314 82.866 15.6096 82.7014 16.3878C82.6684 16.5434 82.5966 16.5913 82.435 16.5913C78.7625 16.5853 75.0871 16.5913 71.4146 16.5823C71.3129 16.5823 71.1752 16.5314 71.1123 16.4536C70.5676 15.8071 70.0289 15.1576 69.5051 14.4962C68.694 13.4696 67.8978 12.431 67.0927 11.3984C67.0418 11.3325 66.9909 11.2577 66.9191 11.2248C66.8173 11.1799 66.6976 11.1679 66.5869 11.141C66.5689 11.2368 66.533 11.3295 66.533 11.4253C66.533 12.5118 66.533 13.5983 66.533 14.6847C66.533 14.8015 66.545 14.9182 66.5599 15.0349C66.6228 15.5078 66.6378 15.5258 67.1077 15.6036C67.2094 15.6216 67.3142 15.6545 67.4159 15.6425C67.7123 15.6096 67.9008 15.7952 68.0205 16.0017C68.1043 16.1453 68.0684 16.3578 68.0894 16.5823L68.0804 16.5943ZM46.1954 10.7728C46.5276 10.7519 46.8329 10.7459 47.1322 10.716C48.054 10.6232 48.7275 10.0575 48.9789 9.16858C49.1495 8.56997 49.1405 7.96837 49.0088 7.36378C48.8741 6.73824 48.5389 6.28928 47.8834 6.15759C47.5961 6.09773 47.2938 6.06181 47.0005 6.07379C46.3151 6.10072 46.1924 6.24439 46.1924 6.93578C46.1924 8.11803 46.1924 9.30027 46.1924 10.4825V10.7758L46.1954 10.7728ZM56.9403 8.22877C56.9224 8.22877 56.9014 8.22877 56.8835 8.23176C56.4794 9.32123 56.0783 10.4107 55.6683 11.5151H58.0956C57.7066 10.4047 57.3234 9.31524 56.9433 8.22877H56.9403Z" />
    <path d="M9.99421 18.6354C9.4824 18.6025 8.97059 18.5935 8.46177 18.5306C7.6776 18.4319 7.04607 18.0039 6.44148 17.528C4.43016 15.9477 2.93963 13.9633 1.85615 11.6616C1.13184 10.1112 0.667917 8.48004 0.500307 6.77402C0.458405 6.35798 0.479356 5.93297 0.488335 5.51395C0.491328 5.38824 0.530237 5.24757 0.593091 5.13982C1.04504 4.3736 1.48202 3.59542 1.97587 2.85314C2.29912 2.36827 2.78399 2.04802 3.31974 1.80558C4.87313 1.09623 6.50134 0.686188 8.19839 0.53055C10.4551 0.324031 12.667 0.53055 14.816 1.25786C15.5523 1.50927 16.2646 1.8415 16.965 2.1827C17.2194 2.30841 17.4618 2.53289 17.6145 2.77233C18.0275 3.42481 18.4136 4.10124 18.7638 4.78964C19.1349 5.51694 19.1589 6.30112 19.0511 7.10026C18.5662 10.6171 17.0398 13.6221 14.5975 16.1841C13.8253 16.9952 12.9573 17.6896 12.0115 18.2882C11.6703 18.5067 11.3022 18.6204 10.8921 18.6085C10.5958 18.5995 10.2965 18.6085 9.9972 18.6085V18.6384L9.99421 18.6354ZM14.5017 6.16344C14.4688 6.13351 14.4089 6.05569 14.3311 6.02576C13.1219 5.52293 11.8708 5.1907 10.5629 5.08595C8.71319 4.93929 6.93233 5.19968 5.24426 5.99882C5.11556 6.05868 5.07067 6.12752 5.09162 6.2652C5.34004 8.05503 5.89375 9.73412 6.87846 11.2606C7.60577 12.3889 8.50667 13.3557 9.62008 14.1159C9.72483 14.1878 9.80564 14.2267 9.92836 14.1309C11.5626 12.8678 12.8555 11.3384 13.6876 9.43781C14.1336 8.41719 14.4089 7.35167 14.4987 6.16344H14.5017ZM17.7312 5.99283C16.9769 8.84819 15.5343 11.3324 13.6637 13.5921C15.6959 11.4222 17.1206 8.92601 17.7312 5.99283ZM11.9307 3.06864C10.3594 2.33834 4.44512 2.54785 3.46341 3.34699C6.24693 2.57778 9.05439 2.58078 11.9307 3.06864ZM7.80929 16.6151C6.0015 14.6726 4.71749 12.4189 3.77768 9.95561C3.94529 11.512 6.56718 15.8519 7.80929 16.6151Z" />
</svg>
