<svg viewBox="0 0 128 40" fill="currentColor" xmlns="http://www.w3.org/2000/svg">
    <path d="M113.906 29.4186C112.989 29.4186 112.184 29.245 111.489 28.8979C110.795 28.5507 110.252 28.0612 109.861 27.4292C109.478 26.7972 109.286 26.0629 109.286 25.2262V25.1995C109.286 24.4073 109.482 23.7219 109.874 23.1433C110.274 22.5648 110.848 22.1064 111.596 21.7682C112.352 21.4299 113.26 21.2297 114.32 21.1674L119.46 20.8737V22.6761L114.587 22.9698C113.661 23.0232 112.94 23.2458 112.424 23.6374C111.917 24.029 111.662 24.5497 111.662 25.1995V25.2262C111.662 25.8938 111.912 26.4234 112.41 26.815C112.918 27.2067 113.59 27.4025 114.427 27.4025C115.157 27.4025 115.811 27.2511 116.389 26.9486C116.977 26.637 117.439 26.2142 117.778 25.6802C118.125 25.1461 118.299 24.5453 118.299 23.8777V19.7788C118.299 18.9332 118.032 18.2701 117.497 17.7894C116.972 17.2999 116.224 17.0551 115.255 17.0551C114.364 17.0551 113.644 17.2509 113.092 17.6426C112.548 18.0253 112.21 18.5282 112.077 19.1513L112.05 19.2715H109.807L109.82 19.1246C109.891 18.3591 110.15 17.6648 110.595 17.0417C111.049 16.4187 111.672 15.9247 112.464 15.5598C113.256 15.1859 114.195 14.999 115.281 14.999C116.375 14.999 117.32 15.1859 118.112 15.5598C118.913 15.9336 119.531 16.4632 119.968 17.1486C120.403 17.8251 120.622 18.6261 120.622 19.5519V29.1515H118.299V26.8952H118.245C117.978 27.4025 117.622 27.8475 117.177 28.2303C116.732 28.6042 116.229 28.8979 115.668 29.1115C115.116 29.3162 114.529 29.4186 113.906 29.4186Z" />
    <path d="M87.8711 29.1515V15.266H90.1942V17.2955H90.2476C90.5592 16.61 91.0487 16.0582 91.7163 15.6399C92.3839 15.2126 93.1626 14.999 94.0527 14.999C94.6848 14.999 95.2544 15.1058 95.7618 15.3195C96.278 15.5242 96.7231 15.8268 97.0969 16.2273C97.4704 16.619 97.7559 17.0997 97.9512 17.6693H98.0046C98.2625 17.1085 98.606 16.6323 99.0325 16.2407C99.4691 15.8401 99.9674 15.533 100.528 15.3195C101.097 15.1058 101.707 14.999 102.357 14.999C103.274 14.999 104.071 15.1904 104.748 15.5731C105.424 15.947 105.949 16.4766 106.323 17.1619C106.697 17.8384 106.884 18.6395 106.884 19.5652V29.1515H104.561V20.0993C104.561 19.4584 104.445 18.911 104.213 18.457C103.991 18.003 103.665 17.656 103.239 17.4156C102.812 17.1753 102.29 17.0551 101.677 17.0551C101.062 17.0551 100.519 17.1976 100.047 17.4824C99.5759 17.7583 99.2066 18.1455 98.9395 18.6439C98.6724 19.1335 98.5388 19.6943 98.5388 20.3262V29.1515H96.2157V19.8456C96.2157 19.2848 96.0955 18.7952 95.8552 18.3769C95.6238 17.9585 95.2944 17.6337 94.8672 17.4022C94.4489 17.1709 93.9504 17.0551 93.3718 17.0551C92.7576 17.0551 92.2103 17.2064 91.7297 17.5091C91.2579 17.8028 90.884 18.2034 90.6081 18.7107C90.3321 19.2181 90.1942 19.7966 90.1942 20.4464V29.1515H87.8711Z" />
    <path d="M78.2045 29.4186C77.2877 29.4186 76.4822 29.245 75.7879 28.8979C75.0936 28.5507 74.5507 28.0612 74.1591 27.4292C73.7763 26.7972 73.585 26.0629 73.585 25.2262V25.1995C73.585 24.4073 73.7808 23.7219 74.1724 23.1433C74.573 22.5648 75.1471 22.1064 75.8947 21.7682C76.6513 21.4299 77.5592 21.2297 78.6184 21.1674L83.7587 20.8737V22.6761L78.8854 22.9698C77.9598 23.0232 77.2388 23.2458 76.7225 23.6374C76.2151 24.029 75.9615 24.5497 75.9615 25.1995V25.2262C75.9615 25.8938 76.2107 26.4234 76.7092 26.815C77.2165 27.2067 77.8886 27.4025 78.7253 27.4025C79.4551 27.4025 80.1093 27.2511 80.6879 26.9486C81.2754 26.637 81.7382 26.2142 82.0764 25.6802C82.4236 25.1461 82.5972 24.5453 82.5972 23.8777V19.7788C82.5972 18.9332 82.3301 18.2701 81.7961 17.7894C81.2709 17.2999 80.5233 17.0551 79.553 17.0551C78.6629 17.0551 77.9419 17.2509 77.3901 17.6426C76.8471 18.0253 76.5088 18.5282 76.3754 19.1513L76.3487 19.2715H74.1056L74.119 19.1246C74.1902 18.3591 74.4484 17.6648 74.8934 17.0417C75.3473 16.4187 75.9704 15.9247 76.7626 15.5598C77.5548 15.1859 78.4938 14.999 79.5797 14.999C80.6746 14.999 81.618 15.1859 82.4102 15.5598C83.2113 15.9336 83.8299 16.4632 84.266 17.1486C84.7023 17.8251 84.9203 18.6261 84.9203 19.5519V29.1515H82.5972V26.8952H82.5438C82.2767 27.4025 81.9207 27.8475 81.4756 28.2303C81.0306 28.6042 80.5277 28.8979 79.9669 29.1115C79.415 29.3162 78.8276 29.4186 78.2045 29.4186Z" />
    <path d="M68.6851 29.1518V9.88574H71.0082V29.1518H68.6851Z" />
    <path d="M63.104 29.1518V9.88574H65.4272V29.1518H63.104Z" />
    <path d="M51.4882 29.4724C49.6635 29.4724 48.0836 29.0675 46.7485 28.2575C45.4222 27.4474 44.3986 26.2992 43.6776 24.8127C42.9566 23.3264 42.5962 21.5639 42.5962 19.5256V19.4989C42.5962 17.4605 42.9566 15.7026 43.6776 14.2251C44.4075 12.7386 45.4355 11.5904 46.7618 10.7804C48.097 9.97042 49.6725 9.56543 51.4882 9.56543C53.304 9.56543 54.875 9.97042 56.2012 10.7804C57.5276 11.5904 58.5511 12.7386 59.2721 14.2251C59.9931 15.7026 60.3535 17.4605 60.3535 19.4989V19.5256C60.3535 21.5639 59.9931 23.3264 59.2721 24.8127C58.5511 26.2992 57.5276 27.4474 56.2012 28.2575C54.884 29.0675 53.3129 29.4724 51.4882 29.4724ZM51.4882 27.2561C52.8144 27.2561 53.9538 26.9401 54.9062 26.3082C55.8675 25.6673 56.6062 24.7683 57.1225 23.6111C57.6388 22.454 57.8969 21.0922 57.8969 19.5256V19.4989C57.8969 17.9235 57.6343 16.5572 57.1091 15.4C56.5929 14.2428 55.8541 13.3528 54.8928 12.7297C53.9315 12.0977 52.7967 11.7818 51.4882 11.7818C50.1798 11.7818 49.0404 12.0977 48.0703 12.7297C47.109 13.3528 46.3657 14.2428 45.8406 15.4C45.3154 16.5482 45.0528 17.9145 45.0528 19.4989V19.5256C45.0528 21.1011 45.3154 22.4674 45.8406 23.6245C46.3657 24.7816 47.109 25.6761 48.0703 26.3082C49.0316 26.9401 50.1708 27.2561 51.4882 27.2561Z" />
    <path d="M12.7649 2.00986C12.4382 2.06262 12.0462 2.23352 11.7698 2.44459C10.933 3.08036 10.2846 4.42982 10.0107 6.11096C9.90767 6.74673 9.83732 7.62878 9.83732 8.30227C9.83732 9.09634 9.93029 10.1115 10.0635 10.8126C10.0936 10.9685 10.1087 11.1067 10.0962 11.1168C10.0861 11.1268 9.96297 11.2273 9.82474 11.3379C9.35233 11.7148 8.81204 12.2953 8.44011 12.8256C7.72646 13.8383 7.26409 14.9892 7.07056 16.2356C6.99517 16.7281 6.97508 17.7233 7.03538 18.2158C7.16857 19.3516 7.51033 20.3115 8.09584 21.1911L8.28683 21.4751L8.23153 21.568C7.83951 22.2265 7.50529 23.1789 7.34951 24.0936C7.22637 24.8173 7.21128 25.0107 7.21128 25.9808C7.21128 26.9583 7.22387 27.1518 7.33948 27.8278C7.47766 28.6369 7.75912 29.4939 8.07321 30.0643C8.17627 30.2502 8.42756 30.6373 8.45769 30.6574C8.46777 30.6624 8.43761 30.7554 8.38984 30.8634C8.028 31.6549 7.71891 32.7079 7.59077 33.595C7.50029 34.2031 7.48771 34.3991 7.48771 35.0399C7.48771 35.8566 7.53296 36.2537 7.70382 36.9045L7.72895 37H8.80449H9.88254L9.8122 36.8668C9.37746 36.0626 9.33725 34.57 9.71168 33.0798C9.88254 32.3912 10.076 31.8862 10.4379 31.1901L10.654 30.768V30.5091C10.654 30.2678 10.649 30.2402 10.5711 30.0819C10.5108 29.9612 10.4304 29.8582 10.2871 29.7175C10.0434 29.4814 9.86745 29.2325 9.72677 28.926C9.10854 27.584 8.98794 25.5913 9.42267 23.8925C9.60362 23.1838 9.90267 22.5531 10.2168 22.2089C10.4304 21.9727 10.5409 21.7088 10.5409 21.4349C10.5409 21.1509 10.4404 20.9172 10.2143 20.6734C9.56591 19.9799 9.16635 19.1355 9.02311 18.153C8.81958 16.7532 9.18898 15.2279 10.0283 14.0192C10.85 12.8331 12.0035 12.0716 13.2926 11.8682C13.5816 11.8204 14.1219 11.8279 14.4234 11.8832C14.7527 11.941 14.9586 11.9234 15.1698 11.8228C15.4311 11.6998 15.5617 11.5464 15.7151 11.1946C15.8508 10.8805 15.9563 10.7097 16.2403 10.3553C16.5821 9.93064 16.9113 9.64164 17.4389 9.29233C18.042 8.89782 18.7281 8.61135 19.4116 8.47312C19.6603 8.42287 19.776 8.41533 20.2409 8.41533C20.7058 8.41533 20.8214 8.42287 21.0701 8.47312C22.0728 8.67669 23.0679 9.19436 23.8621 9.9281C24.0329 10.0864 24.4425 10.5941 24.5732 10.8052C24.6234 10.8881 24.7114 11.064 24.7666 11.1946C24.92 11.5464 25.0506 11.6998 25.312 11.8228C25.5156 11.9208 25.7291 11.941 26.0457 11.8882C26.5458 11.8028 26.9303 11.8103 27.4204 11.9108C29.089 12.2475 30.5415 13.6221 31.1847 15.4641C31.7451 17.0799 31.5868 18.7712 30.7525 20.0628C30.6117 20.2814 30.471 20.4573 30.2675 20.6734C29.8277 21.1433 29.8277 21.7264 30.265 22.2089C30.9837 22.9954 31.4335 24.9303 31.2978 26.6367C31.2074 27.7625 30.9184 28.7701 30.5213 29.3406C30.4509 29.4411 30.3052 29.612 30.1946 29.7175C30.0514 29.8582 29.971 29.9612 29.9106 30.0819C29.8328 30.2402 29.8277 30.2678 29.8277 30.5091V30.768L30.0438 31.1901C30.4057 31.8862 30.5992 32.3912 30.7701 33.0798C31.1395 34.5499 31.1068 36.0124 30.6847 36.8442C30.6495 36.9145 30.6193 36.9799 30.6193 36.9875C30.6193 36.995 31.0993 37 31.6873 37H32.7528L32.7804 36.892C32.7956 36.8342 32.8207 36.7462 32.8332 36.696C32.8609 36.5854 32.9161 36.2587 32.9614 35.9446C33.0041 35.6279 33.0041 34.4619 32.9614 34.1101C32.8005 32.8335 32.5317 31.8208 32.092 30.8634C32.0442 30.7554 32.0139 30.6624 32.024 30.6574C32.0366 30.6498 32.107 30.5493 32.1823 30.4362C32.7302 29.607 33.0669 28.5641 33.2378 27.187C33.2831 26.8075 33.2831 25.1766 33.2378 24.8123C33.1172 23.8724 32.9715 23.2341 32.7302 22.5883C32.6297 22.3194 32.3633 21.7515 32.2502 21.568L32.1949 21.4751L32.386 21.1911C32.9715 20.3115 33.3132 19.3516 33.4464 18.2158C33.5067 17.7233 33.4866 16.7281 33.4112 16.2356C33.2152 14.9867 32.7553 13.8408 32.0417 12.8256C31.6697 12.2953 31.1295 11.7148 30.6571 11.3379C30.5188 11.2273 30.3957 11.1268 30.3856 11.1168C30.3731 11.1067 30.3881 10.9685 30.4183 10.8126C30.7224 9.227 30.7123 7.24935 30.3932 5.70386C30.1168 4.35693 29.6141 3.28643 28.9658 2.66825C28.4481 2.17571 27.9204 1.9646 27.2872 2.00481C25.8347 2.09028 24.6637 3.76138 24.2013 6.39492C24.1259 6.81961 24.0606 7.31719 24.0606 7.45288C24.0606 7.50564 24.0505 7.54836 24.0379 7.54836C24.0254 7.54836 23.9274 7.4981 23.8218 7.43529C22.7011 6.77186 21.4546 6.41755 20.2409 6.41755C19.0271 6.41755 17.7807 6.77186 16.6599 7.43529C16.5544 7.4981 16.4564 7.54836 16.4438 7.54836C16.4313 7.54836 16.4212 7.50564 16.4212 7.45288C16.4212 7.31215 16.3534 6.79952 16.2805 6.39492C15.8608 4.03026 14.8984 2.46467 13.6193 2.07016C13.4434 2.0174 12.9433 1.98223 12.7649 2.00986ZM13.1921 4.05539C13.554 4.34185 13.956 5.16106 14.1872 6.07828C14.2299 6.24415 14.2751 6.43514 14.2877 6.50548C14.2978 6.57337 14.3254 6.72664 14.348 6.84474C14.4461 7.37749 14.4913 7.95296 14.4963 8.65407L14.4988 9.34514L14.3254 9.60143L14.152 9.86026H13.7474C13.275 9.86026 12.8051 9.9206 12.3553 10.0412C12.1944 10.0814 12.0386 10.1216 12.0085 10.1292C11.9607 10.1392 11.9532 10.1241 11.9256 9.91806C11.7773 8.7998 11.7848 7.56094 11.9482 6.53061C12.1291 5.38222 12.5513 4.34185 12.9634 4.0353C13.0614 3.96242 13.079 3.96491 13.1921 4.05539ZM27.5209 4.0378C27.7696 4.22125 28.0436 4.70873 28.2471 5.33196C28.6567 6.57837 28.7723 8.28968 28.5562 9.91806C28.5286 10.1241 28.521 10.1392 28.4732 10.1292C28.4431 10.1216 28.2873 10.0814 28.1265 10.0412C27.6767 9.9206 27.2067 9.86026 26.7343 9.86026H26.3298L26.1563 9.60143L25.983 9.34514L25.9855 8.65407C25.9905 7.67904 26.081 6.91763 26.2971 6.07075C26.5258 5.16106 26.9303 4.34185 27.2897 4.05539C27.4028 3.96491 27.4204 3.96242 27.5209 4.0378Z" />
    <path d="M19.8512 16.6851C19.3059 16.7379 19.1576 16.758 18.8962 16.8109C18.4715 16.8987 17.9036 17.0948 17.5091 17.2883C16.1371 17.9592 15.1922 19.0775 14.9032 20.3717C14.8454 20.628 14.8379 20.7134 14.8379 21.1456C14.8379 21.5728 14.8454 21.6658 14.9007 21.9095C15.2852 23.6008 16.8432 24.8497 18.8586 25.0784C19.2959 25.1261 21.1856 25.1261 21.6228 25.0784C23.2412 24.8949 24.6334 24.0179 25.259 22.7866C25.4249 22.4574 25.5053 22.2438 25.5807 21.9095C25.636 21.6658 25.6436 21.5728 25.6436 21.1456C25.6436 20.7134 25.636 20.628 25.5782 20.3717C25.1585 18.492 23.3341 17.0118 21.0976 16.7304C20.8061 16.6953 20.0422 16.6651 19.8512 16.6851ZM20.791 18.0522C21.5374 18.1327 22.2887 18.399 22.8919 18.8011C23.2161 19.0172 23.6734 19.4695 23.8694 19.7661C24.1107 20.1329 24.2488 20.5073 24.3117 20.9622C24.3393 21.1708 24.3243 21.3291 24.2488 21.6658C24.1308 22.1684 23.7638 22.6936 23.2688 23.0605C23.0376 23.2289 22.5576 23.4727 22.2636 23.5681C21.7057 23.7465 21.3413 23.7792 20.0396 23.7691C19.1903 23.7616 19.0395 23.754 18.7957 23.7088C17.964 23.5531 17.3056 23.2213 16.8282 22.7162C16.4412 22.3091 16.2652 21.9373 16.1697 21.3366C16.127 21.0577 16.2074 20.5953 16.3708 20.2058C16.5693 19.7309 17.0819 19.1403 17.5895 18.8011C18.1775 18.4091 18.9516 18.1301 19.6627 18.0547C19.9367 18.0245 20.5171 18.0245 20.791 18.0522Z" />
    <path d="M19.2809 19.8872C19.0899 19.9902 18.9567 20.2516 18.9969 20.445C19.0421 20.6536 19.2255 20.8647 19.512 21.0382C19.6654 21.1311 19.6754 21.1436 19.6829 21.2366C19.6879 21.2919 19.6678 21.4502 19.6402 21.591C19.6101 21.7291 19.5874 21.8749 19.5874 21.9152C19.5899 22.0232 19.6905 22.1991 19.796 22.2845C19.889 22.36 19.9066 22.3624 20.1679 22.37C20.4067 22.3775 20.4569 22.3725 20.5524 22.3273C20.7987 22.2066 20.8615 21.9855 20.771 21.5608C20.6956 21.2065 20.7107 21.1512 20.8992 21.0431C21.0977 20.9275 21.3088 20.724 21.3716 20.5857C21.4923 20.3219 21.3816 20.0229 21.1153 19.8846C21.05 19.852 20.9696 19.8369 20.8515 19.8369C20.668 19.8369 20.5499 19.8797 20.3338 20.0178L20.2106 20.0957L20.1328 20.048C19.8136 19.8595 19.7558 19.8369 19.5623 19.8394C19.4241 19.8394 19.3487 19.852 19.2809 19.8872Z" />
    <path d="M13.1794 16.9695C12.7347 17.1102 12.4029 17.4369 12.2321 17.9018C12.1491 18.1229 12.1089 18.4723 12.1441 18.6607C12.227 19.1106 12.5964 19.5202 13.0161 19.6333C13.5438 19.7714 13.9383 19.681 14.2877 19.3342C14.4912 19.1357 14.6018 18.9623 14.7124 18.6808C14.7928 18.4823 14.7977 18.4471 14.7977 18.1657L14.8003 17.8641L14.6948 17.648C14.5264 17.3062 14.2223 17.0524 13.8705 16.9595C13.672 16.9092 13.3528 16.9118 13.1794 16.9695Z" />
    <path d="M26.6014 16.9615C26.2571 17.0545 25.9505 17.3108 25.7872 17.6476L25.6816 17.8636L25.6841 18.1652C25.6841 18.4467 25.6892 18.4819 25.7696 18.6803C25.8802 18.9618 25.9907 19.1352 26.1943 19.3337C26.5436 19.6805 26.9381 19.771 27.4658 19.6328C27.7699 19.5523 28.074 19.296 28.2197 18.997C28.3453 18.7432 28.3755 18.5598 28.3353 18.2708C28.2424 17.6098 27.8553 17.1298 27.2799 16.9615C27.1115 16.9113 26.7848 16.9113 26.6014 16.9615Z" />
</svg>
