<svg width="488" height="474" viewBox="0 0 488 474" fill="none" xmlns="http://www.w3.org/2000/svg">
<g clip-path="url(#clip0_130_799)">
<mask id="mask0_130_799" style="mask-type:alpha" maskUnits="userSpaceOnUse" x="-20" y="40" width="528" height="434">
<rect x="-19.2363" y="40.7637" width="525.791" height="432.241" fill="white" stroke="url(#paint0_linear_130_799)" stroke-width="1.52735"/>
</mask>
<g mask="url(#mask0_130_799)">
<path opacity="0.12" d="M-150.717 846.179L-150.717 846.79L-150.106 846.79L-120.5 846.79L-119.889 846.79L-119.889 846.179L-119.889 816.573L-119.889 815.962L-120.5 815.962L-150.106 815.962L-150.717 815.962L-150.717 816.573L-150.717 846.179ZM901.058 847.173L901.058 847.784L901.669 847.784L931.275 847.784L931.886 847.784L931.886 847.173L931.886 817.567L931.886 816.956L931.275 816.956L901.669 816.956L901.058 816.956L901.058 817.567L901.058 847.173Z" fill="white" stroke="url(#paint1_radial_130_799)" stroke-width="1.22188"/>
</g>
<line x1="187" y1="286.676" x2="276" y2="286.676" stroke="white" stroke-width="1.5"/>
<path d="M172.566 350V342.7H174.046L174.756 345.02C174.829 345.253 174.889 345.467 174.936 345.66C174.983 345.853 175.013 345.993 175.026 346.08C175.039 345.993 175.069 345.853 175.116 345.66C175.163 345.467 175.219 345.253 175.286 345.02L175.966 342.7H177.446V350H176.276V347.73C176.276 347.397 176.286 347.033 176.306 346.64C176.326 346.247 176.349 345.853 176.376 345.46C176.403 345.067 176.433 344.693 176.466 344.34C176.506 343.987 176.539 343.677 176.566 343.41L175.586 346.86H174.446L173.436 343.41C173.469 343.663 173.503 343.963 173.536 344.31C173.569 344.65 173.599 345.017 173.626 345.41C173.659 345.797 173.686 346.19 173.706 346.59C173.726 346.99 173.736 347.37 173.736 347.73V350H172.566ZM178.352 350L180.192 342.7H181.802L183.652 350H182.372L181.972 348.23H180.032L179.632 350H178.352ZM180.262 347.21H181.742L181.302 345.25C181.229 344.923 181.165 344.63 181.112 344.37C181.059 344.103 181.022 343.91 181.002 343.79C180.982 343.91 180.945 344.103 180.892 344.37C180.845 344.63 180.782 344.92 180.702 345.24L180.262 347.21ZM184.278 350L186.298 346.26L184.398 342.7H185.798L186.718 344.53C186.785 344.663 186.845 344.793 186.898 344.92C186.951 345.04 186.991 345.133 187.018 345.2C187.038 345.133 187.075 345.04 187.128 344.92C187.181 344.793 187.241 344.663 187.308 344.53L188.238 342.7H189.598L187.698 346.23L189.718 350H188.318L187.288 347.98C187.221 347.847 187.158 347.717 187.098 347.59C187.045 347.463 187.005 347.363 186.978 347.29C186.951 347.363 186.911 347.463 186.858 347.59C186.805 347.717 186.745 347.847 186.678 347.98L185.638 350H184.278Z" fill="#6D6D6D"/>
<path d="M198.994 350.1C198.321 350.1 197.781 349.933 197.374 349.6C196.967 349.26 196.744 348.8 196.704 348.22H197.954C197.981 348.473 198.081 348.67 198.254 348.81C198.434 348.943 198.681 349.01 198.994 349.01C199.341 349.01 199.604 348.92 199.784 348.74C199.964 348.553 200.054 348.297 200.054 347.97V347.26C200.054 346.927 199.964 346.673 199.784 346.5C199.604 346.32 199.341 346.23 198.994 346.23C198.781 346.23 198.597 346.273 198.444 346.36C198.291 346.447 198.174 346.567 198.094 346.72H196.874L196.924 342.7H201.034V343.83H198.104L198.084 345.95H198.374L198.074 346.2C198.074 345.893 198.194 345.653 198.434 345.48C198.681 345.3 199.011 345.21 199.424 345.21C200.017 345.203 200.477 345.383 200.804 345.75C201.137 346.11 201.304 346.613 201.304 347.26V347.97C201.304 348.63 201.097 349.15 200.684 349.53C200.277 349.91 199.714 350.1 198.994 350.1ZM205 350.1C204.527 350.1 204.117 350.01 203.77 349.83C203.423 349.65 203.153 349.397 202.96 349.07C202.773 348.743 202.68 348.36 202.68 347.92V344.78C202.68 344.34 202.773 343.957 202.96 343.63C203.153 343.303 203.423 343.05 203.77 342.87C204.117 342.69 204.527 342.6 205 342.6C205.48 342.6 205.89 342.69 206.23 342.87C206.577 343.05 206.843 343.303 207.03 343.63C207.223 343.957 207.32 344.34 207.32 344.78V347.92C207.32 348.36 207.223 348.743 207.03 349.07C206.843 349.397 206.577 349.65 206.23 349.83C205.883 350.01 205.473 350.1 205 350.1ZM205 349.02C205.347 349.02 205.623 348.92 205.83 348.72C206.037 348.52 206.14 348.253 206.14 347.92V344.78C206.14 344.447 206.037 344.18 205.83 343.98C205.623 343.78 205.347 343.68 205 343.68C204.653 343.68 204.377 343.78 204.17 343.98C203.963 344.18 203.86 344.447 203.86 344.78V347.92C203.86 348.253 203.963 348.52 204.17 348.72C204.377 348.92 204.653 349.02 205 349.02ZM205 347C204.807 347 204.647 346.937 204.52 346.81C204.4 346.683 204.34 346.52 204.34 346.32C204.34 346.12 204.4 345.96 204.52 345.84C204.64 345.72 204.8 345.66 205 345.66C205.2 345.66 205.36 345.72 205.48 345.84C205.6 345.96 205.66 346.12 205.66 346.32C205.66 346.52 205.6 346.683 205.48 346.81C205.36 346.937 205.2 347 205 347Z" fill="#DDDDDD"/>
<path d="M47 360C46.2044 360.796 45.7574 361.875 45.7574 363C45.7574 364.125 46.2044 365.204 47 366C47.7957 366.796 48.8748 367.243 50 367.243C51.1252 367.243 52.2044 366.796 53 366C53 367.187 52.6481 368.347 51.9888 369.333C51.3295 370.32 50.3925 371.089 49.2961 371.543C48.1997 371.997 46.9933 372.116 45.8295 371.885C44.6656 371.653 43.5965 371.082 42.7574 370.243C41.9182 369.404 41.3468 368.334 41.1153 367.171C40.8838 366.007 41.0026 364.8 41.4567 363.704C41.9109 362.608 42.6799 361.67 43.6666 361.011C44.6533 360.352 45.8133 360 47 360Z" stroke="#6D6D6D" stroke-linecap="round" stroke-linejoin="round"/>
<path d="M-0.434141 350V342.7H1.04586L1.75586 345.02C1.82919 345.253 1.88919 345.467 1.93586 345.66C1.98253 345.853 2.01253 345.993 2.02586 346.08C2.03919 345.993 2.06919 345.853 2.11586 345.66C2.16253 345.467 2.21919 345.253 2.28586 345.02L2.96586 342.7H4.44586V350H3.27586V347.73C3.27586 347.397 3.28586 347.033 3.30586 346.64C3.32586 346.247 3.34919 345.853 3.37586 345.46C3.40253 345.067 3.43253 344.693 3.46586 344.34C3.50586 343.987 3.53919 343.677 3.56586 343.41L2.58586 346.86H1.44586L0.435859 343.41C0.469193 343.663 0.502526 343.963 0.535859 344.31C0.569193 344.65 0.599193 345.017 0.625859 345.41C0.659193 345.797 0.685859 346.19 0.705859 346.59C0.725859 346.99 0.735859 347.37 0.735859 347.73V350H-0.434141ZM5.90195 350V348.9H7.37195V343.8H5.90195V342.7H10.102V343.8H8.63195V348.9H10.102V350H5.90195ZM11.718 350V342.7H13.248L15.278 348.6C15.258 348.387 15.2347 348.137 15.208 347.85C15.188 347.557 15.1714 347.26 15.158 346.96C15.1447 346.653 15.138 346.387 15.138 346.16V342.7H16.278V350H14.748L12.738 344.1C12.7514 344.293 12.768 344.527 12.788 344.8C12.808 345.073 12.8247 345.353 12.838 345.64C12.8514 345.927 12.858 346.19 12.858 346.43V350H11.718Z" fill="#6D6D6D"/>
<path d="M26.002 350.1C25.5286 350.1 25.1186 350.01 24.772 349.83C24.4253 349.65 24.1553 349.397 23.962 349.07C23.7753 348.743 23.682 348.36 23.682 347.92V344.78C23.682 344.34 23.7753 343.957 23.962 343.63C24.1553 343.303 24.4253 343.05 24.772 342.87C25.1186 342.69 25.5286 342.6 26.002 342.6C26.482 342.6 26.892 342.69 27.232 342.87C27.5786 343.05 27.8453 343.303 28.032 343.63C28.2253 343.957 28.322 344.34 28.322 344.78V347.92C28.322 348.36 28.2253 348.743 28.032 349.07C27.8453 349.397 27.5786 349.65 27.232 349.83C26.8853 350.01 26.4753 350.1 26.002 350.1ZM26.002 349.02C26.3486 349.02 26.6253 348.92 26.832 348.72C27.0386 348.52 27.142 348.253 27.142 347.92V344.78C27.142 344.447 27.0386 344.18 26.832 343.98C26.6253 343.78 26.3486 343.68 26.002 343.68C25.6553 343.68 25.3786 343.78 25.172 343.98C24.9653 344.18 24.862 344.447 24.862 344.78V347.92C24.862 348.253 24.9653 348.52 25.172 348.72C25.3786 348.92 25.6553 349.02 26.002 349.02ZM26.002 347C25.8086 347 25.6486 346.937 25.522 346.81C25.402 346.683 25.342 346.52 25.342 346.32C25.342 346.12 25.402 345.96 25.522 345.84C25.642 345.72 25.802 345.66 26.002 345.66C26.202 345.66 26.362 345.72 26.482 345.84C26.602 345.96 26.662 346.12 26.662 346.32C26.662 346.52 26.602 346.683 26.482 346.81C26.362 346.937 26.202 347 26.002 347Z" fill="#DDDDDD"/>
<path d="M-35.8403 208.094H-8.38873V224.197H10.6749V236.721H48.8021V141H65.5781V152.63H80.0664V230.459H110.568V204.516H140.307V196.465H150.983V182.151H186.823V287.626H276.04V243.878H316.455V230.459H390.422V208.094H420.161V187.519H436.937V216.146H468.202V249.246H478.877H523.934V287.626H276.04V287.976H186.823V287.626H-35.8403V208.094Z" fill="url(#paint2_linear_130_799)"/>
<path d="M-35.8403 208.094H-8.38873V224.197H10.6749V236.721H48.8021V141H65.5781V152.63H80.0664V230.459H110.568V204.516H140.307V196.465H150.983V182.151H186.823V287.476M276.04 287.476V243.878H316.455V230.459H390.422V208.094H420.161V187.519H436.937V216.146H468.202V249.246H524.5" stroke="#2BFB97" stroke-width="1.52735"/>
<g filter="url(#filter1_d_130_799)">
<path d="M74.1292 131.836C74.1292 128.462 76.8644 125.727 80.2386 125.727H173.201C176.575 125.727 179.311 128.462 179.311 131.836V156.571C179.311 159.945 176.575 162.681 173.201 162.681H80.2386C76.8644 162.681 74.1292 159.945 74.1292 156.571V131.836Z" fill="white" fill-opacity="0.1" shape-rendering="crispEdges"/>
<path d="M74.6292 131.836C74.6292 128.738 77.1406 126.227 80.2386 126.227H173.201C176.299 126.227 178.811 128.738 178.811 131.836V156.571C178.811 159.669 176.299 162.181 173.201 162.181H80.2386C77.1406 162.181 74.6292 159.669 74.6292 156.571V131.836Z" stroke="#E5E5E5" stroke-opacity="0.4" shape-rendering="crispEdges"/>
<rect x="93.4481" y="139.986" width="8.43431" height="8.43431" rx="4.21715" fill="#2EFF9B" fill-opacity="0.5" stroke="#2EFF9B" stroke-width="0.729669"/>
<path d="M112.607 149.346C111.65 149.346 110.882 149.109 110.304 148.635C109.726 148.152 109.409 147.498 109.352 146.673H111.129C111.167 147.033 111.309 147.313 111.555 147.512C111.811 147.702 112.162 147.796 112.607 147.796C113.1 147.796 113.474 147.668 113.73 147.412C113.986 147.147 114.114 146.782 114.114 146.318V145.309C114.114 144.835 113.986 144.475 113.73 144.228C113.474 143.972 113.1 143.844 112.607 143.844C112.304 143.844 112.043 143.906 111.825 144.029C111.607 144.152 111.441 144.323 111.328 144.541H109.593L109.665 138.826H115.507V140.433H111.342L111.314 143.446H111.726L111.299 143.802C111.299 143.366 111.47 143.025 111.811 142.778C112.162 142.522 112.631 142.394 113.218 142.394C114.062 142.385 114.716 142.641 115.18 143.162C115.654 143.674 115.891 144.389 115.891 145.309V146.318C115.891 147.256 115.597 147.995 115.01 148.535C114.431 149.076 113.631 149.346 112.607 149.346ZM121.145 149.346C120.472 149.346 119.889 149.218 119.397 148.962C118.904 148.706 118.52 148.346 118.245 147.882C117.98 147.417 117.847 146.872 117.847 146.247V141.783C117.847 141.158 117.98 140.613 118.245 140.148C118.52 139.684 118.904 139.324 119.397 139.068C119.889 138.812 120.472 138.684 121.145 138.684C121.827 138.684 122.41 138.812 122.894 139.068C123.386 139.324 123.766 139.684 124.031 140.148C124.306 140.613 124.443 141.158 124.443 141.783V146.247C124.443 146.872 124.306 147.417 124.031 147.882C123.766 148.346 123.386 148.706 122.894 148.962C122.401 149.218 121.818 149.346 121.145 149.346ZM121.145 147.81C121.638 147.81 122.031 147.668 122.325 147.384C122.619 147.1 122.766 146.721 122.766 146.247V141.783C122.766 141.309 122.619 140.93 122.325 140.646C122.031 140.362 121.638 140.219 121.145 140.219C120.652 140.219 120.259 140.362 119.965 140.646C119.671 140.93 119.525 141.309 119.525 141.783V146.247C119.525 146.721 119.671 147.1 119.965 147.384C120.259 147.668 120.652 147.81 121.145 147.81ZM121.145 144.939C120.87 144.939 120.643 144.849 120.463 144.669C120.292 144.489 120.207 144.257 120.207 143.972C120.207 143.688 120.292 143.461 120.463 143.29C120.633 143.119 120.861 143.034 121.145 143.034C121.429 143.034 121.657 143.119 121.827 143.29C121.998 143.461 122.083 143.688 122.083 143.972C122.083 144.257 121.998 144.489 121.827 144.669C121.657 144.849 121.429 144.939 121.145 144.939ZM138.249 149.346C137.586 149.346 137.003 149.223 136.501 148.976C136.008 148.72 135.624 148.365 135.35 147.91C135.084 147.446 134.951 146.901 134.951 146.275V141.755C134.951 141.12 135.084 140.575 135.35 140.12C135.624 139.665 136.008 139.314 136.501 139.068C137.003 138.812 137.586 138.684 138.249 138.684C138.922 138.684 139.5 138.812 139.984 139.068C140.477 139.314 140.86 139.665 141.135 140.12C141.41 140.575 141.548 141.12 141.548 141.755H139.756C139.756 141.262 139.624 140.888 139.358 140.632C139.102 140.376 138.733 140.248 138.249 140.248C137.766 140.248 137.392 140.376 137.126 140.632C136.861 140.888 136.728 141.257 136.728 141.74V146.275C136.728 146.759 136.861 147.133 137.126 147.398C137.392 147.664 137.766 147.796 138.249 147.796C138.733 147.796 139.102 147.664 139.358 147.398C139.624 147.133 139.756 146.759 139.756 146.275V145.223H137.994V143.688H141.548V146.275C141.548 146.901 141.41 147.446 141.135 147.91C140.86 148.365 140.477 148.72 139.984 148.976C139.5 149.223 138.922 149.346 138.249 149.346ZM143.546 149.204V138.826H147.001C147.693 138.826 148.294 138.959 148.806 139.224C149.327 139.49 149.73 139.864 150.014 140.347C150.299 140.821 150.441 141.38 150.441 142.025C150.441 142.66 150.294 143.219 150 143.702C149.716 144.186 149.318 144.56 148.806 144.825C148.294 145.091 147.693 145.223 147.001 145.223H145.323V149.204H143.546ZM145.323 143.617H147.001C147.494 143.617 147.887 143.475 148.181 143.19C148.484 142.897 148.635 142.508 148.635 142.025C148.635 141.532 148.484 141.143 148.181 140.859C147.887 140.575 147.494 140.433 147.001 140.433H145.323V143.617ZM155.24 149.346C154.226 149.346 153.43 149.071 152.852 148.521C152.283 147.962 151.999 147.204 151.999 146.247V138.826H153.79V146.233C153.79 146.725 153.913 147.109 154.16 147.384C154.406 147.659 154.766 147.796 155.24 147.796C155.705 147.796 156.06 147.659 156.306 147.384C156.562 147.109 156.69 146.725 156.69 146.233V138.826H158.481V146.247C158.481 147.204 158.197 147.962 157.628 148.521C157.06 149.071 156.264 149.346 155.24 149.346Z" fill="#DDDDDD"/>
</g>
<g filter="url(#filter2_d_130_799)">
<path d="M280.322 180.711C280.322 177.337 283.057 174.602 286.431 174.602H379.394C382.768 174.602 385.503 177.337 385.503 180.711V205.446C385.503 208.821 382.768 211.556 379.394 211.556H286.431C283.057 211.556 280.322 208.821 280.322 205.446V180.711Z" fill="white" fill-opacity="0.1" shape-rendering="crispEdges"/>
<path d="M280.822 180.711C280.822 177.613 283.333 175.102 286.431 175.102H379.394C382.492 175.102 385.003 177.613 385.003 180.711V205.446C385.003 208.544 382.492 211.056 379.394 211.056H286.431C283.333 211.056 280.822 208.544 280.822 205.446V180.711Z" stroke="#E5E5E5" stroke-opacity="0.4" shape-rendering="crispEdges"/>
<rect x="299.64" y="188.862" width="8.43431" height="8.43431" rx="4.21715" fill="#2EFF9B" fill-opacity="0.5" stroke="#2EFF9B" stroke-width="0.729669"/>
<path d="M315.672 198.079V196.359L318.913 193.103C319.368 192.639 319.705 192.222 319.923 191.852C320.141 191.473 320.249 191.085 320.249 190.687C320.249 190.203 320.117 189.829 319.851 189.564C319.586 189.289 319.226 189.152 318.771 189.152C318.269 189.152 317.876 189.298 317.591 189.592C317.307 189.876 317.165 190.275 317.165 190.786H315.388C315.397 190.123 315.539 189.554 315.814 189.08C316.099 188.597 316.497 188.223 317.008 187.957C317.52 187.692 318.117 187.559 318.8 187.559C319.453 187.559 320.022 187.683 320.505 187.929C320.989 188.175 321.363 188.521 321.628 188.967C321.894 189.412 322.026 189.943 322.026 190.559C322.026 191.194 321.861 191.815 321.529 192.421C321.207 193.018 320.685 193.663 319.965 194.354L317.804 196.473H322.154V198.079H315.672ZM324.196 198.079V196.359L327.437 193.103C327.892 192.639 328.228 192.222 328.446 191.852C328.664 191.473 328.773 191.085 328.773 190.687C328.773 190.203 328.641 189.829 328.375 189.564C328.11 189.289 327.75 189.152 327.295 189.152C326.793 189.152 326.399 189.298 326.115 189.592C325.831 189.876 325.688 190.275 325.688 190.786H323.912C323.921 190.123 324.063 189.554 324.338 189.08C324.622 188.597 325.02 188.223 325.532 187.957C326.044 187.692 326.641 187.559 327.323 187.559C327.977 187.559 328.546 187.683 329.029 187.929C329.512 188.175 329.887 188.521 330.152 188.967C330.418 189.412 330.55 189.943 330.55 190.559C330.55 191.194 330.384 191.815 330.053 192.421C329.73 193.018 329.209 193.663 328.489 194.354L326.328 196.473H330.678V198.079H324.196ZM344.442 198.221C343.778 198.221 343.196 198.098 342.693 197.851C342.201 197.596 341.817 197.24 341.542 196.785C341.277 196.321 341.144 195.776 341.144 195.15V190.63C341.144 189.995 341.277 189.45 341.542 188.995C341.817 188.54 342.201 188.19 342.693 187.943C343.196 187.687 343.778 187.559 344.442 187.559C345.115 187.559 345.693 187.687 346.176 187.943C346.669 188.19 347.053 188.54 347.328 188.995C347.602 189.45 347.74 189.995 347.74 190.63H345.949C345.949 190.137 345.816 189.763 345.551 189.507C345.295 189.251 344.925 189.123 344.442 189.123C343.959 189.123 343.584 189.251 343.319 189.507C343.053 189.763 342.921 190.132 342.921 190.616V195.15C342.921 195.634 343.053 196.008 343.319 196.273C343.584 196.539 343.959 196.672 344.442 196.672C344.925 196.672 345.295 196.539 345.551 196.273C345.816 196.008 345.949 195.634 345.949 195.15V194.099H344.186V192.563H347.74V195.15C347.74 195.776 347.602 196.321 347.328 196.785C347.053 197.24 346.669 197.596 346.176 197.851C345.693 198.098 345.115 198.221 344.442 198.221ZM349.739 198.079V187.702H353.193C353.885 187.702 354.487 187.834 354.998 188.1C355.52 188.365 355.922 188.739 356.207 189.223C356.491 189.696 356.633 190.256 356.633 190.9C356.633 191.535 356.486 192.094 356.193 192.577C355.908 193.061 355.51 193.435 354.998 193.7C354.487 193.966 353.885 194.099 353.193 194.099H351.516V198.079H349.739ZM351.516 192.492H353.193C353.686 192.492 354.079 192.35 354.373 192.066C354.676 191.772 354.828 191.383 354.828 190.9C354.828 190.407 354.676 190.019 354.373 189.734C354.079 189.45 353.686 189.308 353.193 189.308H351.516V192.492ZM361.433 198.221C360.419 198.221 359.622 197.946 359.044 197.397C358.476 196.837 358.191 196.079 358.191 195.122V187.702H359.983V195.108C359.983 195.601 360.106 195.984 360.352 196.259C360.599 196.534 360.959 196.672 361.433 196.672C361.897 196.672 362.252 196.534 362.499 196.259C362.755 195.984 362.883 195.601 362.883 195.108V187.702H364.674V195.122C364.674 196.079 364.389 196.837 363.821 197.397C363.252 197.946 362.456 198.221 361.433 198.221Z" fill="#DDDDDD"/>
</g>
<path d="M357.359 352L361.43 340.359H364.078L368.227 352H365.938L363.875 345.945C363.672 345.315 363.461 344.612 363.242 343.836C363.023 343.055 362.779 342.159 362.508 341.148H362.961C362.701 342.164 362.464 343.065 362.25 343.852C362.036 344.638 361.833 345.336 361.641 345.945L359.633 352H357.359ZM359.734 349.125V347.445H365.844V349.125H359.734ZM372.133 352.117C371.539 352.117 371.016 351.99 370.562 351.734C370.115 351.479 369.766 351.107 369.516 350.617C369.271 350.122 369.148 349.526 369.148 348.828V343.32H371.172V348.516C371.172 349.104 371.323 349.565 371.625 349.898C371.932 350.227 372.352 350.391 372.883 350.391C373.242 350.391 373.56 350.312 373.836 350.156C374.117 350 374.336 349.773 374.492 349.477C374.654 349.174 374.734 348.81 374.734 348.383V343.32H376.766V352H374.836L374.812 349.844H374.992C374.747 350.604 374.385 351.174 373.906 351.555C373.427 351.93 372.836 352.117 372.133 352.117ZM382.453 343.32V344.906H377.484V343.32H382.453ZM378.742 341.219H380.766V349.555C380.766 349.867 380.833 350.096 380.969 350.242C381.104 350.383 381.328 350.453 381.641 350.453C381.734 350.453 381.857 350.443 382.008 350.422C382.164 350.401 382.289 350.383 382.383 350.367L382.672 351.938C382.458 352 382.234 352.042 382 352.062C381.771 352.089 381.547 352.102 381.328 352.102C380.495 352.102 379.854 351.898 379.406 351.492C378.964 351.086 378.742 350.5 378.742 349.734V341.219ZM387.148 352.18C386.305 352.18 385.57 351.992 384.945 351.617C384.32 351.242 383.836 350.719 383.492 350.047C383.154 349.375 382.984 348.594 382.984 347.703C382.984 346.802 383.154 346.016 383.492 345.344C383.836 344.667 384.32 344.141 384.945 343.766C385.57 343.391 386.305 343.203 387.148 343.203C387.992 343.203 388.727 343.391 389.352 343.766C389.977 344.141 390.458 344.667 390.797 345.344C391.141 346.016 391.312 346.802 391.312 347.703C391.312 348.594 391.141 349.375 390.797 350.047C390.458 350.719 389.977 351.242 389.352 351.617C388.727 351.992 387.992 352.18 387.148 352.18ZM387.148 350.531C387.617 350.531 388.008 350.406 388.32 350.156C388.633 349.901 388.867 349.56 389.023 349.133C389.18 348.706 389.258 348.227 389.258 347.695C389.258 347.159 389.18 346.677 389.023 346.25C388.867 345.818 388.633 345.477 388.32 345.227C388.008 344.977 387.617 344.852 387.148 344.852C386.68 344.852 386.289 344.977 385.977 345.227C385.669 345.477 385.438 345.815 385.281 346.242C385.125 346.669 385.047 347.154 385.047 347.695C385.047 348.227 385.125 348.706 385.281 349.133C385.438 349.56 385.669 349.901 385.977 350.156C386.289 350.406 386.68 350.531 387.148 350.531ZM395.836 352.18C395.164 352.18 394.568 352.083 394.047 351.891C393.531 351.693 393.109 351.409 392.781 351.039C392.453 350.664 392.242 350.208 392.148 349.672L394.055 349.359C394.164 349.786 394.37 350.107 394.672 350.32C394.974 350.529 395.372 350.633 395.867 350.633C396.367 350.633 396.76 350.534 397.047 350.336C397.339 350.133 397.484 349.885 397.484 349.594C397.484 349.344 397.388 349.138 397.195 348.977C397.003 348.81 396.708 348.685 396.312 348.602L394.836 348.281C394.013 348.104 393.398 347.815 392.992 347.414C392.586 347.008 392.383 346.484 392.383 345.844C392.383 345.307 392.529 344.841 392.82 344.445C393.117 344.049 393.529 343.745 394.055 343.531C394.581 343.312 395.19 343.203 395.883 343.203C396.544 343.203 397.115 343.299 397.594 343.492C398.073 343.68 398.458 343.948 398.75 344.297C399.047 344.641 399.247 345.044 399.352 345.508L397.539 345.828C397.451 345.516 397.273 345.253 397.008 345.039C396.747 344.826 396.383 344.719 395.914 344.719C395.482 344.719 395.122 344.812 394.836 345C394.555 345.188 394.414 345.43 394.414 345.727C394.414 345.982 394.508 346.193 394.695 346.359C394.888 346.521 395.201 346.648 395.633 346.742L397.117 347.055C397.945 347.232 398.56 347.516 398.961 347.906C399.362 348.292 399.562 348.792 399.562 349.406C399.562 349.953 399.404 350.435 399.086 350.852C398.768 351.268 398.328 351.594 397.766 351.828C397.208 352.062 396.565 352.18 395.836 352.18ZM404.531 352.18C403.688 352.18 402.953 351.992 402.328 351.617C401.708 351.242 401.227 350.719 400.883 350.047C400.544 349.37 400.375 348.589 400.375 347.703C400.375 346.802 400.544 346.016 400.883 345.344C401.227 344.667 401.708 344.141 402.328 343.766C402.953 343.391 403.688 343.203 404.531 343.203C405.021 343.203 405.474 343.268 405.891 343.398C406.312 343.523 406.688 343.708 407.016 343.953C407.344 344.193 407.617 344.484 407.836 344.828C408.055 345.172 408.208 345.557 408.297 345.984L406.391 346.344C406.339 346.115 406.258 345.909 406.148 345.727C406.044 345.544 405.914 345.388 405.758 345.258C405.602 345.128 405.422 345.029 405.219 344.961C405.016 344.888 404.792 344.852 404.547 344.852C404.078 344.852 403.688 344.977 403.375 345.227C403.062 345.471 402.828 345.807 402.672 346.234C402.516 346.661 402.438 347.148 402.438 347.695C402.438 348.232 402.516 348.714 402.672 349.141C402.828 349.568 403.062 349.906 403.375 350.156C403.688 350.406 404.078 350.531 404.547 350.531C404.797 350.531 405.023 350.495 405.227 350.422C405.435 350.349 405.617 350.245 405.773 350.109C405.935 349.974 406.068 349.81 406.172 349.617C406.281 349.424 406.362 349.214 406.414 348.984L408.312 349.336C408.229 349.773 408.078 350.167 407.859 350.516C407.641 350.865 407.365 351.164 407.031 351.414C406.703 351.659 406.328 351.849 405.906 351.984C405.484 352.115 405.026 352.18 404.531 352.18ZM412.133 352.172C411.576 352.172 411.076 352.073 410.633 351.875C410.195 351.677 409.849 351.385 409.594 351C409.339 350.609 409.211 350.128 409.211 349.555C409.211 349.065 409.302 348.661 409.484 348.344C409.667 348.021 409.914 347.766 410.227 347.578C410.544 347.385 410.901 347.24 411.297 347.141C411.693 347.042 412.104 346.969 412.531 346.922C413.042 346.865 413.453 346.815 413.766 346.773C414.078 346.732 414.307 346.667 414.453 346.578C414.604 346.484 414.68 346.339 414.68 346.141V346.102C414.68 345.815 414.62 345.576 414.5 345.383C414.385 345.185 414.214 345.034 413.984 344.93C413.76 344.82 413.484 344.766 413.156 344.766C412.818 344.766 412.523 344.818 412.273 344.922C412.029 345.026 411.828 345.161 411.672 345.328C411.521 345.495 411.411 345.677 411.344 345.875L409.461 345.531C409.617 345.016 409.87 344.586 410.219 344.242C410.573 343.898 411 343.641 411.5 343.469C412.005 343.292 412.555 343.203 413.148 343.203C413.576 343.203 413.997 343.255 414.414 343.359C414.836 343.458 415.219 343.622 415.562 343.852C415.906 344.081 416.18 344.385 416.383 344.766C416.591 345.146 416.695 345.62 416.695 346.188V352H414.758V350.797H414.68C414.555 351.047 414.378 351.276 414.148 351.484C413.924 351.693 413.646 351.859 413.312 351.984C412.979 352.109 412.586 352.172 412.133 352.172ZM412.648 350.672C413.07 350.672 413.432 350.591 413.734 350.43C414.036 350.263 414.271 350.044 414.438 349.773C414.604 349.497 414.688 349.198 414.688 348.875V347.859C414.62 347.911 414.51 347.961 414.359 348.008C414.208 348.049 414.036 348.089 413.844 348.125C413.651 348.161 413.458 348.193 413.266 348.219C413.078 348.245 412.914 348.268 412.773 348.289C412.471 348.326 412.198 348.393 411.953 348.492C411.714 348.586 411.523 348.716 411.383 348.883C411.242 349.049 411.172 349.266 411.172 349.531C411.172 349.781 411.234 349.992 411.359 350.164C411.49 350.331 411.664 350.458 411.883 350.547C412.107 350.63 412.362 350.672 412.648 350.672ZM420.328 340.359V352H418.305V340.359H420.328ZM421.945 352V343.32H423.969V352H421.945ZM422.953 342.086C422.63 342.086 422.352 341.977 422.117 341.758C421.888 341.539 421.773 341.276 421.773 340.969C421.773 340.656 421.888 340.393 422.117 340.18C422.352 339.966 422.63 339.859 422.953 339.859C423.281 339.859 423.56 339.966 423.789 340.18C424.023 340.393 424.141 340.656 424.141 340.969C424.141 341.276 424.023 341.539 423.789 341.758C423.56 341.977 423.281 342.086 422.953 342.086ZM427.609 346.938V352H425.586V343.32H427.516L427.539 345.469H427.352C427.596 344.719 427.956 344.154 428.43 343.773C428.909 343.393 429.505 343.203 430.219 343.203C430.812 343.203 431.333 343.331 431.781 343.586C432.229 343.841 432.576 344.214 432.82 344.703C433.07 345.193 433.195 345.789 433.195 346.492V352H431.172V346.805C431.172 346.216 431.021 345.758 430.719 345.43C430.417 345.096 430 344.93 429.469 344.93C429.109 344.93 428.789 345.008 428.508 345.164C428.232 345.32 428.013 345.547 427.852 345.844C427.69 346.141 427.609 346.505 427.609 346.938ZM438.57 355.445C437.867 355.445 437.255 355.354 436.734 355.172C436.219 354.99 435.797 354.74 435.469 354.422C435.141 354.109 434.906 353.755 434.766 353.359L436.516 352.805C436.599 352.977 436.721 353.146 436.883 353.312C437.049 353.484 437.268 353.625 437.539 353.734C437.815 353.849 438.156 353.906 438.562 353.906C439.193 353.906 439.695 353.755 440.07 353.453C440.445 353.156 440.633 352.695 440.633 352.07V350.461H440.477C440.367 350.685 440.214 350.906 440.016 351.125C439.818 351.344 439.557 351.526 439.234 351.672C438.911 351.818 438.505 351.891 438.016 351.891C437.344 351.891 436.734 351.732 436.188 351.414C435.646 351.091 435.216 350.615 434.898 349.984C434.581 349.349 434.422 348.565 434.422 347.633C434.422 346.69 434.581 345.891 434.898 345.234C435.221 344.573 435.654 344.07 436.195 343.727C436.742 343.378 437.354 343.203 438.031 343.203C438.526 343.203 438.938 343.286 439.266 343.453C439.599 343.615 439.867 343.815 440.07 344.055C440.279 344.294 440.438 344.523 440.547 344.742H440.648V343.32H442.633V352C442.633 352.781 442.456 353.427 442.102 353.938C441.753 354.448 441.271 354.826 440.656 355.07C440.047 355.32 439.352 355.445 438.57 355.445ZM438.57 350.281C439.013 350.281 439.388 350.177 439.695 349.969C440.008 349.755 440.245 349.448 440.406 349.047C440.568 348.646 440.648 348.169 440.648 347.617C440.648 347.065 440.568 346.583 440.406 346.172C440.245 345.76 440.01 345.44 439.703 345.211C439.396 344.982 439.018 344.867 438.57 344.867C438.122 344.867 437.742 344.987 437.43 345.227C437.122 345.461 436.888 345.784 436.727 346.195C436.57 346.607 436.492 347.081 436.492 347.617C436.492 348.154 436.57 348.622 436.727 349.023C436.888 349.424 437.122 349.734 437.43 349.953C437.742 350.172 438.122 350.281 438.57 350.281Z" fill="#D6D6D6"/>
<g filter="url(#filter3_i_130_799)">
<path d="M452 346C452 340.477 456.477 336 462 336H478C483.523 336 488 340.477 488 346C488 351.523 483.523 356 478 356H462C456.477 356 452 351.523 452 346Z" fill="url(#paint3_radial_130_799)" fill-opacity="0.3"/>
<path d="M452 346C452 340.477 456.477 336 462 336H478C483.523 336 488 340.477 488 346C488 351.523 483.523 356 478 356H462C456.477 356 452 351.523 452 346Z" fill="url(#paint4_linear_130_799)" fill-opacity="0.2"/>
<path d="M452.5 346C452.5 340.753 456.753 336.5 462 336.5H478C483.247 336.5 487.5 340.753 487.5 346C487.5 351.247 483.247 355.5 478 355.5H462C456.753 355.5 452.5 351.247 452.5 346Z" stroke="white" stroke-opacity="0.7"/>
</g>
<g filter="url(#filter4_ddd_130_799)">
<path d="M470 346C470 341.582 473.582 338 478 338C482.418 338 486 341.582 486 346C486 350.418 482.418 354 478 354C473.582 354 470 350.418 470 346Z" fill="url(#paint5_linear_130_799)"/>
</g>
</g>
<defs>
<filter id="filter1_d_130_799" x="35.789" y="87.3864" width="181.862" height="113.634" filterUnits="userSpaceOnUse" color-interpolation-filters="sRGB">
<feFlood flood-opacity="0" result="BackgroundImageFix"/>
<feColorMatrix in="SourceAlpha" type="matrix" values="0 0 0 0 0 0 0 0 0 0 0 0 0 0 0 0 0 0 127 0" result="hardAlpha"/>
<feOffset dy="6.10941"/>
<feGaussianBlur stdDeviation="3.0547"/>
<feComposite in2="hardAlpha" operator="out"/>
<feColorMatrix type="matrix" values="0 0 0 0 0 0 0 0 0 0 0 0 0 0 0 0 0 0 0.05 0"/>
<feBlend mode="normal" in2="BackgroundImageFix" result="effect1_dropShadow_130_799"/>
<feBlend mode="normal" in="SourceGraphic" in2="effect1_dropShadow_130_799" result="shape"/>
</filter>
<filter id="filter2_d_130_799" x="241.981" y="136.262" width="181.862" height="113.634" filterUnits="userSpaceOnUse" color-interpolation-filters="sRGB">
<feFlood flood-opacity="0" result="BackgroundImageFix"/>
<feColorMatrix in="SourceAlpha" type="matrix" values="0 0 0 0 0 0 0 0 0 0 0 0 0 0 0 0 0 0 127 0" result="hardAlpha"/>
<feOffset dy="6.10941"/>
<feGaussianBlur stdDeviation="3.0547"/>
<feComposite in2="hardAlpha" operator="out"/>
<feColorMatrix type="matrix" values="0 0 0 0 0 0 0 0 0 0 0 0 0 0 0 0 0 0 0.05 0"/>
<feBlend mode="normal" in2="BackgroundImageFix" result="effect1_dropShadow_130_799"/>
<feBlend mode="normal" in="SourceGraphic" in2="effect1_dropShadow_130_799" result="shape"/>
</filter>
<filter id="filter3_i_130_799" x="452" y="336" width="36" height="21" filterUnits="userSpaceOnUse" color-interpolation-filters="sRGB">
<feFlood flood-opacity="0" result="BackgroundImageFix"/>
<feBlend mode="normal" in="SourceGraphic" in2="BackgroundImageFix" result="shape"/>
<feColorMatrix in="SourceAlpha" type="matrix" values="0 0 0 0 0 0 0 0 0 0 0 0 0 0 0 0 0 0 127 0" result="hardAlpha"/>
<feOffset dy="1"/>
<feGaussianBlur stdDeviation="2"/>
<feComposite in2="hardAlpha" operator="arithmetic" k2="-1" k3="1"/>
<feColorMatrix type="matrix" values="0 0 0 0 0 0 0 0 0 0 0 0 0 0 0 0 0 0 0.3 0"/>
<feBlend mode="normal" in2="shape" result="effect1_innerShadow_130_799"/>
</filter>
<filter id="filter4_ddd_130_799" x="462" y="330" width="32" height="32" filterUnits="userSpaceOnUse" color-interpolation-filters="sRGB">
<feFlood flood-opacity="0" result="BackgroundImageFix"/>
<feColorMatrix in="SourceAlpha" type="matrix" values="0 0 0 0 0 0 0 0 0 0 0 0 0 0 0 0 0 0 127 0" result="hardAlpha"/>
<feOffset dx="1" dy="1"/>
<feGaussianBlur stdDeviation="0.5"/>
<feComposite in2="hardAlpha" operator="out"/>
<feColorMatrix type="matrix" values="0 0 0 0 0 0 0 0 0 0 0 0 0 0 0 0 0 0 0.5 0"/>
<feBlend mode="normal" in2="BackgroundImageFix" result="effect1_dropShadow_130_799"/>
<feColorMatrix in="SourceAlpha" type="matrix" values="0 0 0 0 0 0 0 0 0 0 0 0 0 0 0 0 0 0 127 0" result="hardAlpha"/>
<feOffset dx="2" dy="2"/>
<feGaussianBlur stdDeviation="1"/>
<feComposite in2="hardAlpha" operator="out"/>
<feColorMatrix type="matrix" values="0 0 0 0 0.203922 0 0 0 0 0.827451 0 0 0 0 0.6 0 0 0 0.5 0"/>
<feBlend mode="normal" in2="effect1_dropShadow_130_799" result="effect2_dropShadow_130_799"/>
<feColorMatrix in="SourceAlpha" type="matrix" values="0 0 0 0 0 0 0 0 0 0 0 0 0 0 0 0 0 0 127 0" result="hardAlpha"/>
<feOffset/>
<feGaussianBlur stdDeviation="4"/>
<feComposite in2="hardAlpha" operator="out"/>
<feColorMatrix type="matrix" values="0 0 0 0 0.11665 0 0 0 0 1 0 0 0 0 0.499435 0 0 0 0.4 0"/>
<feBlend mode="normal" in2="effect2_dropShadow_130_799" result="effect3_dropShadow_130_799"/>
<feBlend mode="normal" in="SourceGraphic" in2="effect3_dropShadow_130_799" result="shape"/>
</filter>
<linearGradient id="paint0_linear_130_799" x1="243.659" y1="40" x2="243.659" y2="473.768" gradientUnits="userSpaceOnUse">
<stop/>
<stop offset="0.495" stop-color="#515151"/>
<stop offset="1"/>
</linearGradient>
<radialGradient id="paint1_radial_130_799" cx="0" cy="0" r="1" gradientUnits="userSpaceOnUse" gradientTransform="translate(246 236) rotate(90) scale(263 267.321)">
<stop stop-color="#808080"/>
<stop offset="1" stop-color="#111111"/>
</radialGradient>
<linearGradient id="paint2_linear_130_799" x1="244.047" y1="141" x2="243.665" y2="296.026" gradientUnits="userSpaceOnUse">
<stop stop-color="#2EFF9B" stop-opacity="0.24"/>
<stop offset="1" stop-color="#2EFF9B" stop-opacity="0"/>
</linearGradient>
<radialGradient id="paint3_radial_130_799" cx="0" cy="0" r="1" gradientUnits="userSpaceOnUse" gradientTransform="translate(479.5 346) rotate(180) scale(24.5 44.1)">
<stop stop-color="#00FF59"/>
<stop offset="1" stop-color="#A8FFD1"/>
</radialGradient>
<linearGradient id="paint4_linear_130_799" x1="470" y1="336" x2="470" y2="356" gradientUnits="userSpaceOnUse">
<stop stop-color="#333333"/>
<stop offset="1" stop-color="#929292"/>
</linearGradient>
<linearGradient id="paint5_linear_130_799" x1="487.5" y1="354" x2="468" y2="339.5" gradientUnits="userSpaceOnUse">
<stop stop-color="#14C84D"/>
<stop offset="1" stop-color="#6EE089"/>
</linearGradient>
<clipPath id="clip0_130_799">
<rect width="488" height="474" fill="white"/>
</clipPath>
</defs>
</svg>
