<svg viewBox="0 0 109 20" fill="currentColor" xmlns="http://www.w3.org/2000/svg">
  <path d="M108.865 14.7185C107.994 14.6765 107.117 14.693 106.255 14.5807C104.693 14.3785 103.764 13.0094 103.751 11.5145C103.742 10.5723 103.733 9.62863 103.752 8.68645C103.763 8.2236 103.62 7.97495 103.115 8.01539C102.691 8.04985 102.54 7.81917 102.548 7.42522C102.558 6.90395 102.557 6.38269 102.548 5.86292C102.542 5.45699 102.674 5.1649 103.136 5.18587C103.659 5.20834 103.77 4.92373 103.749 4.48485C103.733 4.13884 103.752 3.78983 103.749 3.44381C103.748 3.10529 103.912 2.94202 104.252 2.94202C105.052 2.94351 105.852 2.94202 106.651 2.94501C107.021 2.94651 107.195 3.15022 107.201 3.50672C107.207 3.82877 107.201 4.15232 107.21 4.47437C107.228 5.11097 107.272 5.1589 107.889 5.17688C108.214 5.18736 108.539 5.17688 108.863 5.17688V8.0109C108.49 8.01539 108.117 8.03037 107.744 8.02288C107.365 8.01539 107.206 8.19364 107.209 8.56213C107.216 9.42492 107.212 10.2892 107.215 11.152C107.215 11.5489 107.427 11.7362 107.82 11.7362C108.167 11.7362 108.516 11.7377 108.863 11.7392V14.7215L108.865 14.7185Z" />
  <path d="M69.7078 6.16839C71.5715 4.72891 73.6742 4.71693 75.583 6.79601C75.7184 6.61626 75.8312 6.42154 75.9876 6.27025C77.7324 4.57463 80.7166 4.85773 81.9274 6.83496C82.3666 7.55245 82.5351 8.36581 82.5562 9.18516C82.5968 10.7984 82.5757 12.4131 82.5667 14.0264C82.5637 14.6555 82.5035 14.7079 81.8793 14.7199C81.2295 14.7319 80.5782 14.7274 79.9284 14.7214C79.1523 14.7139 79.1162 14.6824 79.1117 13.929C79.1057 12.7127 79.1102 11.4964 79.1102 10.2786C79.1102 10.0794 79.1132 9.88168 79.1087 9.68246C79.0681 8.0842 77.9986 7.96437 76.8856 8.26395C76.2794 8.42722 76.129 9.01889 76.1215 9.59109C76.1064 10.8074 76.1215 12.0237 76.1139 13.2415C76.1034 14.8966 76.3005 14.7094 74.6384 14.7214C74.2639 14.7244 73.8878 14.7244 73.5133 14.7214C72.686 14.7139 72.6605 14.6929 72.6559 13.8945C72.6499 12.6288 72.6559 11.3616 72.6544 10.0959C72.6544 9.89666 72.659 9.69894 72.6514 9.49972C72.6229 8.71182 72.2799 8.28043 71.6076 8.17558C70.69 8.03328 70.0042 8.33885 69.7575 9.04735C69.6702 9.2975 69.6642 9.5836 69.6612 9.85322C69.6522 11.1938 69.6612 12.5345 69.6552 13.8751C69.6522 14.6914 69.6266 14.7154 68.8174 14.7214C68.1676 14.7259 67.5163 14.7349 66.8665 14.7154C66.3235 14.6989 66.2047 14.5911 66.2032 14.0413C66.1927 11.3107 66.1927 8.57851 66.2032 5.84784C66.2047 5.3056 66.3265 5.19925 66.8756 5.18278C67.5253 5.1648 68.1766 5.17229 68.8264 5.17828C69.598 5.18427 69.5965 5.18877 69.6597 5.95719C69.6657 6.02609 69.6913 6.095 69.7093 6.16989L69.7078 6.16839Z" />
  <path d="M26.1145 6.67632C26.7131 6.25841 27.2215 5.79706 27.8157 5.51096C29.9395 4.48939 33.0801 5.61731 33.1373 8.78836C33.1674 10.502 33.1478 12.2155 33.1433 13.9291C33.1418 14.6826 33.1042 14.7125 32.3251 14.72C31.749 14.726 31.1744 14.7275 30.5983 14.72C29.8673 14.711 29.8237 14.6736 29.8192 13.9666C29.8117 12.7248 29.8192 11.4831 29.8162 10.2413C29.8162 10.0181 29.8222 9.79195 29.7921 9.57176C29.6507 8.51125 29.1408 8.09783 28.0729 8.15924C27.2682 8.20568 26.8425 8.6161 26.829 9.44144C26.8064 10.8075 26.8214 12.1721 26.8199 13.5382C26.8199 14.3251 26.4148 14.719 25.6046 14.72C25.1037 14.72 24.6044 14.726 24.1035 14.7185C23.4251 14.7065 23.368 14.6586 23.3634 14.001C23.3544 12.7353 23.3604 11.4681 23.3604 10.2024C23.3604 9.97919 23.3725 9.753 23.3469 9.53281C23.1799 8.03042 21.9285 7.92407 20.9613 8.33599C20.471 8.5442 20.3627 9.02652 20.3642 9.52982C20.3687 10.8465 20.3642 12.1616 20.3642 13.4783C20.3642 13.6775 20.3702 13.8752 20.3612 14.0744C20.3356 14.6436 20.2815 14.7065 19.6979 14.717C18.9729 14.7305 18.2464 14.732 17.5214 14.7155C16.9844 14.7036 16.9107 14.6391 16.9092 14.1014C16.9002 11.3692 16.8987 8.63857 16.9092 5.9064C16.9107 5.28627 17.0235 5.1949 17.6748 5.17992C18.1997 5.16794 18.7262 5.17543 19.2511 5.17693C19.9059 5.17793 20.31 5.46852 20.4635 6.0487C22.9107 4.6991 24.4178 4.86986 26.119 6.67782L26.1145 6.67632Z" />
  <path d="M38.2787 6.2614C38.7134 5.96182 39.0323 5.67272 39.4053 5.49747C40.9486 4.76799 43.3672 5.02863 44.4306 7.259C45.3873 9.26768 45.3557 11.3108 44.1042 13.2161C43.1882 14.6107 41.3637 15.2053 39.8069 14.6361C39.2865 14.4459 38.8473 14.043 38.3224 13.7059C38.3028 13.8572 38.2592 14.0355 38.2592 14.2152C38.2532 15.6307 38.2607 17.0448 38.2532 18.4603C38.2487 19.1313 38.196 19.1838 37.5297 19.1927C36.8543 19.2032 36.179 19.1868 35.5036 19.1957C35.09 19.2017 34.9185 19.0145 34.926 18.6086C34.9381 17.9135 34.9275 17.2185 34.9275 16.5235C34.9275 13.0978 34.9275 9.67061 34.9275 6.24492C34.9275 6.0457 34.932 5.84798 34.9335 5.64876C34.9365 5.34618 35.09 5.18591 35.3938 5.18441C36.194 5.18141 36.9942 5.17992 37.7944 5.18441C38.0997 5.18441 38.2487 5.34918 38.2517 5.65175C38.2532 5.82251 38.2667 5.99477 38.2802 6.2614H38.2787ZM41.5472 10.0256C41.5472 9.84736 41.5532 9.72304 41.5472 9.60021C41.5066 8.81981 41.105 8.34198 40.3108 8.12478C39.6806 7.95252 39.0052 8.20567 38.6277 8.79134C38.1524 9.52681 38.1614 10.2862 38.5766 11.0472C39.0398 11.8965 40.21 12.1137 40.9576 11.4995C41.4449 11.0981 41.6104 10.5813 41.5472 10.0271V10.0256Z" />
  <path d="M8.24855 6.37831C7.9733 6.37831 7.69804 6.37232 7.42279 6.37831C6.91589 6.39329 6.46164 6.42624 6.23753 5.77316C6.10516 5.3867 5.63136 5.28035 5.19967 5.36573C4.87328 5.43014 4.6627 5.64284 4.6251 5.97388C4.57546 6.39628 4.79055 6.70485 5.15605 6.87711C5.67348 7.12276 6.21196 7.32348 6.73991 7.54817C7.33855 7.80131 7.95826 8.01551 8.52682 8.32258C11.0297 9.67219 10.6567 12.5437 8.9555 13.8498C6.99862 15.3522 3.37366 15.1066 1.74618 13.1922C1.32202 12.6934 1.11896 12.1257 1.00314 11.5116C0.939966 11.1761 1.09038 10.9858 1.44686 10.9858C2.32377 10.9843 3.19918 10.9903 4.07609 10.9799C4.41 10.9754 4.54086 11.1641 4.67774 11.4322C5.00414 12.0658 5.44184 12.2306 6.09915 12.0284C6.68877 11.8471 6.8813 11.2555 6.46164 10.8091C6.28265 10.6174 6.02244 10.4781 5.77425 10.3777C4.80258 9.98375 3.79481 9.66769 2.84721 9.22282C1.51455 8.5967 0.858743 7.49874 0.98509 6.0293C1.10241 4.66022 1.79431 3.64015 3.0999 3.1069C4.86275 2.38641 6.62259 2.41637 8.31624 3.30612C9.32702 3.83638 9.9031 4.71415 10.0956 5.84056C10.1558 6.19257 10.037 6.36932 9.67748 6.37232C9.20218 6.37681 8.72537 6.37232 8.25006 6.37232C8.25006 6.37382 8.25006 6.37681 8.25006 6.37831H8.24855Z" />
  <path d="M90.4524 13.619C90.2915 13.7493 90.1681 13.8242 90.0749 13.926C88.8836 15.2427 86.5026 15.0674 85.2466 13.8841C84.2449 12.9404 83.7696 11.787 83.759 10.4284C83.7515 9.48476 83.735 8.55307 84.1065 7.64384C85.009 5.44493 87.3058 4.65554 89.2281 5.43594C89.6537 5.6082 90.0177 5.93025 90.4133 6.18639C90.4359 6.16542 90.4945 6.13696 90.4976 6.10251C90.5567 5.48737 90.8921 5.1788 91.5038 5.17681C92.0799 5.17681 92.656 5.16482 93.2306 5.1813C93.766 5.19778 93.8352 5.26069 93.8427 5.79694C93.8578 6.91437 93.8488 8.03329 93.8488 9.15222C93.8488 10.743 93.8533 12.3323 93.8473 13.923C93.8442 14.6825 93.8097 14.7124 93.035 14.7199C92.4589 14.7259 91.8829 14.7259 91.3068 14.7199C90.5818 14.7109 90.5833 14.7064 90.5186 13.9725C90.5111 13.8811 90.4855 13.7897 90.4524 13.6205V13.619ZM87.2261 10.051C87.1373 10.728 87.4201 11.3317 88.118 11.6882C89.1258 12.2034 90.2283 11.5354 90.4795 10.2831C90.7563 8.90807 89.5304 7.74869 88.2489 8.16811C87.551 8.39728 87.2246 8.96649 87.2261 10.051Z" />
  <path d="M64.702 8.43922C63.6957 8.43922 62.8038 8.4572 61.9133 8.42275C61.7614 8.41675 61.5929 8.21154 61.4771 8.06325C61.1492 7.64234 60.713 7.50304 60.2152 7.59141C60.0527 7.61987 59.8151 7.78614 59.7955 7.91795C59.7684 8.0962 59.8647 8.40926 60.0016 8.47367C60.4002 8.66391 60.8469 8.75678 61.2726 8.89309C61.9599 9.11328 62.6819 9.26456 63.3212 9.58062C64.2011 10.015 64.7215 10.7415 64.7065 11.7855C64.6915 12.843 64.2868 13.6968 63.3453 14.1837C61.2951 15.2442 59.2916 15.0569 57.4009 13.7657C56.8023 13.3568 56.4774 12.7307 56.3089 12.0357C56.2232 11.6807 56.3375 11.444 56.7466 11.4425C57.4972 11.4395 58.2493 11.4155 58.9983 11.456C59.2089 11.468 59.4841 11.6223 59.6015 11.7975C59.9715 12.3502 60.4979 12.3922 61.059 12.3053C61.2184 12.2798 61.438 12.1106 61.4711 11.9683C61.5072 11.8185 61.4034 11.5638 61.2756 11.462C61.0891 11.3137 60.8334 11.2403 60.5957 11.1744C59.9218 10.9856 59.2345 10.8418 58.5681 10.6321C57.252 10.2172 56.6143 9.46229 56.5721 8.32988C56.5255 7.11658 57.2204 5.91377 58.3997 5.51683C60.1445 4.92815 61.8983 4.85176 63.4641 6.05757C64.2026 6.62527 64.5726 7.40567 64.7035 8.44072L64.702 8.43922Z" />
  <path d="M99.1316 6.64033C99.431 6.36921 99.613 6.21044 99.7889 6.04417C100.276 5.58132 100.881 5.35364 101.52 5.20834C101.886 5.12446 102.105 5.26077 102.105 5.65921C102.105 6.50253 102.101 7.34734 102.111 8.19066C102.117 8.61007 101.914 8.76585 101.513 8.75686C101.188 8.74937 100.86 8.74338 100.539 8.78532C99.5723 8.91564 99.1241 9.40695 99.1061 10.3746C99.0865 11.4905 99.1 12.608 99.0985 13.7254C99.0985 13.8991 99.094 14.0729 99.0925 14.2467C99.088 14.5462 98.9406 14.711 98.6338 14.7125C97.7839 14.714 96.9341 14.7155 96.0843 14.7125C95.818 14.7125 95.6661 14.5702 95.6496 14.3021C95.6405 14.1538 95.639 14.004 95.639 13.8557C95.639 11.2748 95.636 8.69395 95.639 6.11307C95.639 5.24279 95.7022 5.18438 96.5746 5.17838C97.1492 5.17389 97.7253 5.1694 98.2998 5.17988C98.9978 5.19336 99.0639 5.26526 99.0985 5.9513C99.1076 6.12206 99.1136 6.29282 99.1301 6.64183L99.1316 6.64033Z" />
  <path d="M49.6771 8.48729C49.6771 10.2983 49.6801 12.1107 49.6756 13.9217C49.6726 14.6796 49.635 14.7111 48.8649 14.72C48.2903 14.726 47.7142 14.726 47.1396 14.72C46.3876 14.7111 46.3545 14.6796 46.3515 13.9007C46.347 12.4612 46.35 11.0217 46.35 9.58226C46.35 7.39832 46.347 5.21439 46.35 3.03045C46.35 2.22608 46.3816 2.20062 47.1968 2.19463C47.7473 2.19013 48.2978 2.18863 48.8468 2.19463C49.647 2.20212 49.6726 2.22758 49.6741 3.05142C49.6786 4.86238 49.6741 6.67484 49.6741 8.48579L49.6771 8.48729Z" />
  <path d="M54.9266 10.0118C54.9266 11.3284 54.9326 12.6466 54.9251 13.9632C54.9206 14.6733 54.877 14.7107 54.1475 14.7182C53.4962 14.7257 52.8449 14.7272 52.1951 14.7182C51.5303 14.7077 51.4731 14.6553 51.4701 13.9842C51.4626 11.673 51.4671 9.36171 51.4671 7.05045C51.4671 6.65351 51.4551 6.25507 51.4716 5.85812C51.4942 5.3069 51.592 5.19755 52.135 5.18257C52.8359 5.1631 53.5368 5.1631 54.2377 5.18257C54.8138 5.19755 54.9176 5.3069 54.9221 5.91205C54.9341 7.27813 54.9251 8.64571 54.9266 10.0118Z" />
  <path d="M15.1134 9.98681C15.1134 11.302 15.1179 12.6171 15.1119 13.9323C15.1089 14.6827 15.0713 14.7127 14.2921 14.7202C13.6679 14.7262 13.0422 14.7097 12.418 14.7247C11.9818 14.7351 11.7802 14.5719 11.7817 14.1165C11.7908 11.3379 11.7908 8.55931 11.7817 5.78071C11.7802 5.32385 11.9863 5.16508 12.4195 5.17406C13.0693 5.18755 13.7191 5.16957 14.3689 5.17856C15.0653 5.18904 15.1074 5.23398 15.1119 5.96795C15.1179 7.30707 15.1134 8.64769 15.1134 9.98681Z" />
  <path d="M13.4036 4.44294C12.656 4.43245 12.0153 4.1838 11.6528 3.50675C11.3339 2.91209 11.4452 2.30094 11.8032 1.74223C12.2951 0.97231 13.7044 0.747625 14.5753 1.29286C15.4402 1.8336 15.6673 2.8342 15.0988 3.685C14.7002 4.27967 14.094 4.45941 13.4051 4.44294H13.4036Z" />
  <path d="M53.2777 4.43846C51.912 4.42498 51.1509 3.58016 51.3163 2.38035C51.3269 2.30695 51.3374 2.23355 51.3585 2.16315C51.5871 1.37975 52.5272 0.882451 53.544 1.00528C54.4269 1.11163 55.1624 1.83811 55.2075 2.64697C55.2542 3.46033 54.5908 4.23175 53.6869 4.40101C53.5169 4.43247 53.3409 4.43247 53.2762 4.43846H53.2777Z" />
</svg>
