<svg viewBox="0 0 119 21" fill="currentColor" xmlns="http://www.w3.org/2000/svg">
    <path d="M32.2814 4.94343V15.1126H29.9318V14.0355C29.3984 14.9111 28.4158 15.4161 26.9831 15.4161C24.6006 15.4161 23.4178 14.1699 23.4178 12.1831V4.94424H25.9837V11.4928C25.9837 12.5538 26.5498 13.1761 27.6494 13.1761C28.9323 13.1761 29.7155 12.4356 29.7155 11.072V4.94343H32.2814ZM48.942 8.00812V15.1135H46.3761V8.78258C46.3761 7.5703 45.8932 6.82983 44.7768 6.82983C43.6605 6.82983 43.011 7.67146 43.011 8.84975V15.1135H40.4451V8.78258C40.4451 7.48614 39.9118 6.82983 38.8459 6.82983C37.7127 6.82983 37.0792 7.67146 37.0792 8.84975V15.1135H34.5141V4.94262H36.8966V6.07074C37.4804 5.09477 38.4462 4.60597 39.7628 4.60597C41.0457 4.60597 42.0116 5.14494 42.5617 6.10473C43.2448 5.11095 44.2611 4.60597 45.5777 4.60597C47.7263 4.60597 48.9428 5.90241 48.9428 8.00731L48.942 8.00812ZM69.5346 15.1135H66.9696V0.969948H69.5346V15.1118V15.1135ZM97.3588 15.1135H94.7929V4.94262H97.3588V15.1118V15.1135ZM94.7425 3.4115H97.3916V0.936768H94.7425V3.4115ZM106.972 11.6449C105.922 12.7731 105.206 13.2101 104.24 13.2101C103.09 13.2101 102.274 12.5368 101.907 11.4928V8.53009C102.29 7.46996 103.106 6.79584 104.272 6.79584C105.122 6.79584 105.806 7.09931 106.889 8.12627L108.488 6.52635C107.205 5.11176 105.956 4.58979 104.272 4.58979C101.924 4.58979 100.108 5.83605 99.3913 7.92395V12.0998C100.09 14.1877 101.874 15.4161 104.207 15.4161C106.023 15.4161 107.272 14.8092 108.671 13.0587L106.972 11.6449ZM17.8528 8.84975C17.1529 8.69842 16.6531 8.56327 16.3696 8.4961C16.0205 8.39494 15.753 8.26061 15.6201 8.07528V7.30082C15.8531 6.93018 16.4201 6.69468 17.2033 6.69468C18.286 6.69468 19.0356 6.94717 20.2185 7.88996L21.6015 6.2067C20.2016 5.0276 19.0028 4.60678 17.269 4.60678C15.2701 4.60678 13.8879 5.43223 13.3377 6.61052V9.16941C13.7701 10.028 14.7712 10.5168 16.7701 10.9546C17.486 11.123 17.9697 11.2403 18.2524 11.2913C18.6192 11.4086 18.9523 11.5608 19.1357 11.8295V12.7221C18.8859 13.1267 18.286 13.3452 17.5028 13.3452C16.9421 13.3582 16.3853 13.2492 15.8699 13.0256C15.3702 12.8232 14.7872 12.4356 14.0544 11.8295L12.5713 13.4965C14.1706 14.9273 15.52 15.4161 17.4364 15.4161C19.4857 15.4161 20.9352 14.6247 21.4846 13.3622V10.7855C21.0185 9.82572 19.9021 9.32155 17.8528 8.84975ZM55.673 4.59059C53.357 4.59059 51.5407 5.85305 50.7911 7.87297V12.1499C51.5247 14.1699 53.357 15.4331 55.673 15.4331C57.989 15.4331 59.7885 14.1707 60.5212 12.1669V7.85597C59.7717 5.85224 57.9554 4.58979 55.673 4.58979V4.59059ZM58.0386 11.5098C57.639 12.5877 56.7893 13.2271 55.6562 13.2271C54.5398 13.2271 53.6573 12.5877 53.2569 11.5098V8.5131C53.6573 7.43597 54.5062 6.77884 55.6562 6.77884C56.7893 6.77884 57.6222 7.43516 58.0226 8.5131L58.0386 11.5098ZM76.3994 4.59059C74.0834 4.59059 72.2671 5.85305 71.5175 7.87297V12.1499C72.2671 14.1699 74.0834 15.4331 76.3994 15.4331C78.7154 15.4331 80.5149 14.1707 81.2476 12.1669V7.85597C80.5149 5.85224 78.6986 4.58979 76.3994 4.58979V4.59059ZM78.765 11.5098C78.3646 12.5877 77.5157 13.2271 76.3994 13.2271C75.283 13.2271 74.3997 12.5877 74.0001 11.5098V8.5131C74.4005 7.43597 75.2494 6.77884 76.3994 6.77884C77.5486 6.77884 78.3654 7.43516 78.765 8.5131V11.5098ZM90.1777 4.94343V6.07155C89.5282 5.09558 88.512 4.60678 87.1121 4.60678C85.2126 4.60678 83.6797 5.78588 83.0135 7.65447V11.8465C83.6629 13.7159 85.1957 14.8771 87.1121 14.8771C88.3951 14.8771 89.3617 14.4401 90.0448 13.5807V14.3892C90.0448 16.0724 89.0782 16.8639 87.5782 16.8639C86.4627 16.8639 85.5457 16.5272 84.0802 15.6516L82.8309 17.521C84.2462 18.4801 85.9079 19.0007 87.6119 19.019C90.4444 19.019 92.5274 17.487 92.5274 14.6247V4.94343H90.1777ZM89.8614 11.123C89.4786 12.0828 88.6778 12.6881 87.6791 12.6881C86.6789 12.6881 85.8796 12.0989 85.496 11.123V8.34477C85.8796 7.38498 86.6621 6.79584 87.6791 6.79584C88.6954 6.79584 89.4786 7.38498 89.8614 8.34477V11.123Z" />
</svg>
