<svg viewBox="0 0 93 19" fill="currentColor" xmlns="http://www.w3.org/2000/svg">
    <path d="M31.752 9.63198C31.752 12.188 30.0278 13.2444 28.272 13.2444C26.5082 13.2444 24.792 12.188 24.792 9.63198V5.00565H26.4377V9.47295C26.4377 11.023 27.2451 11.5929 28.272 11.5929C29.2989 11.5929 30.1062 11.023 30.1062 9.47295V5.00565H31.752V9.63198ZM35.0132 2.30714H33.32V13.035H35.0125L35.0132 2.30714ZM40.1512 6.39664H38.2068V10.4192C38.2068 11.4929 38.8653 11.4756 40.1512 11.4087V13.035C37.5642 13.3696 36.5136 12.6155 36.5136 10.4199V2.30714H38.2068V4.65377H40.1512V6.39664ZM57.0827 2.30714H55.3895V13.035H57.0827V2.30714ZM70.4429 6.39664H68.4985V10.4192C68.4985 11.4929 69.1569 11.4756 70.4429 11.4087V13.035C67.8559 13.3696 66.806 12.6155 66.806 10.4199V2.30714H68.4985V4.65377H70.4429V6.39664ZM71.6878 5.58133H73.3817V13.0343H71.6878V5.58133ZM71.7677 3.98885C71.5632 3.7674 71.4497 3.47708 71.4497 3.1757C71.4497 2.87432 71.5632 2.584 71.7677 2.36255C71.8629 2.25205 71.9809 2.16338 72.1135 2.1026C72.2461 2.04183 72.3903 2.01036 72.5362 2.01036C72.6821 2.01036 72.8263 2.04183 72.9589 2.1026C73.0915 2.16338 73.2095 2.25205 73.3047 2.36255C73.7264 2.8159 73.7264 3.51967 73.2875 3.98885C72.8636 4.4422 72.2066 4.4422 71.7677 3.98885ZM64.132 4.65377H65.9346L62.9245 13.3027C62.007 15.8918 61.3104 16.3869 59.0847 16.3869L59.0998 14.6937C60.1655 14.7606 60.7621 14.2079 61.1852 13.0515L61.2629 12.8839L57.9398 4.65377H59.7891L62.1257 10.738L64.132 4.65377ZM75.7866 11.9786C75.003 11.1237 74.6115 10.0846 74.6115 8.84401C74.6115 7.58687 75.003 6.54776 75.7866 5.70942C76.5868 4.85453 77.5734 4.43573 78.7492 4.43573C80.2698 4.43573 81.6176 5.27406 82.2451 6.59813L80.7872 7.50339C80.4266 6.69888 79.6739 6.21243 78.7341 6.21243C78.044 6.21243 77.464 6.46429 76.9934 6.96657C76.5394 7.46957 76.304 8.08915 76.304 8.84401C76.304 9.59816 76.5394 10.2185 76.9934 10.7215C77.2128 10.9642 77.4817 11.1572 77.782 11.2873C78.0823 11.4174 78.407 11.4816 78.7341 11.4756C79.6588 11.4756 80.4425 10.9726 80.8181 10.1846L82.276 11.0733C81.9515 11.7306 81.4488 12.2835 80.8252 12.6688C80.2016 13.054 79.4823 13.2562 78.7492 13.2523C77.5734 13.2523 76.5868 12.8335 75.7866 11.9786ZM86.467 8.05677C87.6738 8.34101 89.2411 8.87784 89.2101 10.6711C89.2101 11.4756 88.9129 12.1125 88.3322 12.5651C87.7522 13.0184 87.0312 13.2523 86.1532 13.2523C84.6018 13.2523 83.4569 12.5154 82.9553 11.2914L84.4132 10.3861C84.6802 11.1906 85.2602 11.5929 86.1532 11.5929C87.0463 11.5929 87.4859 11.2748 87.4859 10.6545C87.4859 10.1184 86.8275 9.79965 85.9971 9.58233C84.8213 9.26354 83.2374 8.76054 83.2683 7.00039C83.2683 6.2297 83.536 5.6094 84.0844 5.14022C84.6327 4.67104 85.3228 4.43573 86.1381 4.43573C87.4385 4.43573 88.4891 5.08985 89.0381 6.17932L87.6112 7.03421C87.3449 6.39736 86.8426 6.07858 86.1381 6.07858C85.4948 6.07858 84.994 6.38081 84.994 6.96729C84.994 7.51995 85.6517 7.80491 86.467 8.05677ZM49.9493 11.526C50.6545 11.526 51.2503 11.2741 51.721 10.7718C52.1909 10.2523 52.4262 9.61543 52.4262 8.84401C52.4262 8.07332 52.1916 7.43647 51.721 6.93347C51.2503 6.41391 50.6545 6.16277 49.9493 6.16277C49.2441 6.16277 48.6483 6.41463 48.1784 6.93347C47.7077 7.43647 47.4731 8.07332 47.4731 8.84401C47.4731 9.61543 47.7077 10.2523 48.1784 10.7726C48.6483 11.2748 49.2441 11.526 49.9493 11.526ZM52.4262 4.65377H54.1194V13.035H52.4262V11.8275C51.7836 12.7831 50.8747 13.2523 49.683 13.2523C48.6015 13.2523 47.6919 12.8335 46.9241 11.9786C46.1556 11.1237 45.7799 10.0681 45.7799 8.84401C45.7799 7.60414 46.1556 6.56503 46.9241 5.71014C47.6919 4.85525 48.6008 4.43645 49.683 4.43645C50.8747 4.43645 51.7843 4.90563 52.4262 5.84399V4.65377ZM43.0433 6.17357C43.4556 5.16109 44.2493 4.65521 45.3942 4.65521V6.56503C44.7682 6.5161 44.2184 6.67945 43.7456 7.05436C43.2721 7.41416 43.0433 8.01791 43.0433 8.84977V12.963H41.3947V4.80272H43.0425V6.17285L43.0433 6.17357ZM12.4393 5.48922L12.4378 7.79771C12.4457 10.9489 10.0416 13.52 7.10342 13.5164C5.98595 13.5209 4.89888 13.1528 4.01416 12.4701C5.55843 15.4385 8.52031 17.444 11.8866 17.4461C16.7792 17.4418 20.8219 13.1839 20.8989 7.94955L20.8975 7.92796C20.9018 7.80707 20.8975 5.57486 20.9032 5.47627C20.896 2.9922 18.9977 0.951409 16.6749 0.957165C14.3412 0.953567 12.4321 2.98357 12.44 5.48922H12.4393Z" />
    <path d="M7.09848 3.28003C4.76625 3.28003 2.86865 5.30931 2.86865 7.80273C2.86865 10.2962 4.76625 12.3247 7.09848 12.3247C9.42999 12.3247 11.3276 10.2954 11.3276 7.80273C11.3276 5.30859 9.43071 3.28003 7.09848 3.28003Z" />
</svg>
