<svg viewBox="0 0 93 19" fill="currentColor" xmlns="http://www.w3.org/2000/svg">
    <path d="M23.6561 5.38561L20.015 3.27286C19.8748 3.19166 19.7156 3.14885 19.5536 3.14874C19.3916 3.14862 19.2324 3.1912 19.0921 3.27219C18.9518 3.35318 18.8353 3.46972 18.7544 3.61007C18.6735 3.75041 18.631 3.90961 18.6312 4.07162V9.42546L16.0471 7.94092C15.3654 7.54794 14.5923 7.34108 13.8055 7.34108C13.0186 7.34108 12.2456 7.54794 11.5639 7.94092L8.98056 9.42546V4.05723C8.98056 3.3441 8.20986 2.91594 7.59604 3.25847L3.95557 5.38561C3.74706 5.5049 3.57384 5.67725 3.45352 5.88517C3.33319 6.09308 3.27005 6.32914 3.27051 6.56936V11.6087C3.27051 11.9657 3.35614 12.2938 3.52741 12.5939C3.69867 12.8932 3.92751 13.1501 4.22686 13.3502L6.1115 14.549L7.55287 15.4629C8.42359 16.0199 9.52314 15.9631 10.3514 15.3485L10.4651 15.2629L10.4939 15.2341L12.6635 13.579C13.2917 13.0933 14.3337 13.0933 14.9763 13.579L17.1322 15.2204L17.2603 15.3205C17.6606 15.6197 18.1421 15.7909 18.6415 15.8113C19.1409 15.8317 19.6347 15.7005 20.0581 15.4349L21.5002 14.521L23.3849 13.3221C23.6842 13.1365 23.9267 12.8652 24.0843 12.5651C24.2412 12.2657 24.3412 11.9369 24.3412 11.58V6.55497C24.3412 6.06996 24.0843 5.61301 23.6561 5.3705V5.38561Z" />
    <path d="M18.6589 12.6801V14.4935C18.6589 15.0497 18.2595 15.5067 17.7738 15.5067C17.2887 15.5067 17.3456 15.4059 17.1175 15.2354L14.9616 13.5789C14.3333 13.0939 13.2921 13.0939 12.6495 13.5789L10.4791 15.2354C10.2654 15.3923 10.1222 15.4491 9.92217 15.4491C9.42277 15.4491 8.96582 15.0785 8.96582 14.4784V12.6794L12.0637 10.681C12.5826 10.3457 13.1873 10.1674 13.8052 10.1674C14.423 10.1674 15.0277 10.3457 15.5466 10.681L18.6589 12.6369V12.6801Z" />
    <path d="M18.6311 9.41035V12.7083L15.5612 10.738C15.0423 10.4026 14.4376 10.2242 13.8198 10.2242C13.202 10.2242 12.5972 10.4026 12.0784 10.738L8.98047 12.7083V9.41035L11.5638 7.92581C12.2455 7.53283 13.0186 7.32596 13.8054 7.32596C14.5923 7.32596 15.3653 7.53283 16.047 7.92581L18.6303 9.41035H18.6311ZM24.3404 6.57008V11.5951C24.3404 11.952 24.2555 12.2801 24.0842 12.5802L18.6311 9.41107V4.05723C18.6311 3.3441 19.401 2.91594 20.0156 3.25847L23.6553 5.37122C24.0842 5.61373 24.3411 6.07068 24.3411 6.55569L24.3404 6.57008Z" />
    <path d="M8.98063 4.05792V9.42472L3.52748 12.5939C3.35625 12.2942 3.2676 11.9545 3.27058 11.6094V6.56933C3.27058 6.0836 3.52748 5.62665 3.95564 5.38415L7.59611 3.27139C7.73638 3.18999 7.89564 3.14703 8.05781 3.14685C8.21999 3.14667 8.37934 3.18928 8.51978 3.27038C8.66022 3.35148 8.77679 3.46819 8.8577 3.60874C8.93862 3.74929 8.98102 3.9087 8.98063 4.07087V4.05648V4.05792ZM17.7029 15.4348C18.1879 15.4348 18.6456 15.0491 18.6456 14.5066V12.6939L21.5291 14.5361L20.0726 15.4636C19.6515 15.736 19.1564 15.8711 18.6554 15.8505C18.1544 15.8299 17.672 15.6545 17.2748 15.3485L17.1323 15.2348C17.3316 15.378 17.5029 15.4348 17.7029 15.4348Z" />
    <path d="M24.0841 12.5946C23.9178 12.9013 23.677 13.1614 23.384 13.3509L21.5 14.5497L18.631 12.7226V9.42615L24.0841 12.609V12.5946ZM8.98039 14.5065C8.98039 15.0635 9.43733 15.4924 9.92306 15.4348C10.1368 15.406 10.3081 15.3773 10.4793 15.2492L10.3505 15.3499C9.95015 15.6491 9.46861 15.8201 8.96922 15.8404C8.46984 15.8607 7.97601 15.7293 7.55269 15.4636L6.11133 14.5497L8.98039 12.7083V14.5065Z" />
    <path d="M8.9805 9.41044V12.7084L6.11144 14.5506L4.2268 13.351C3.93074 13.165 3.68936 12.9038 3.52734 12.594L8.9805 9.42483V9.41044ZM89.2371 9.62488C89.494 9.39677 89.6228 9.01106 89.6228 8.46848C89.6228 7.92662 89.5508 7.79781 89.394 7.46967C89.2269 7.11463 88.9905 6.79658 88.6988 6.53422C88.407 6.27186 88.0657 6.07049 87.695 5.94196C87.2956 5.77069 86.8387 5.69945 86.3385 5.69945C85.6472 5.69213 84.9652 5.85892 84.3553 6.18446C83.7969 6.48586 83.3324 6.93558 83.0133 7.48407C82.6844 8.02593 82.5275 8.66853 82.5275 9.36799C82.5275 10.0674 82.6132 10.3963 82.7844 10.8525C82.9557 11.3095 83.2126 11.7232 83.5407 12.0802C83.8878 12.4387 84.3059 12.7208 84.7684 12.9084C85.2397 13.1085 85.7967 13.2085 86.3961 13.2085C86.9955 13.2085 87.4237 13.1509 87.8519 13.0228C88.2807 12.9084 88.6369 12.7516 88.8802 12.5803C89.1507 12.3946 89.2803 12.209 89.2803 12.0377C89.2803 11.8664 89.2803 11.8664 89.2515 11.7808C89.2227 11.6945 89.1795 11.6239 89.1227 11.5239C89.0651 11.4095 88.9795 11.3239 88.8658 11.2951C88.7676 11.2497 88.6568 11.2395 88.552 11.2663C88.4664 11.2951 88.3664 11.3239 88.2807 11.3814C88.2095 11.4239 88.1095 11.4807 88.0095 11.5239C87.9087 11.5671 87.7806 11.6239 87.6237 11.6664C87.4813 11.7096 87.31 11.7528 87.1243 11.7808C86.9387 11.8096 86.6955 11.824 86.4242 11.824C86.1536 11.824 85.6966 11.7376 85.3397 11.5808C84.9828 11.4239 84.6971 11.1814 84.4546 10.8957C84.2492 10.6127 84.1345 10.2739 84.1258 9.92424H88.3376C88.7089 9.92424 89.0227 9.81054 89.2803 9.59682L89.2371 9.62561V9.62488ZM88.1951 8.49727C88.1951 8.66853 88.1663 8.78295 88.0951 8.81173C88.0382 8.84052 87.9375 8.86858 87.7238 8.86858H84.0833C84.0833 8.55412 84.1833 8.26915 84.369 8.01225C84.5748 7.71947 84.8557 7.48755 85.1821 7.34086C85.5478 7.16724 85.9482 7.07937 86.3529 7.08397C86.7818 7.08397 87.0387 7.15593 87.31 7.28402C87.595 7.41211 87.8094 7.59776 87.9807 7.81221C88.1383 8.01225 88.2095 8.24037 88.2095 8.49727H88.1951ZM80.9573 5.84265C80.831 5.81262 80.7015 5.79812 80.5716 5.79948H79.2584V3.89972C79.2584 3.74285 79.2447 3.61476 79.2159 3.51474C79.1727 3.38593 79.1015 3.2859 78.9727 3.22905C78.8583 3.15709 78.7014 3.12903 78.5021 3.12903C78.302 3.12903 78.1451 3.15781 78.0307 3.24345C77.977 3.27312 77.9301 3.31386 77.8933 3.36299C77.8564 3.41211 77.8304 3.46849 77.817 3.52841C77.7882 3.64355 77.7738 3.77163 77.7738 3.92851V5.84121H77.1031C76.8743 5.84121 76.703 5.89878 76.6037 6.02687C76.5037 6.14129 76.4462 6.32694 76.4462 6.58384C76.4462 6.84074 76.4893 7.0264 76.5606 7.1401C76.6606 7.26891 76.8319 7.32575 77.0744 7.32575H77.7738V10.6805C77.7738 11.1519 77.817 11.5513 77.917 11.8657C78.0171 12.1795 78.1739 12.4508 78.3876 12.6645C78.6014 12.8645 78.887 13.0221 79.2159 13.1222C79.544 13.2215 79.9578 13.2646 80.4292 13.2646C80.8998 13.2646 80.6861 13.2502 80.7861 13.2215C80.8495 13.2124 80.9097 13.1883 80.9618 13.1511C81.0139 13.1139 81.0563 13.0647 81.0854 13.0077C81.1567 12.8933 81.1855 12.7221 81.1855 12.5076C81.1855 12.2939 81.1567 12.1514 81.0998 12.0514C81.043 11.9362 80.943 11.8657 80.8149 11.8226C80.6793 11.7911 80.5403 11.7766 80.4011 11.7794C80.2291 11.7794 79.9866 11.7794 79.829 11.7513C79.6865 11.7369 79.5728 11.6937 79.5009 11.6232C79.4215 11.5378 79.3631 11.4351 79.3303 11.3231C79.2871 11.1663 79.2728 10.9662 79.2728 10.7093V7.35454H80.6004C80.7429 7.36893 80.8717 7.35454 80.9854 7.32575C81.047 7.30678 81.104 7.2755 81.1531 7.23382C81.2022 7.19213 81.2424 7.14091 81.2711 7.08325C81.3279 6.96883 81.3567 6.81196 81.3567 6.59823C81.3567 6.38379 81.3279 6.22692 81.2567 6.12689C81.2318 6.06817 81.1928 6.01652 81.143 5.97658C81.0933 5.93665 81.0344 5.90967 80.9717 5.89806L80.9573 5.84121V5.84265ZM74.976 5.81387C74.8767 5.74191 74.7335 5.69945 74.5191 5.69945C74.3053 5.69945 74.0765 5.75702 73.9484 5.87072C73.834 5.98513 73.7771 6.17079 73.7771 6.4133V6.74144C73.6627 6.59895 73.5202 6.47015 73.3778 6.34206C73.1381 6.13579 72.8621 5.97595 72.5639 5.87072C72.2501 5.74263 71.8637 5.68506 71.4075 5.68506C70.9505 5.68506 70.4648 5.7858 70.0367 5.98513C69.6197 6.18708 69.2426 6.46253 68.9234 6.79828C68.5923 7.14531 68.3307 7.55249 68.1527 7.99786C67.9799 8.45387 67.8928 8.93789 67.8958 9.42555C67.8958 9.92496 67.9815 10.4251 68.1527 10.8813C68.3384 11.3383 68.5809 11.7376 68.8946 12.0946C69.2235 12.4515 69.5941 12.7228 70.0086 12.9228C70.4367 13.1229 70.8937 13.2229 71.3931 13.2229C71.8925 13.2229 72.3214 13.1365 72.6776 12.9804C73.0201 12.8084 73.3058 12.6228 73.5202 12.409C73.6203 12.309 73.7059 12.209 73.7771 12.1233L73.7484 12.5234C73.7771 12.7516 73.834 12.9228 73.934 13.0228C74.0484 13.1373 74.2334 13.1797 74.4766 13.1797C74.7198 13.1797 74.8335 13.1509 74.9479 13.0797C75.0616 13.0221 75.1336 12.9084 75.1761 12.7803C75.2048 12.6659 75.2192 12.5234 75.2192 12.3802V6.54211C75.2192 6.37012 75.2048 6.22764 75.1761 6.09955C75.1446 5.97259 75.0688 5.86106 74.9623 5.78508L74.976 5.81387ZM73.7059 9.45362C73.7059 9.89618 73.6059 10.2963 73.4202 10.6532C73.2466 10.9879 72.9852 11.269 72.6639 11.4663C72.3575 11.664 72.0002 11.7683 71.6356 11.7664C71.265 11.7664 70.7937 11.6664 70.4511 11.4815C70.1212 11.2852 69.8499 11.0042 69.6653 10.6676C69.4743 10.3072 69.3764 9.9047 69.3804 9.4968C69.3804 9.06863 69.4804 8.65486 69.6653 8.31233C69.8439 7.97234 70.1103 7.68636 70.4367 7.48407C70.7649 7.26962 71.165 7.1696 71.6068 7.1696C72.0494 7.1696 72.3358 7.27034 72.6351 7.46967C72.9489 7.65533 73.2058 7.92662 73.4065 8.28282C73.6059 8.61168 73.7059 9.02545 73.7059 9.46801V9.45362ZM66.3249 5.79948C66.2112 5.72751 66.068 5.69873 65.8543 5.69873C65.6399 5.69873 65.483 5.72752 65.3542 5.78508C65.2405 5.84265 65.1685 5.94196 65.1261 6.07077C65.0973 6.18446 65.0829 6.31327 65.0829 6.45575V12.4659C65.0829 12.6084 65.0973 12.7372 65.1261 12.8516C65.1693 12.9797 65.2405 13.0653 65.3542 13.1365C65.4686 13.2085 65.6255 13.2373 65.8399 13.2373C66.0536 13.2373 66.1968 13.2085 66.2969 13.1509C66.425 13.0934 66.4962 12.9941 66.5394 12.8653C66.5682 12.7516 66.5826 12.6228 66.5826 12.4803V6.48454C66.5826 6.32766 66.5682 6.18446 66.5394 6.08444C66.5018 5.96813 66.4263 5.86779 66.3249 5.79948ZM66.3825 3.21538C66.2537 3.14342 66.0824 3.11536 65.8543 3.11536C65.6255 3.11536 65.4398 3.14414 65.3117 3.21538C65.2466 3.24507 65.1886 3.28847 65.1418 3.34262C65.095 3.39677 65.0604 3.46039 65.0404 3.52913C64.9973 3.64354 64.9685 3.80042 64.9685 3.97168C64.9685 4.14295 64.9829 4.28615 65.0117 4.41424C65.0591 4.55669 65.1552 4.67793 65.283 4.75677C65.4118 4.82873 65.583 4.85751 65.8255 4.85751C66.068 4.85751 66.2393 4.82873 66.3681 4.75677C66.43 4.72467 66.4847 4.6803 66.5289 4.62635C66.573 4.57241 66.6058 4.51003 66.625 4.44302C66.6682 4.31422 66.697 4.15734 66.697 4.00047C66.697 3.84359 66.6826 3.68672 66.6394 3.55791C66.6204 3.48895 66.5879 3.42444 66.5438 3.36812C66.4997 3.3118 66.4449 3.26478 66.3825 3.22977V3.21538ZM63.3271 5.82826C63.0126 5.66995 62.7701 5.65627 62.6132 5.78508C62.4707 5.89878 62.3419 6.07005 62.2275 6.31327L60.1579 11.2238L58.0308 6.15568C57.9164 5.89878 57.7739 5.7563 57.6026 5.71312C57.4458 5.66995 57.2457 5.71312 57.0313 5.81387C56.7888 5.92756 56.6319 6.07005 56.5743 6.21325C56.5031 6.35573 56.5175 6.57017 56.6463 6.84146L59.3872 12.8365C59.4585 12.9797 59.5585 13.0941 59.6866 13.1509C59.8154 13.2085 59.9579 13.2366 60.1435 13.2366C60.3292 13.2366 60.5005 13.2078 60.6286 13.1365C60.758 13.0692 60.8593 12.958 60.9142 12.8228L63.6415 6.92709C63.7408 6.72704 63.784 6.54139 63.784 6.37012C63.784 6.19885 63.6264 5.98441 63.3271 5.82754V5.82826ZM55.0761 5.81387C54.9761 5.74191 54.8336 5.69945 54.6192 5.69945C54.4054 5.69945 54.1766 5.75702 54.0485 5.87072C53.9197 5.98513 53.8772 6.17079 53.8772 6.4133V6.74144C53.7621 6.59895 53.6196 6.47015 53.4771 6.34206C53.2378 6.13572 52.962 5.97587 52.664 5.87072C52.3495 5.74263 51.9638 5.68506 51.5069 5.68506C51.0506 5.68506 50.5649 5.7858 50.1367 5.98513C49.7198 6.18706 49.3427 6.46252 49.0235 6.79828C48.6922 7.14524 48.4303 7.55243 48.2521 7.99786C48.0792 8.45386 47.9921 8.93789 47.9952 9.42555C47.9952 9.92496 48.0816 10.4251 48.2521 10.8813C48.4378 11.3383 48.681 11.7376 48.9947 12.0946C49.3229 12.4515 49.6942 12.7228 50.108 12.9228C50.5368 13.1229 50.9931 13.2229 51.4932 13.2229C51.9926 13.2229 52.4215 13.1365 52.7777 12.9804C53.1202 12.8084 53.4059 12.6228 53.6196 12.409C53.7204 12.309 53.8053 12.209 53.8772 12.1233L53.8485 12.5234C53.8629 12.7516 53.9341 12.9228 54.0485 13.0228C54.1622 13.1373 54.3479 13.1797 54.5904 13.1797C54.8336 13.1797 54.9473 13.1509 55.0617 13.0797C55.1761 13.0221 55.2474 12.9084 55.2905 12.7803C55.3193 12.6659 55.333 12.5234 55.333 12.3802V6.54211C55.333 6.37012 55.3186 6.22764 55.2898 6.09955C55.2586 5.97249 55.1828 5.86088 55.0761 5.78508V5.81387ZM53.8053 9.45362C53.8053 9.89618 53.706 10.2963 53.5203 10.6532C53.3468 10.9882 53.085 11.2693 52.7633 11.4663C52.4572 11.664 52.1001 11.7683 51.7357 11.7664C51.3644 11.7664 50.8938 11.6664 50.5505 11.4815C50.2211 11.285 49.9503 11.004 49.7662 10.6676C49.5746 10.3073 49.4762 9.90483 49.4798 9.4968C49.4798 9.06863 49.5805 8.65486 49.7654 8.31233C49.944 7.97234 50.2104 7.68636 50.5368 7.48407C50.865 7.26962 51.2644 7.1696 51.7069 7.1696C52.1495 7.1696 52.4352 7.27034 52.7345 7.46967C53.049 7.65533 53.3059 7.92662 53.5059 8.28282C53.706 8.61168 53.8053 9.02545 53.8053 9.46801V9.45362ZM45.9112 6.58384C45.6112 6.30463 45.2564 6.09093 44.8693 5.95635C44.4699 5.78508 44.0129 5.71312 43.5128 5.71312C42.7709 5.71312 42.1002 5.88511 41.5289 6.19885C40.9696 6.50396 40.5015 6.95222 40.1724 7.49774C39.8443 8.04032 39.6874 8.68292 39.6874 9.38238C39.6874 10.0818 39.773 10.41 39.9443 10.8669C40.1156 11.3239 40.3725 11.7376 40.7006 12.0946C41.0503 12.4498 41.4678 12.7312 41.9282 12.9221C42.3996 13.1222 42.9566 13.2222 43.556 13.2222C44.1554 13.2222 44.5836 13.1646 45.0125 13.0365C45.4406 12.9228 45.7968 12.7652 46.0401 12.594C46.3113 12.4083 46.4394 12.2227 46.4394 12.0514C46.4394 11.8801 46.4394 11.8801 46.4106 11.7945C46.3826 11.7089 46.3394 11.6376 46.2826 11.5376C46.225 11.4239 46.1401 11.3383 46.0257 11.3095C45.9272 11.2641 45.8162 11.2539 45.7112 11.2807C45.6263 11.3095 45.5263 11.3383 45.4406 11.3951C45.3687 11.4383 45.2694 11.4951 45.1693 11.5376C45.0686 11.5808 44.9405 11.6383 44.798 11.6808C44.6555 11.724 44.4836 11.7664 44.2986 11.7945C44.0986 11.8233 43.8697 11.8377 43.5992 11.8377C43.3279 11.8377 42.8709 11.7513 42.514 11.5952C42.1571 11.4376 41.8714 11.1951 41.6289 10.9094C41.4236 10.6266 41.3091 10.288 41.3007 9.93863H45.5111C45.8825 9.93863 46.1962 9.82493 46.4538 9.61049C46.71 9.38238 46.8388 8.99667 46.8388 8.45409C46.8388 7.91151 46.7668 7.78342 46.61 7.45528C46.4486 7.11752 46.2261 6.81255 45.9537 6.55578L45.9105 6.58456L45.9112 6.58384ZM45.3687 8.49727C45.3687 8.66853 45.3399 8.78223 45.2694 8.81101C45.2118 8.8398 45.1118 8.86858 44.898 8.86858H41.2576C41.2576 8.55412 41.3576 8.26843 41.5433 8.01225C41.7489 7.71933 42.0298 7.48736 42.3564 7.34086C42.7174 7.16863 43.1128 7.08078 43.5128 7.08397C43.9273 7.08397 44.1986 7.15521 44.4699 7.28402C44.7548 7.41211 44.9693 7.59776 45.1262 7.81148C45.283 8.01153 45.355 8.24037 45.355 8.49727H45.3687ZM38.4878 5.78508C38.2309 5.68434 38.0028 5.66995 37.8452 5.7563C37.6883 5.84193 37.5739 6.0132 37.4746 6.2701L35.8901 10.5244L34.4336 6.28449C34.4048 6.19814 34.3616 6.11322 34.2911 6.02759C34.2335 5.94124 34.1479 5.88439 34.0623 5.82754C33.9622 5.76997 33.8341 5.74191 33.6629 5.74191C33.4916 5.74191 33.3772 5.77069 33.2772 5.82826C33.1772 5.88093 33.0933 5.95977 33.0347 6.05637C32.9915 6.12761 32.9627 6.21325 32.9202 6.29888L31.4357 10.4956L29.8511 6.19885C29.7655 5.95635 29.6367 5.79876 29.4798 5.74191C29.323 5.68434 29.1229 5.69873 28.866 5.79948C28.7091 5.85632 28.5803 5.91317 28.4947 5.99881C28.411 6.08314 28.3604 6.19475 28.3522 6.31327C28.3522 6.42697 28.381 6.57017 28.4378 6.72704L30.7363 12.6371C30.7506 12.7372 30.7938 12.8228 30.8363 12.9084C30.8938 12.9941 30.9644 13.0653 31.0644 13.1078C31.1651 13.1653 31.3069 13.1941 31.4645 13.1941C31.6214 13.1941 31.7358 13.1653 31.8358 13.1222C31.9338 13.0788 32.0143 13.0034 32.0639 12.9084C32.1215 12.8221 32.1639 12.7228 32.2064 12.594L33.7053 8.24037L35.2043 12.594C35.2474 12.6947 35.2906 12.794 35.3475 12.894C35.4043 12.9941 35.49 13.0653 35.5756 13.1085C35.6756 13.1509 35.79 13.1797 35.9469 13.1797C36.1038 13.1797 36.2326 13.1509 36.3182 13.0934C36.4149 13.0551 36.4954 12.9847 36.5463 12.894C36.6039 12.8077 36.6464 12.7228 36.6744 12.6371L38.9728 6.72704C39.088 6.45575 39.1016 6.24131 39.016 6.08444C38.9297 5.92757 38.7735 5.81315 38.5447 5.74191L38.4878 5.78508Z" />
</svg>
