<svg viewBox="0 0 47 23" fill="currentColor" xmlns="http://www.w3.org/2000/svg">
    <path fill-rule="evenodd" clip-rule="evenodd" d="M8.91096 14.3031V20.434H10.1021V13.0915L13.2663 18.6047C13.6245 18.4287 13.9685 18.2279 14.2966 18.0052L10.8321 11.97L14.6477 13.367C14.8214 13.007 14.9571 12.6297 15.0524 12.2412L12.9086 11.4563H19.0281V10.2595H11.7263L17.2076 7.07666C17.0331 6.71776 16.8339 6.37153 16.6115 6.04046L10.6473 9.50381L12.0238 5.69946C11.6669 5.52296 11.2926 5.3847 10.9071 5.28696L10.101 7.51446V1.28296H8.91041V8.62546L5.74619 3.11226C5.38799 3.28826 5.044 3.48901 4.71588 3.71176L8.16611 9.72106L4.37354 8.33286C4.19831 8.69211 4.0612 9.06892 3.96447 9.45706L6.15854 10.2601H-0.0151367V11.4569H7.2851L1.80377 14.6397C1.97877 15 2.17838 15.3459 2.39986 15.6759L8.41111 12.1856L7.01877 16.0323C7.37314 16.205 7.74775 16.342 8.13822 16.4382L8.91096 14.3031Z" />
    <path d="M27.4532 7.26749H22.0265V8.46484H27.4532V7.26749ZM46.2575 7.26749H40.8308V8.46484H46.2575V7.26749ZM33.3567 4.49109H32.0715V14.4494H33.3567V4.49109ZM30.5004 7.26749H29.2152V14.4499H30.5004V7.26749ZM30.5004 5.78359H29.2152V4.49109H30.5004V5.78359ZM27.5964 13.2526H21.8838V14.4494H27.5964V13.2526Z" />
    <path d="M21.8838 13.2526L25.9307 8.46484H27.4532L23.4063 13.2526H21.8838ZM40.6887 13.2526L44.735 8.46484H46.2581L42.2112 13.2526H40.6887ZM36.2131 4.49109H34.9279V14.4494H36.2131V4.49109Z" />
    <path d="M46.4007 13.2526H40.6881V14.4494H46.4007V13.2526ZM39.0693 7.26749H37.7842V14.4499H39.0693V7.26749ZM39.0693 5.78359H37.7842V4.49109H39.0693V5.78359Z" />
</svg>
