<svg viewBox="0 0 1150 900" fill="none" xmlns="http://www.w3.org/2000/svg">
  <rect
    x="0.5"
    y="547.761"
    width="276.105"
    height="286.368"
    fill="#ECFDF5"
    fill-opacity="0.56"
    stroke="#D1FAE5"
  />
  <rect x="482.368" y="-48" width="420.789" height="410.526" fill="#ECFDF5" fill-opacity="0.4" />
  <rect
    x="485.368"
    y="-45"
    width="414.789"
    height="404.526"
    stroke="#D1FAE5"
    stroke-opacity="0.72"
    stroke-width="6"
  />
  <path
    d="M918.553 752.526L1057.11 891.079L918.553 1029.63L780.001 891.079L918.553 752.526Z"
    fill="#ECFDF5"
    fill-opacity="0.4"
  />
  <path
    fill-rule="evenodd"
    clip-rule="evenodd"
    d="M1149.47 891.079L918.554 660.158L687.633 891.079L918.554 1122L1149.47 891.079ZM918.553 726.135L1083.5 891.079L918.553 1056.02L753.61 891.079L918.553 726.135Z"
    fill="#ECFDF5"
    fill-opacity="0.4"
  />
  <path
    d="M1146.65 891.079L918.553 1119.17L690.461 891.079L918.553 662.986L1146.65 891.079ZM917.139 724.721L752.196 889.665L750.781 891.079L752.196 892.493L917.139 1057.44L918.553 1058.85L919.968 1057.44L1084.91 892.493L1086.33 891.079L1084.91 889.665L919.968 724.721L918.553 723.306L917.139 724.721ZM1054.28 891.079L918.553 1026.8L782.829 891.079L918.553 755.354L1054.28 891.079Z"
    stroke="#D1FAE5"
    stroke-opacity="0.72"
    stroke-width="4"
  />
</svg>
