<svg viewBox="0 0 32 32" fill="none" xmlns="http://www.w3.org/2000/svg">
  <path
    d="M15.9988 29C13.7779 28.9998 11.594 28.4306 9.65547 27.3467C7.71697 26.2628 6.08848 24.7003 4.92534 22.8082C3.7622 20.9162 3.10319 18.7577 3.01117 16.5387C2.91914 14.3196 3.39717 12.114 4.39966 10.1321C5.40215 8.15027 6.89567 6.45831 8.73777 5.21761C10.5799 3.9769 12.7091 3.22883 14.9224 3.04474C17.1358 2.86065 19.3594 3.24667 21.3811 4.166C22.3265 4.59589 23.213 5.13568 24.0236 5.77151M28.4167 19.8581C28.2139 20.5115 27.9596 21.1478 27.656 21.7609M26.5914 3.48149V8.2963H21.7766L26.5914 3.48149ZM22.2509 27.4005C21.1949 27.9812 20.0629 28.4111 18.8877 28.6779L22.2509 27.4005ZM26.4715 23.7037C25.8186 24.5896 25.0565 25.3896 24.2033 26.0846L26.4715 23.7037Z"
    stroke="#121212"
    strokeWidth="1.5"
    strokeMiterlimit="10"
    strokeLinecap="round"
    strokeLinejoin="round"
  />
  <path
    d="M15.1866 18.2569C15.9844 18.2569 16.6311 17.6102 16.6311 16.8124C16.6311 16.0147 15.9844 15.368 15.1866 15.368C14.3889 15.368 13.7422 16.0147 13.7422 16.8124C13.7422 17.6102 14.3889 18.2569 15.1866 18.2569Z"
    stroke="#87FCC4"
    strokeWidth="1.5"
    strokeMiterlimit="10"
    strokeLinecap="round"
    strokeLinejoin="round"
  />
  <path
    d="M15.186 7.1828V15.368M16.1302 17.9011L20.9638 21.6272L16.1302 17.9011Z"
    stroke="#121212"
    strokeWidth="1.5"
    strokeMiterlimit="10"
    strokeLinecap="round"
    strokeLinejoin="round"
  />
</svg>
