<svg viewBox="6 6 28 28" fill="none" xmlns="http://www.w3.org/2000/svg">
  <path
    d="M15.2222 27.5926C16.6296 27.5926 19.4444 29 20.8519 29H26.4815C26.8547 29 27.2127 28.8517 27.4767 28.5878C27.7406 28.3238 27.8889 27.9659 27.8889 27.5926C27.8889 27.2193 27.7406 26.8613 27.4767 26.5974C27.2127 26.3335 26.8547 26.1852 26.4815 26.1852H27.1852C27.5585 26.1852 27.9164 26.0369 28.1804 25.773C28.4443 25.509 28.5926 25.151 28.5926 24.7778C28.5926 24.4045 28.4443 24.0465 28.1804 23.7826C27.9164 23.5187 27.5585 23.3704 27.1852 23.3704H27.8889C28.2622 23.3704 28.6201 23.2221 28.8841 22.9581C29.148 22.6942 29.2963 22.3362 29.2963 21.963C29.2963 21.5897 29.148 21.2317 28.8841 20.9678C28.6201 20.7038 28.2622 20.5556 27.8889 20.5556H28.5926C28.9659 20.5556 29.3238 20.4073 29.5878 20.1433C29.8517 19.8794 30 19.5214 30 19.1481C30 18.7749 29.8517 18.4169 29.5878 18.153C29.3238 17.889 28.9659 17.7407 28.5926 17.7407H21.5556C22.0261 15.6626 22.2622 13.5382 22.2593 11.4074C22.2593 11.0341 22.111 10.6762 21.847 10.4122C21.5831 10.1483 21.2251 10 20.8519 10C20.4786 10 20.1206 10.1483 19.8567 10.4122C19.5927 10.6762 19.4444 11.0341 19.4444 11.4074C19.4444 11.4074 18.8111 18.4093 14.5185 19.0778"
    stroke="#121212"
    strokeWidth="2"
    strokeMiterlimit="10"
    strokeLinecap="round"
    strokeLinejoin="round"
  />
  <path
    d="M8.88893 16.3333L14.5186 17.037V28.2963H8.88893V16.3333Z"
    stroke="#121212"
    strokeWidth="2"
    strokeMiterlimit="10"
    strokeLinecap="round"
    strokeLinejoin="round"
  />
</svg>
