<svg xmlns="http://www.w3.org/2000/svg" fill="currentColor" viewBox="0 0 64 20">
  <path d="M60.5932 6.69538C60.2597 5.4375 57.6709 2.552 55.7846 0.221729C55.7472 0.185479 55.636 0 55.4143 0C55.2294 0 55.0814 0.184875 55.1557 0.332896C55.2294 0.480917 57.0419 4.25394 56.709 5.47435C56.3761 6.73223 54.7116 6.47304 54.4525 6.47304C54.305 6.47304 54.4156 6.58421 54.5636 6.73223C55.4886 7.54604 56.0801 8.69275 56.0801 10.1724V11.2822C56.0801 11.3185 56.0801 11.3185 56.1175 11.3185C58.2261 11.1336 61.4439 9.83946 60.5932 6.69538ZM52.4182 13.9822C52.4182 15.0552 50.9755 15.6467 50.0511 15.6467C49.0524 15.6467 47.6465 15.0546 47.6465 13.9822V10.2092C47.6465 9.13681 49.0524 8.6565 50.0511 8.6565C50.9755 8.6565 52.4182 9.17367 52.4182 10.2092V13.9822ZM50.0511 6.28938C47.8314 6.32623 45.2419 7.5841 45.2419 10.173V14.1309C45.2419 16.7572 47.8314 18.015 50.0511 18.015C52.2334 17.9782 54.8222 16.7572 54.8222 14.1309V10.2098C54.8222 7.62096 52.2334 6.32683 50.0511 6.28938ZM35.6991 13.9822C35.6991 15.0552 34.2564 15.6467 33.3314 15.6467C32.3327 15.6467 30.9268 15.0546 30.9268 13.9822V10.2092C30.9268 9.13681 32.3327 8.6565 33.3314 8.6565C34.2558 8.6565 35.6991 9.17367 35.6991 10.2092V13.9822ZM33.2945 6.28877C31.0748 6.32563 28.4854 7.5835 28.4854 10.1724V14.1303C28.4854 16.7566 31.0748 18.0144 33.2945 18.0144C35.4768 17.9776 38.0663 16.7566 38.0663 14.1303V10.2092C38.0663 7.62035 35.4768 6.32563 33.2945 6.28817V6.28877ZM9.17682 6.73223C9.32484 6.58421 9.43661 6.47304 9.28798 6.47304C9.0294 6.47304 7.36432 6.73223 7.03142 5.47435C6.69913 4.21708 8.51163 0.480917 8.58534 0.332896C8.62219 0.184875 8.51102 0 8.2893 0C8.10442 0 7.957 0.221729 7.91955 0.221729C6.07019 2.552 3.44388 5.4375 3.11038 6.69538C2.25971 9.83946 5.55182 11.1342 7.6235 11.3559C7.66036 11.3559 7.66036 11.3191 7.66036 11.3191V10.2092C7.69782 8.69275 8.25244 7.54604 9.17682 6.73223ZM28.338 7.17569C26.5623 6.69477 25.2676 6.5099 23.3445 6.5099C21.4577 6.5099 20.1261 6.69477 18.3505 7.17569C18.2768 7.21315 18.2399 7.28685 18.2768 7.32371C18.8689 7.84208 19.1274 8.50788 19.2386 9.24738C20.1867 9.02178 21.1515 8.87327 22.1235 8.80331V17.9401C22.1235 17.977 22.1604 17.977 22.1978 17.977H24.4912C24.5275 17.977 24.5649 17.977 24.5649 17.9401V8.80271C25.5636 8.87702 26.3774 8.98758 27.3393 9.24677C27.4873 8.50667 27.7827 7.80402 28.4117 7.3231C28.4117 7.2494 28.3754 7.17508 28.338 7.17508V7.17569ZM45.3156 6.39933C45.1314 6.36188 44.6505 6.28817 44.2064 6.32502C42.0241 6.39933 39.5459 7.69406 39.5459 10.2092V18.0138C39.5459 18.0507 39.5827 18.0507 39.6196 18.0507H41.913C41.9498 18.0507 41.9873 18.0507 41.9873 18.0144V10.2086C41.9873 9.35854 43.0228 8.87762 43.8735 8.69215C44.1327 7.87894 44.6136 7.25 45.3537 6.65792C45.4643 6.54735 45.4268 6.39933 45.3156 6.39933ZM15.7985 10.875C15.7985 10.9125 15.7985 10.9125 15.761 10.9493C15.761 10.9862 15.7248 10.9862 15.6873 10.9862H11.3228V10.2092C11.3228 9.13681 12.6169 8.61904 13.6156 8.61904C14.5775 8.61904 15.7985 9.13681 15.7985 10.2092V10.875ZM13.6156 6.21446C11.3597 6.25131 8.88138 7.54604 8.88138 10.1724V14.1671C8.88138 16.8309 11.3597 18.0881 13.6156 18.125C15.2433 18.125 17.0558 17.4592 17.9439 16.0165C17.9801 15.9802 17.9439 15.9059 17.9064 15.869C17.1301 15.425 16.686 15.1664 15.909 14.7592C15.8728 14.7592 15.8728 14.7592 15.8353 14.796C15.4281 15.4993 14.3551 15.869 13.6156 15.869C12.6169 15.869 11.3228 15.2401 11.3228 14.1671V12.9835H17.5735C17.9064 12.9835 18.1656 12.725 18.1656 12.3915V10.2092C18.1656 7.54604 15.8347 6.25192 13.6156 6.21446Z" />
</svg>
