<svg xmlns="http://www.w3.org/2000/svg" fill="currentColor" viewBox="0 0 64 20">
  <path d="M63.58 7.388C63.212 6 60.355 2.816 58.274.245 58.233.205 58.11 0 57.865 0c-.204 0-.367.204-.285.367.081.164 2.081 4.327 1.714 5.674-.367 1.387-2.204 1.102-2.49 1.102-.163 0-.04.122.122.285 1.021.898 1.674 2.164 1.674 3.796v1.225c0 .04 0 .04.041.04 2.327-.204 5.877-1.632 4.939-5.101Zm-9.021 8.041c0 1.183-1.591 1.836-2.612 1.836-1.102 0-2.653-.653-2.653-1.836v-4.164c0-1.183 1.551-1.714 2.653-1.714 1.02 0 2.612.572 2.612 1.714v4.164Zm-2.612-8.49c-2.449.04-5.306 1.429-5.306 4.286v4.367c0 2.898 2.857 4.286 5.306 4.286 2.408-.041 5.265-1.388 5.265-4.286v-4.327c0-2.857-2.857-4.285-5.265-4.326Zm-15.837 8.49c0 1.183-1.591 1.836-2.612 1.836-1.102 0-2.653-.653-2.653-1.836v-4.164c0-1.183 1.551-1.714 2.653-1.714 1.02 0 2.613.572 2.613 1.714v4.164Zm-2.653-8.49c-2.448.04-5.306 1.429-5.306 4.286v4.367c0 2.898 2.858 4.286 5.306 4.286 2.409-.041 5.266-1.388 5.266-4.286v-4.327c0-2.857-2.857-4.285-5.266-4.326Zm-26.611.489c.163-.163.285-.285.122-.285-.286 0-2.122.285-2.49-1.102C4.111 4.653 6.111.53 6.192.367 6.233.204 6.111 0 5.866 0c-.204 0-.367.245-.408.245C3.417 2.816.519 6 .152 7.388c-.939 3.469 2.694 4.898 4.98 5.142.04 0 .04-.04.04-.04v-1.225c.04-1.673.653-2.939 1.674-3.837Zm21.142.49c-1.959-.53-3.387-.734-5.51-.734-2.082 0-3.55.204-5.51.734-.082.041-.122.123-.082.163.653.572.939 1.307 1.061 2.123a19.93 19.93 0 0 1 3.184-.49v10.082c0 .04.04.04.082.04h2.53c.041 0 .082 0 .082-.04V9.714c1.102.082 2 .204 3.061.49.163-.816.49-1.592 1.184-2.123 0-.081-.041-.163-.082-.163Zm18.735-.857a4.873 4.873 0 0 0-1.225-.082c-2.408.082-5.143 1.51-5.143 4.286v8.612c0 .041.041.041.082.041h2.53c.041 0 .082 0 .082-.04v-8.613c0-.939 1.143-1.47 2.082-1.673.285-.898.816-1.592 1.632-2.245.123-.123.082-.286-.04-.286ZM14.152 12c0 .04 0 .04-.041.082 0 .04-.041.04-.082.04H9.213v-.857c0-1.183 1.428-1.755 2.53-1.755 1.062 0 2.409.572 2.409 1.755V12Zm-2.409-5.143c-2.49.041-5.224 1.47-5.224 4.368v4.408c0 2.938 2.735 4.326 5.224 4.367 1.796 0 3.796-.735 4.776-2.326.04-.041 0-.123-.041-.164-.857-.49-1.347-.775-2.204-1.224-.04 0-.04 0-.082.04-.449.776-1.632 1.184-2.449 1.184-1.102 0-2.53-.694-2.53-1.877v-1.306h6.898a.645.645 0 0 0 .653-.653v-2.409c0-2.938-2.572-4.367-5.02-4.408Z"/>
</svg>
