<svg xmlns="http://www.w3.org/2000/svg" fill="currentColor" viewBox="0 0 97 20">
  <path d="M20.0907 12.3255C20.1552 12.3493 20.2196 12.3809 20.2874 12.399C21.1377 12.6297 21.5776 13.3386 21.3808 14.1967C21.3378 14.3833 21.2598 14.5416 21.4079 14.7191C21.7585 15.1386 21.7065 15.6225 21.6137 16.1121C21.5866 16.2534 21.5301 16.4151 21.5708 16.5406C21.8512 17.3999 21.5075 18.033 20.6493 18.5441C19.6079 19.1648 18.4704 19.5379 17.281 19.7674C16.2611 19.9642 15.2423 20.101 14.2066 19.876C13.6277 19.7505 13.1019 19.5323 12.6338 19.1614C12.5061 19.0608 12.3059 19.0133 12.1375 19.011C11.277 18.9952 10.4166 18.9986 9.55612 19.0043C9.41592 19.0043 9.23162 19.0031 9.14229 19.0834C8.1439 19.9777 6.92955 20.075 5.69597 19.963C4.11528 19.8194 2.59111 19.4169 1.19246 18.6357C0.949362 18.5 0.722094 18.3259 0.514049 18.1404C0.0651671 17.7413 -0.0501626 17.2348 0.0730819 16.657C0.105872 16.5021 0.122832 16.3291 0.0889115 16.1765C-0.0286796 15.6485 -0.0761683 15.1408 0.293565 14.6773C0.353491 14.6026 0.374974 14.4681 0.361406 14.3686C0.18615 13.1113 0.440554 12.6805 1.64247 12.3029C0.68252 8.4214 1.5441 5.02947 4.59129 2.33514C6.61748 0.544192 9.05297 -0.186206 11.7395 0.0399237C17.0503 0.48879 21.7845 5.65019 20.0907 12.3255ZM11.796 18.0104C11.7451 17.7798 11.7191 17.6147 11.6716 17.4564C11.4591 16.752 11.6626 16.1222 12.0323 15.532C12.1804 15.2946 12.3636 15.0764 12.5536 14.8706C13.1596 14.2148 13.63 13.4799 13.9466 12.6444C14.0189 12.4544 14.1196 12.2679 14.2417 12.105C14.772 11.3984 15.542 11.2774 16.2735 11.7715C16.3764 11.8416 16.4793 11.9128 16.589 11.9886C17.3228 11.1723 18.1278 10.7358 19.1715 11.3848C19.981 7.87078 18.3743 4.17583 15.3396 2.33287C12.0674 0.345198 8.12242 0.757884 5.35337 3.06892C2.52327 5.43084 1.86295 9.08509 2.59111 11.3498C3.6336 10.7279 4.40247 11.2378 5.09219 11.9728C5.15098 11.9524 5.19056 11.949 5.21882 11.9287C6.25114 11.1666 7.22126 11.4052 7.70407 12.5777C8.07267 13.4743 8.56904 14.2702 9.22936 14.9837C9.92586 15.7356 10.2956 16.6107 9.97561 17.661C9.94508 17.7617 9.9349 17.8691 9.9089 18.0138H11.7971L11.796 18.0104ZM17.5071 16.5779L17.3465 16.4852C17.3805 16.3438 17.3759 16.1731 17.4573 16.068C17.5795 15.9085 17.7491 15.7751 17.9209 15.6655C18.5055 15.2912 19.107 14.9418 19.6882 14.5608C19.92 14.4082 20.1371 14.2171 20.3146 14.0045C20.3892 13.9152 20.3982 13.6959 20.3383 13.5941C20.2818 13.4991 20.0828 13.4234 19.9652 13.4449C19.7311 13.4867 19.479 13.5568 19.2879 13.6902C18.6593 14.1312 18.0555 14.6083 17.4381 15.0662C17.2289 15.2211 17.0141 15.3749 16.7846 15.4959C16.6998 15.5411 16.5652 15.4913 16.3052 15.4778C16.5698 15.142 16.7371 14.9023 16.9304 14.6874C17.3714 14.2001 17.8429 13.7388 18.2635 13.2346C18.4207 13.0469 18.5292 12.7767 18.5541 12.5324C18.5937 12.1458 18.3054 11.9762 17.9729 12.1831C17.7389 12.3278 17.5127 12.5234 17.3567 12.7473C16.8841 13.4234 16.4431 14.121 15.9988 14.8152C15.8405 15.0628 15.6743 15.2822 15.3441 15.2731C14.9913 15.2629 14.8387 14.9803 15.0433 14.692C15.1496 14.5427 15.309 14.4297 15.4447 14.3008C15.8303 13.9322 15.9761 13.4765 15.8461 12.9689C15.8032 12.8004 15.6313 12.5991 15.4741 12.5494C15.3633 12.5143 15.1643 12.6907 15.032 12.8038C14.954 12.8705 14.9291 12.9994 14.8771 13.0989C14.6261 13.5783 14.4101 14.0825 14.1116 14.5314C13.8233 14.9656 13.4468 15.3421 13.1133 15.7469C12.5038 16.4852 12.4835 17.1624 13.0058 17.9618C13.353 18.4943 13.8719 18.7035 14.4576 18.8324C15.0773 18.9692 15.6923 18.9059 16.3074 18.829C17.6032 18.6673 18.8436 18.3112 19.998 17.695C20.2083 17.583 20.3983 17.4134 20.5588 17.2359C20.6244 17.1647 20.638 16.9714 20.5859 16.8888C20.5328 16.804 20.3609 16.7283 20.2614 16.7486C20.0432 16.7904 19.8329 16.8843 19.6294 16.977C19.237 17.1556 18.8515 17.3479 18.4636 17.5344C18.294 17.6158 18.0962 17.6441 18.0464 17.4349C18.0182 17.3173 18.1199 17.0969 18.2285 17.0324C18.5326 16.8515 18.8718 16.7317 19.1941 16.5813C19.6181 16.3823 20.0557 16.2048 20.4514 15.9594C20.5871 15.8758 20.699 15.6055 20.6741 15.4427C20.6334 15.1759 20.3564 15.2234 20.1597 15.2618C19.9607 15.3003 19.7605 15.3726 19.5796 15.4653C19.1952 15.6621 18.8243 15.8837 18.4444 16.0894C18.1346 16.2568 17.8214 16.4151 17.5094 16.5779H17.5071ZM5.36129 15.4732C5.12498 15.4913 4.99042 15.5433 4.90562 15.4992C4.67496 15.3794 4.46013 15.2279 4.25096 15.0719C3.6336 14.614 3.02982 14.1368 2.40116 13.6947C2.21007 13.5602 1.96019 13.4878 1.72614 13.4449C1.60855 13.4234 1.40955 13.4969 1.35189 13.5918C1.2897 13.6936 1.29761 13.9107 1.36998 14.0045C1.52827 14.2081 1.7284 14.3912 1.94436 14.5348C2.36611 14.8141 2.81725 15.0504 3.24352 15.3229C3.55898 15.5253 3.86652 15.7423 4.15259 15.9832C4.32219 16.1256 4.47144 16.3246 4.17068 16.5813C3.88462 16.4366 3.58499 16.293 3.29214 16.1358C2.81273 15.8791 2.34915 15.592 1.8573 15.3613C1.41633 15.1544 1.08278 15.2109 0.997981 15.4337C0.908657 15.6688 1.07487 15.93 1.50792 16.1448C1.91044 16.345 2.33558 16.4965 2.74263 16.6864C3.02982 16.8198 3.31362 16.968 3.57368 17.1443C3.64039 17.1896 3.6517 17.3852 3.61551 17.4847C3.59403 17.5435 3.41199 17.5966 3.32945 17.5706C3.08183 17.4892 2.84552 17.3705 2.60694 17.2619C2.23156 17.0923 1.86408 16.9013 1.47739 16.7611C1.3745 16.7237 1.1608 16.7995 1.10087 16.8911C1.04208 16.9815 1.06469 17.1997 1.14045 17.2857C1.28404 17.4507 1.47287 17.5989 1.673 17.6882C2.25417 17.9482 2.83421 18.223 3.44139 18.4073C4.66592 18.7804 5.91193 19.0314 7.20883 18.8347C8.07493 18.7035 8.64253 18.2286 8.94782 17.4247C9.23727 16.6627 8.88789 16.0838 8.39378 15.549C8.35534 15.5072 8.31577 15.4676 8.27506 15.428C7.62266 14.8084 7.20317 14.0362 6.8357 13.23C6.78934 13.1283 6.76221 13.0175 6.71359 12.9169C6.60391 12.6885 6.46823 12.4646 6.16747 12.537C5.8848 12.6048 5.82374 12.8524 5.79886 13.1068C5.75477 13.5636 5.88593 13.9593 6.21835 14.2804C6.31219 14.372 6.423 14.4466 6.51459 14.5405C6.76447 14.7949 6.79839 15.0119 6.62426 15.1725C6.44448 15.3376 6.09736 15.333 5.90515 15.1329C5.77738 15.0006 5.68693 14.8299 5.58403 14.6739C5.15324 14.0158 4.73941 13.3442 4.28601 12.702C4.12884 12.4793 3.89818 12.2871 3.66074 12.1503C3.37807 11.9863 3.1508 12.1469 3.11688 12.4759C3.08296 12.8049 3.24126 13.0571 3.44704 13.2821C3.91628 13.7942 4.39908 14.294 4.86605 14.8084C5.02321 14.9814 5.14646 15.1838 5.3579 15.471L5.36129 15.4732Z" />
  <path d="M26.8825 6.24913H28.9698V9.04296H31.2176V6.25931H33.3297V13.9816H31.2481V11.0137H29.0048V13.9748H26.8825V6.24913Z" />
  <path d="M42.1772 13.8133C41.5282 12.8839 41.5554 12.4655 42.3446 11.6074C42.2609 11.5237 42.1784 11.4344 42.0879 11.353C41.3507 10.6859 41.3451 8.9413 42.5402 8.2957C43.1745 7.95312 43.8348 7.83214 44.5449 7.88415C45.2719 7.93729 46.0012 7.9746 46.7294 8.01417C46.9159 8.02435 47.1025 8.0153 47.3388 8.0153V9.50097C47.1093 9.53941 46.8764 9.57899 46.6525 9.6163C46.3698 11.812 46.1007 12.0246 43.5239 12.1195C43.3927 12.5379 43.4085 12.608 43.7749 12.6419C44.4103 12.6996 45.0503 12.7052 45.6869 12.7493C45.9277 12.7663 46.1742 12.8036 46.4026 12.8793C47.427 13.2185 47.7854 14.2757 47.1986 15.1904C46.8571 15.7218 46.3415 16.044 45.7683 16.2317C44.7495 16.5652 43.7014 16.5958 42.6623 16.3154C42.3977 16.2441 42.1354 16.1062 41.9138 15.9434C41.3066 15.4968 41.2501 14.7291 41.7634 14.1773C41.8889 14.0428 42.0393 13.932 42.1772 13.811V13.8133ZM44.2995 15.1712C44.5664 15.1146 44.8637 15.0751 45.1453 14.9846C45.3239 14.9281 45.5116 14.7777 45.411 14.5674C45.3567 14.4543 45.1566 14.3605 45.0141 14.3481C44.5664 14.3085 44.1141 14.3198 43.6652 14.2927C43.4673 14.2802 43.283 14.2519 43.2186 14.5007C43.1519 14.7585 43.2333 14.9586 43.4945 15.0298C43.7444 15.0977 44.0056 15.1214 44.3007 15.1712H44.2995ZM43.5544 9.94871C43.551 10.5423 43.7432 10.8148 44.0994 10.8476C44.4974 10.8826 44.7473 10.6169 44.771 10.1319C44.7948 9.63778 44.5404 9.25901 44.165 9.29406C44.001 9.30876 43.8088 9.4173 43.7037 9.54507C43.5951 9.67735 43.577 9.88313 43.5544 9.94984V9.94871Z" />
  <path d="M53.9047 8.01517V9.50423C53.6447 9.54041 53.3959 9.57433 53.1234 9.61164C53.1325 9.78237 53.1438 9.92709 53.1472 10.0729C53.1675 11.0069 52.6881 11.7146 51.7892 11.9724C51.4014 12.0844 50.9785 12.0821 50.5715 12.1205C50.4426 12.133 50.3047 12.081 50.1803 12.107C50.091 12.1251 49.9508 12.2246 49.9519 12.2856C49.953 12.393 50.0231 12.5683 50.1034 12.5943C50.3137 12.661 50.5444 12.6757 50.7671 12.6881C51.2544 12.7153 51.7429 12.7243 52.2302 12.7503C52.3975 12.7594 52.566 12.7842 52.7277 12.8249C53.2998 12.9708 53.7973 13.2241 53.9375 13.8595C54.097 14.5797 53.8878 15.1914 53.3111 15.6663C52.678 16.1875 51.9272 16.4306 51.1289 16.4668C50.5342 16.4939 49.9293 16.4385 49.3402 16.3503C49.0383 16.3051 48.7341 16.1445 48.4775 15.9693C47.8364 15.5328 47.7708 14.7301 48.3045 14.1704C48.4311 14.0381 48.5826 13.9296 48.7217 13.8109C48.041 12.9708 48.1258 12.4371 48.8506 11.6038C48.768 11.5134 48.681 11.4207 48.5962 11.3268C47.755 10.3918 48.0071 8.90273 49.1027 8.28426C49.7303 7.93037 50.3996 7.83201 51.1108 7.88967C51.8005 7.9462 52.4914 7.97899 53.1822 8.01517C53.4039 8.02648 53.6255 8.01743 53.9047 8.01743V8.01517ZM50.0491 10.0729C50.0672 10.0786 50.0853 10.0843 50.1034 10.0899C50.1034 10.1464 50.0977 10.203 50.1034 10.2584C50.143 10.6111 50.308 10.8045 50.5986 10.8452C50.9356 10.8915 51.1798 10.7547 51.2454 10.3816C51.2906 10.1238 51.2703 9.81742 51.1685 9.57885C51.0034 9.18878 50.4935 9.16278 50.2538 9.51328C50.1441 9.6727 50.1147 9.88526 50.0491 10.0741V10.0729ZM50.7818 14.3434C50.5704 14.3287 50.3804 14.3298 50.1972 14.297C49.9609 14.2552 49.7823 14.2869 49.7291 14.5526C49.6805 14.7957 49.7981 14.9664 50.0197 15.0274C50.5907 15.1835 51.1708 15.2242 51.7191 14.9585C51.8345 14.9031 51.9272 14.7029 51.9328 14.565C51.9362 14.4949 51.7259 14.3671 51.6027 14.3524C51.3245 14.3197 51.0407 14.3423 50.7818 14.3423V14.3434Z" />
  <path d="M70.8367 9.50908C70.5766 9.54187 70.3403 9.57127 70.069 9.60519C70.0757 9.76348 70.0848 9.90707 70.0893 10.0507C70.1142 11.0162 69.6291 11.7218 68.6929 11.9784C68.3028 12.0858 67.8811 12.0779 67.4729 12.1152C67.3802 12.1243 67.2852 12.1073 67.1914 12.096C67.0139 12.0756 66.8623 12.1469 66.8838 12.3233C66.8974 12.4352 67.0274 12.5799 67.1394 12.6206C67.3101 12.6839 67.5091 12.6783 67.6957 12.6873C68.1841 12.7111 68.6737 12.7156 69.161 12.7495C69.4019 12.7665 69.6495 12.8027 69.8779 12.8784C70.9079 13.2221 71.2596 14.2793 70.6637 15.1985C70.3188 15.7299 69.8021 16.0453 69.2266 16.2342C68.2237 16.5632 67.1925 16.5881 66.1692 16.328C65.9035 16.2602 65.6412 16.1234 65.4139 15.9651C64.7774 15.5207 64.7129 14.7202 65.2511 14.1606C65.3676 14.0396 65.5078 13.9435 65.6706 13.8067C64.9707 13.048 65.0646 12.3108 65.8131 11.6189C65.7023 11.5001 65.6129 11.4086 65.527 11.3125C64.7073 10.3932 64.9492 8.91549 66.0121 8.29816C66.6373 7.93522 67.3067 7.82894 68.019 7.88095C68.7472 7.93522 69.4776 7.9714 70.2069 8.01097C70.3935 8.02115 70.58 8.01211 70.8367 8.01211V9.50908ZM66.9901 10.0541C67.0399 10.5662 67.2162 10.8184 67.5803 10.8478C67.9727 10.8794 68.2305 10.6058 68.2587 10.1275C68.287 9.65606 68.0122 9.26373 67.638 9.292C67.4876 9.3033 67.2999 9.38697 67.2117 9.5023C67.0953 9.6538 67.0602 9.8675 66.9901 10.0541ZM67.7058 15.1725C67.9953 15.1182 68.2994 15.0967 68.5731 14.9927C68.7144 14.9396 68.8817 14.7428 68.8897 14.6026C68.9021 14.3765 68.6714 14.3415 68.4724 14.3369C68.0224 14.3256 67.5713 14.3234 67.1213 14.2928C66.9144 14.2793 66.747 14.2748 66.6803 14.5156C66.6136 14.7564 66.7041 14.9373 66.9257 15.0097C67.171 15.09 67.4322 15.1182 67.7047 15.1725H67.7058Z" fill="#71717A"/>
  <path d="M58.3031 8.04342H59.9765C60.0432 8.25825 60.1031 8.45046 60.1732 8.67545C60.344 8.55108 60.4966 8.45046 60.6368 8.33513C61.0993 7.95297 61.6499 7.85574 62.2232 7.86704C63.0972 7.88513 63.727 8.49116 63.8706 9.49291C63.9475 10.0288 63.9633 10.5761 63.9723 11.1188C63.9882 12.0538 63.9769 12.9889 63.9769 13.9703H61.8704C61.858 13.8278 61.8342 13.6673 61.8331 13.5067C61.8297 12.6248 61.8308 11.7429 61.8308 10.861C61.8308 10.7106 61.8342 10.5602 61.8274 10.411C61.8037 9.88638 61.6431 9.69191 61.2406 9.69304C60.7386 9.69417 60.3903 9.99266 60.3881 10.4438C60.3813 11.4003 60.3858 12.358 60.3858 13.3145C60.3858 13.518 60.3858 13.7227 60.3858 13.9714H58.3031V8.04342Z" />
  <path d="M34.8098 8.04916H36.9004C36.9004 8.5082 36.8981 8.93445 36.9004 9.36184C36.9061 10.1499 36.9004 10.938 36.9332 11.7249C36.9434 11.9725 36.9841 12.2574 37.3391 12.3173C37.693 12.3773 38.0763 12.2665 38.2267 11.9759C38.307 11.8199 38.3251 11.6197 38.3273 11.4388C38.3364 10.5004 38.3307 9.56309 38.333 8.62465C38.333 8.44149 38.3488 8.25832 38.359 8.04802H40.3829V13.9783H38.731C38.671 13.7736 38.61 13.5633 38.5365 13.3089C38.394 13.4322 38.2742 13.5373 38.1532 13.6425C37.5822 14.1377 36.9061 14.2372 36.1937 14.1151C35.4339 13.985 34.8821 13.232 34.8414 12.2597C34.8052 11.3789 34.8177 10.497 34.812 9.6151C34.8086 9.11083 34.812 8.60656 34.812 8.05142L34.8098 8.04916Z" />
  <path d="M74.3871 6.24812H79.4288V8.00062H76.4766V9.38905H78.9867V11.171H76.4483V13.9806H74.3871V6.24812Z" />
  <path d="M83.0752 10.1014C82.9757 9.65709 82.6886 9.55873 82.3799 9.58247C82.0294 9.60848 81.6811 9.69667 81.3374 9.78033C81.161 9.8233 80.997 9.91714 80.7777 10.0087C80.5335 9.56664 80.3039 9.1483 80.0495 8.68587C81.1746 7.99052 82.312 7.66942 83.5682 7.98035C84.4366 8.1963 84.9601 8.78537 85.115 9.65257C85.3694 11.0794 85.1806 12.5176 85.2337 13.9829H83.5366C83.4744 13.8371 83.4099 13.6878 83.3376 13.5171C83.0945 13.663 82.8638 13.8247 82.6139 13.9456C81.9299 14.2758 80.7935 14.2995 80.1931 13.4165C79.5588 12.4848 79.8211 11.2117 80.841 10.7312C81.4244 10.4576 82.0848 10.3445 82.7123 10.1636C82.8163 10.1342 82.926 10.1252 83.0752 10.0992V10.1014ZM82.9984 11.3779C82.7033 11.4933 82.3923 11.5668 82.1436 11.733C82.0124 11.8212 81.9253 12.0767 81.9378 12.2485C81.9559 12.4939 82.1978 12.5267 82.4138 12.5233C82.9904 12.5142 83.1815 12.1739 82.9972 11.3779H82.9984Z" />
  <path d="M96.9748 11.639H93.6302C93.7806 12.5797 94.5721 12.7618 96.1426 12.236C96.3585 12.6329 96.5779 13.0376 96.8074 13.4594C96.1923 13.9037 95.5603 14.1072 94.8751 14.1581C93.2661 14.2802 91.9647 13.4503 91.6131 11.9895C91.2105 10.3173 91.7431 8.8226 93.2333 8.1363C94.7089 7.45791 96.6559 7.97687 96.9657 10.1556C97.0302 10.6124 96.9748 11.0862 96.9748 11.639ZM95.151 10.2743C95.0899 9.64571 94.9599 9.5089 94.4793 9.49533C93.9411 9.4795 93.6992 9.67963 93.6076 10.2359C93.7161 10.2483 93.8247 10.271 93.9321 10.2721C94.3244 10.2766 94.7179 10.2743 95.1521 10.2743H95.151Z" />
  <path d="M91.2523 13.4422C90.047 14.4892 88.0695 14.3592 86.9885 13.25C85.9698 12.2031 85.9415 9.91576 87.0281 8.8179C88.0887 7.74605 90.2528 7.50522 91.1879 8.54881C90.8916 8.96037 90.5897 9.38097 90.3003 9.78348C90.2291 9.78913 90.1872 9.80609 90.159 9.79365C89.199 9.34026 88.4234 9.81287 88.3894 10.8768C88.3838 11.0634 88.377 11.2544 88.4075 11.4376C88.55 12.3037 89.3008 12.6802 90.0923 12.2912C90.2065 12.2347 90.3229 12.1816 90.471 12.1103C90.7356 12.5626 90.9889 12.9934 91.2512 13.4434L91.2523 13.4422Z" />
  <path d="M54.8692 8.03792H56.9169V13.9716H54.8692V8.03792Z" />
  <path d="M57.0209 6.27414C57.0073 6.93217 56.5935 7.28833 55.8868 7.33016C55.2299 7.3686 54.7132 6.8519 54.7222 6.2323C54.7313 5.64889 55.248 5.20228 55.9004 5.21246C56.5664 5.22264 57.0288 5.66133 57.0209 6.27527V6.27414Z" />
  <path d="M10.8381 13.1336C8.9114 13.1076 7.81577 11.7429 7.662 9.98926C7.62468 9.55848 7.84969 9.40923 8.26126 9.5777C8.73049 9.76878 9.18277 9.9983 9.652 10.1894C10.4717 10.5241 11.3017 10.5241 12.1214 10.1916C12.5726 10.0085 13.009 9.78687 13.4579 9.59805C13.9497 9.39114 14.1397 9.51552 14.1035 10.039C13.9927 11.6321 12.9185 13.172 10.8381 13.1347V13.1336Z" fill="#71717A"/>
  <path d="M7.84295 5.43518C8.65704 5.45327 9.28457 6.36344 9.01208 7.1074C8.92163 7.35275 8.77577 7.45677 8.5485 7.35049C8.15615 7.16846 7.88931 7.2623 7.64056 7.61167C7.42912 7.9079 7.26744 7.89659 6.98929 7.66481C6.60485 7.34484 6.46804 6.73316 6.66704 6.23002C6.86265 5.73593 7.3251 5.42387 7.84295 5.43518Z" fill="#71717A"/>
  <path d="M15.2851 6.71608C15.1822 6.96934 15.1189 7.24748 14.9696 7.47022C14.6655 7.927 14.4167 7.93379 14.0707 7.50301C13.8751 7.25992 13.6727 7.21356 13.3844 7.29836C12.9197 7.43517 12.749 7.30062 12.7094 6.81105C12.6574 6.16432 13.2702 5.47124 13.9249 5.43506C14.6304 5.39662 15.2093 5.95742 15.284 6.71608H15.2851Z" fill="#71717A"/>
  <path d="M5.19603 6.75337C5.66074 6.76242 6.00786 7.12196 5.99317 7.58101C5.9796 8.02761 5.59403 8.39168 5.15081 8.37698C4.71775 8.36341 4.33332 7.96203 4.34463 7.53578C4.35594 7.08917 4.73132 6.74546 5.1949 6.75337H5.19603Z" />
  <path d="M17.4311 7.5451C17.4391 7.97135 17.0467 8.3716 16.6125 8.37839C16.1806 8.38517 15.7747 7.99849 15.7645 7.57337C15.7543 7.13581 16.1286 6.76382 16.5854 6.75704C17.0512 6.75026 17.4232 7.09736 17.4311 7.54623V7.5451Z" />
</svg>
