<svg xmlns="http://www.w3.org/2000/svg" fill="currentColor" viewBox="0 0 92 20">
  <path d="M74.358 17.752H64.21a.607.607 0 0 1-.632-.632v-.36c.263-.068.51-.121.744-.2.332-.112.464-.303.362-.629-.25-.78-.537-1.55-.82-2.32-.016-.047-.118-.09-.178-.09-1.106-.006-2.212 0-3.315-.006-.148 0-.177.079-.207.184-.184.636-.365 1.271-.556 1.903-.234.77-.583 1.468-1.261 1.959-1.221.889-2.89.737-3.973-.313-.853-.826-1.39-1.837-1.847-2.904-.201-.467-.438-.918-.646-1.385-.118-.26-.312-.415-.582-.455-.32-.046-.645-.062-.968-.092-.02.072-.033.102-.033.132.01 1.149-.007 2.298.036 3.447.026.665.063.566.622.69.102.024.211.05.317.044.316-.023.513.184.638.404.086.149.036.382.026.573 0 .02-.144.05-.224.05h-15.39c-.418 0-.668-.247-.668-.665v-.323c.191-.03.375-.056.56-.089.688-.115.931-.335.951-1.033.033-1.172.02-2.344.017-3.516 0-.692-.014-1.386-.017-2.078 0-.556 0-1.109-.05-1.682-.045.096-.095.191-.138.287l-3.848 8.743c-.118.27-.487.346-.688.119a2.242 2.242 0 0 1-.401-.593c-1.176-2.811-2.338-5.63-3.503-8.447a.622.622 0 0 0-.142-.224c-.023.356-.046.708-.062 1.063-.076 1.541-.161 3.085-.214 4.626-.027.72.01 1.445.033 2.166.01.342.066.401.398.48.237.056.477.096.718.126.44.055.757.543.589.954-.02.046-.135.08-.204.08-.58.006-1.159.002-1.738.002h-2.423a.612.612 0 0 1-.583-.589v-.398c.287-.066.556-.109.817-.191.447-.138.724-.454.79-.915a36.49 36.49 0 0 0 .266-2.15c.158-1.926.303-3.852.435-5.78.026-.38-.007-.758-.023-1.14-.01-.21-.102-.355-.336-.388-.227-.03-.448-.08-.675-.112-.431-.066-.639-.303-.639-.738v-.319h.264c.997 0 1.998.02 2.995-.01.432-.013.659.208.807.534.711 1.537 1.406 3.084 2.107 4.628l1.452 3.197c.023.052.052.105.092.19.056-.108.105-.194.145-.283 1.228-2.656 2.459-5.313 3.677-7.973.102-.22.214-.296.454-.286.48.02.962.006 1.442.006.247 0 .553.303.556.55.02 1.096.033 2.19.06 3.286.05 1.922.105 3.848.158 5.77.01.303.01.61.023.912.052 1.07.98 1.564 1.919 1.024.517-.296.797-.754.797-1.35.006-2.696.003-5.389 0-8.085 0-.24-.033-.487-.08-.724a.328.328 0 0 0-.197-.204 8.21 8.21 0 0 0-.853-.138c-.22-.03-.523-.343-.526-.567v-.464c.085-.006.151-.013.22-.013h5.054c.293 0 .595.296.595.586v.431c-.296.04-.57.07-.836.119-.477.085-.684.303-.754.783a4.109 4.109 0 0 0-.046.567v8.039c0 .105 0 .214.02.319.125.76.701.961 1.36.876.79-.102 1.33-.758 1.33-1.554V7.77c0-.823.003-1.642.006-2.465V5.08c.099-.007.178-.013.257-.013 1.28 0 2.561-.004 3.842.01.671.006 1.353.046 1.972.322 1.142.51 2.027 1.294 2.274 2.578.3 1.557-.349 2.805-1.76 3.535-.175.093-.353.175-.547.27.03.066.056.126.089.181.773 1.353 1.547 2.71 2.324 4.063.158.276.447.3.717.3.49.003.85-.264 1.027-.725 1.34-3.434 2.68-6.87 4.01-10.307.096-.25.217-.402.49-.412.037 0 .073-.023.11-.03.13-.022.315-.111.388-.055.174.135.352.312.428.513 1.26 3.375 2.505 6.752 3.753 10.13.072.197.158.395.253.586.323.652.961.902 1.66.655.664-.237 1.05-.807 1.053-1.574v-5.87c0-.776.013-1.553-.023-2.327-.033-.76-.04-.685-.754-.803-.214-.036-.448.016-.635-.184-.159-.168-.257-.326-.224-.56.013-.102 0-.207 0-.326.088-.003.158-.01.224-.01h4.918c.28 0 .576.296.576.573v.444c-.257.04-.504.066-.747.112-.494.096-.738.326-.758.827-.04 1.004-.04 2.008-.052 3.012v.648c.168-.112.306-.178.408-.28.74-.72 1.488-1.438 2.209-2.182.444-.458.852-.955 1.267-1.442.138-.165.247-.356.395-.58-.448-.082-.922-.022-1.122-.467-.083-.184-.037-.428-.053-.658.105-.007.181-.013.253-.013h4.415c.287 0 .586.302.586.592v.421c-.375.066-.72.11-1.06.185-.806.184-1.452.658-2.034 1.215-1.001.96-1.982 1.939-2.97 2.91-.02.02-.036.046-.066.089.432.563.846 1.132 1.29 1.682a252.14 252.14 0 0 0 3.05 3.703c.605.718 1.388 1.064 2.333.89.655-.123 1.152-.738 1.172-1.403.017-.547.01-1.096.01-1.643V5.035c.089-.004.161-.013.234-.013h3.407c.273 0 .58.302.583.572v.448c-.28.036-.53.063-.777.105-.58.102-.8.34-.853.925a8.669 8.669 0 0 0-.036.774c0 2.436-.003 4.872 0 7.308 0 .35.046.698.069 1.044.01.168.102.26.267.286.85.135 1.698.152 2.544-.026.53-.112.896-.448 1.15-.902.24-.431.447-.879.654-1.327.063-.138.119-.194.27-.131.149.059.326.062.451.151.237.168.409.356.313.718-.22.846-.388 1.702-.57 2.558-.036.17-.115.223-.292.223-4.04-.006-8.082 0-12.122-.01a.474.474 0 0 1-.332-.141 91.991 91.991 0 0 1-1.768-2.153c-.892-1.13-1.768-2.271-2.653-3.407-.056-.073-.112-.155-.191-.191-.112-.05-.244-.063-.365-.092-.02.105-.06.207-.06.312v3.585c0 .129.013.257.03.386.069.52.085.54.602.625.112.02.228.056.34.043.325-.036.533.168.664.395.093.158.053.392.076.638l-.01.014Zm-24.07-6.403c.365-.023.7-.03 1.03-.063 1.013-.102 1.754-.724 2.03-1.702.188-.658.178-1.32.034-1.985-.149-.688-.517-1.182-1.238-1.326a4.016 4.016 0 0 0-.971-.093c-.754.03-.89.188-.89.948v4.224l.004-.003ZM62.104 8.55c-.02 0-.042 0-.062.003-.445 1.198-.886 2.396-1.337 3.611h2.67c-.428-1.221-.85-2.42-1.267-3.614h-.004ZM10.47 19.997c-.563-.037-1.126-.046-1.686-.116-.862-.108-1.557-.579-2.222-1.102-2.212-1.738-3.851-3.921-5.043-6.453A16.437 16.437 0 0 1 .028 6.951c-.046-.458-.023-.926-.013-1.386a.899.899 0 0 1 .115-.412c.497-.843.977-1.699 1.52-2.515.356-.533.89-.886 1.479-1.152C4.837.706 6.629.255 8.495.083c2.482-.227 4.915 0 7.278.8.81.277 1.594.642 2.364 1.018.28.138.546.385.714.648.455.718.88 1.462 1.265 2.219.408.8.434 1.662.316 2.541-.534 3.869-2.213 7.174-4.899 9.991a14.903 14.903 0 0 1-2.844 2.315c-.376.24-.78.365-1.232.352-.325-.01-.655 0-.984 0V20l-.003-.003Zm4.958-13.718c-.037-.033-.102-.119-.188-.151-1.33-.554-2.706-.919-4.145-1.034-2.034-.161-3.993.125-5.85 1.004-.141.066-.19.141-.167.293.273 1.968.882 3.815 1.965 5.494.8 1.241 1.79 2.305 3.015 3.14.116.08.204.123.34.017 1.797-1.389 3.219-3.071 4.134-5.162.49-1.122.794-2.294.892-3.601h.004Zm3.552-.188c-.83 3.14-2.417 5.873-4.474 8.359 2.235-2.387 3.802-5.133 4.474-8.359ZM12.6 2.875c-1.728-.803-8.233-.573-9.313.306 3.061-.846 6.15-.843 9.313-.306Zm-4.533 14.9c-1.989-2.137-3.4-4.616-4.435-7.325.185 1.712 3.069 6.485 4.435 7.325Z"/>
</svg>
