<svg xmlns="http://www.w3.org/2000/svg" fill="currentColor" viewBox="0 0 92 20">
  <path d="M74.3345 16.7518C74.1996 16.7518 74.1074 16.7518 74.0186 16.7518C70.7408 16.7518 67.463 16.7518 64.1885 16.7518C63.8167 16.7518 63.5567 16.4885 63.5567 16.1197C63.5567 15.9979 63.5567 15.8794 63.5567 15.7609C63.8199 15.6918 64.0668 15.6391 64.3004 15.5601C64.6328 15.4482 64.7644 15.2572 64.6624 14.9313C64.4123 14.1511 64.126 13.3807 63.843 12.6104C63.8265 12.5643 63.7245 12.5215 63.6653 12.5215C62.5595 12.5149 61.4538 12.5215 60.3513 12.5149C60.2032 12.5149 60.1736 12.5939 60.144 12.6993C59.9597 13.3346 59.7787 13.97 59.5878 14.6021C59.3541 15.3724 59.0053 16.0704 58.3274 16.5609C57.1064 17.4497 55.4379 17.2983 54.3552 16.2481C53.5028 15.4218 52.9664 14.4111 52.509 13.3445C52.3082 12.877 52.0713 12.426 51.8639 11.9586C51.7455 11.6985 51.5513 11.5437 51.2814 11.5042C50.9622 11.4582 50.6364 11.4417 50.3139 11.4121C50.2942 11.4845 50.281 11.5141 50.281 11.5437C50.2909 12.6927 50.2744 13.8416 50.3172 14.9906C50.3435 15.6556 50.3797 15.5568 50.9392 15.6819C51.0412 15.7049 51.1498 15.7313 51.2551 15.7247C51.571 15.7016 51.7685 15.909 51.8936 16.1296C51.9791 16.2778 51.9298 16.5115 51.9199 16.7024C51.9199 16.7222 51.7751 16.7518 51.6961 16.7518C49.7215 16.7518 47.747 16.7518 45.7757 16.7518C42.6197 16.7518 39.4669 16.7518 36.3109 16.7518C35.893 16.7518 35.6429 16.5049 35.6429 16.0868C35.6429 15.9881 35.6429 15.8893 35.6429 15.7642C35.8337 15.7346 36.018 15.7082 36.2023 15.6753C36.8901 15.5601 37.1337 15.3395 37.1534 14.6416C37.1863 13.4696 37.1732 12.2976 37.1699 11.1257C37.1699 10.4343 37.1567 9.73969 37.1534 9.04835C37.1534 8.49199 37.1534 7.93892 37.104 7.3661C37.058 7.46157 37.0086 7.55704 36.9658 7.65251C35.6824 10.566 34.3989 13.4828 33.1187 16.3963C33.0002 16.6662 32.6316 16.7419 32.4309 16.5148C32.2729 16.337 32.1216 16.1395 32.0294 15.9222C30.8545 13.1108 29.6928 10.2928 28.5278 7.47474C28.4949 7.39902 28.462 7.32331 28.3863 7.25088C28.3633 7.60642 28.3403 7.95868 28.3238 8.31422C28.2481 9.85491 28.1625 11.3989 28.1099 12.9396C28.0836 13.6606 28.1198 14.3848 28.1428 15.1058C28.1527 15.4482 28.2086 15.5074 28.541 15.5864C28.7779 15.6424 29.0182 15.6819 29.2584 15.7115C29.6994 15.7675 30.0153 16.2547 29.8475 16.6662C29.8278 16.7123 29.7126 16.7452 29.6435 16.7452C29.0643 16.7518 28.4851 16.7485 27.9058 16.7485C27.0996 16.7485 26.29 16.7485 25.4837 16.7485C25.1809 16.7485 24.9012 16.4654 24.9012 16.1592C24.9012 16.0243 24.9012 15.8893 24.9012 15.7609C25.1875 15.6951 25.4574 15.6523 25.7174 15.57C26.1649 15.4317 26.4414 15.1157 26.5072 14.6548C26.6125 13.9404 26.7112 13.2227 26.7738 12.505C26.9317 10.5792 27.0765 8.6533 27.2082 6.72415C27.2345 6.34556 27.2016 5.96697 27.1851 5.58509C27.1753 5.3744 27.0831 5.22954 26.8495 5.19662C26.6224 5.16699 26.4019 5.11761 26.1748 5.08469C25.7437 5.01885 25.5364 4.78182 25.5364 4.34727C25.5364 4.2485 25.5364 4.15303 25.5364 4.02794H25.7996C26.7968 4.02794 27.7972 4.04769 28.7944 4.01806C29.2255 4.00489 29.4526 4.22546 29.6007 4.55138C30.3115 6.08878 31.0059 7.63605 31.7069 9.18004C32.1907 10.2467 32.6744 11.31 33.1582 12.3766C33.1812 12.4293 33.2109 12.482 33.2503 12.5676C33.3063 12.4589 33.3557 12.3734 33.3951 12.2845C34.6227 9.62776 35.8535 6.97105 37.0711 4.31105C37.1732 4.09049 37.285 4.01477 37.5253 4.02464C38.0058 4.0444 38.4862 4.03123 38.9667 4.03123C39.2135 4.03123 39.5196 4.3341 39.5229 4.58101C39.5426 5.67727 39.5558 6.77024 39.5821 7.8665C39.6315 9.78907 39.6874 11.7149 39.7401 13.6375C39.75 13.9404 39.75 14.2465 39.7631 14.5494C39.8158 15.6193 40.7438 16.1132 41.6818 15.5733C42.1984 15.277 42.4782 14.8194 42.4782 14.2235C42.4847 11.5273 42.4815 8.83437 42.4782 6.13816C42.4782 5.89784 42.4453 5.65093 42.3992 5.4139C42.3827 5.33489 42.2807 5.22954 42.2017 5.20979C41.922 5.14395 41.6357 5.10774 41.3494 5.07152C41.1289 5.0419 40.8261 4.72915 40.8228 4.50529C40.8228 4.35385 40.8228 4.20571 40.8228 4.0411C40.9084 4.03452 40.9742 4.02794 41.0433 4.02794C42.7283 4.02794 44.4132 4.02794 46.0949 4.02794C46.3878 4.02794 46.6906 4.32422 46.6906 4.61393C46.6906 4.75548 46.6906 4.90034 46.6906 5.04519C46.3944 5.08469 46.1212 5.11432 45.8547 5.1637C45.3775 5.2493 45.1702 5.46657 45.101 5.94722C45.0747 6.13487 45.055 6.32581 45.055 6.51345C45.055 9.19321 45.055 11.873 45.055 14.5527C45.055 14.6581 45.055 14.7667 45.0747 14.872C45.1998 15.6325 45.7757 15.8333 46.4339 15.7477C47.2237 15.6457 47.7634 14.9906 47.7634 14.1939C47.7634 11.7182 47.7634 9.24588 47.7634 6.77024C47.7634 5.94722 47.7667 5.12749 47.77 4.30447C47.77 4.23863 47.77 4.1695 47.77 4.08061C47.8687 4.07403 47.9477 4.06744 48.0267 4.06744C49.3069 4.06744 50.5871 4.06415 51.8672 4.07732C52.5386 4.0839 53.2198 4.12341 53.8385 4.39994C54.9805 4.91021 55.8657 5.69373 56.1126 6.97764C56.412 8.53479 55.7637 9.78249 54.3519 10.5133C54.1775 10.6055 53.9998 10.6878 53.8056 10.7833C53.8352 10.8491 53.8615 10.9084 53.8945 10.9643C54.6678 12.3174 55.4412 13.6737 56.2179 15.0268C56.3758 15.3033 56.6654 15.3263 56.9353 15.3263C57.4256 15.3296 57.7844 15.063 57.9621 14.6021C59.3015 11.1685 60.6409 7.73152 61.9704 4.29459C62.0659 4.0444 62.1876 3.89296 62.4608 3.88308C62.497 3.88308 62.5332 3.86004 62.5694 3.85346C62.701 3.83041 62.8853 3.74153 62.9577 3.79749C63.1321 3.93247 63.3099 4.11024 63.3855 4.31105C64.646 7.68543 65.89 11.0631 67.1372 14.4408C67.2096 14.6383 67.2952 14.8358 67.3906 15.0268C67.7131 15.6786 68.3516 15.9288 69.0493 15.6819C69.714 15.4449 70.0991 14.8753 70.1024 14.1083C70.1024 12.1528 70.1024 10.194 70.1024 8.2385C70.1024 7.46157 70.1155 6.68464 70.0793 5.911C70.0464 5.15053 70.0398 5.22625 69.3257 5.10774C69.1118 5.07152 68.8781 5.1242 68.6906 4.92338C68.5326 4.75548 68.4339 4.59747 68.4668 4.36373C68.4799 4.26167 68.4668 4.15633 68.4668 4.03781C68.5556 4.03452 68.6247 4.02794 68.6906 4.02794C70.3294 4.02794 71.9683 4.02794 73.6072 4.02794C73.887 4.02794 74.1831 4.32422 74.1831 4.60076C74.1831 4.74561 74.1831 4.88717 74.1831 5.04519C73.9264 5.08469 73.6796 5.11103 73.4361 5.15712C72.9425 5.25259 72.6989 5.48303 72.6792 5.98343C72.6397 6.98751 72.6397 7.9916 72.6265 8.99568C72.6265 9.18991 72.6265 9.38744 72.6265 9.64422C72.7944 9.53229 72.9326 9.46645 73.0346 9.36439C73.7751 8.64343 74.5221 7.92576 75.2428 7.18175C75.6871 6.72415 76.0952 6.22704 76.5098 5.73982C76.6481 5.57521 76.7567 5.38427 76.9048 5.16041C76.4572 5.07811 75.9833 5.13737 75.7825 4.69294C75.7003 4.50858 75.7463 4.26497 75.7299 4.03452C75.8352 4.02794 75.9109 4.02135 75.9833 4.02135C77.4543 4.02135 78.9254 4.02135 80.3964 4.02135C80.6828 4.02135 80.9822 4.32422 80.9822 4.61393C80.9822 4.75548 80.9822 4.90034 80.9822 5.03531C80.6071 5.10115 80.2615 5.14395 79.9226 5.21967C79.1163 5.40402 78.4712 5.87808 77.8887 6.43444C76.8883 7.39573 75.9076 8.37348 74.9203 9.34464C74.9006 9.36439 74.8841 9.39073 74.8545 9.43353C75.2856 9.99647 75.7003 10.566 76.1445 11.1158C77.1516 12.3569 78.1619 13.598 79.192 14.8194C79.7975 15.537 80.5807 15.8827 81.5252 15.7082C82.1801 15.5864 82.6771 14.9708 82.6968 14.3058C82.7133 13.7593 82.7067 13.2095 82.7067 12.6631C82.7067 9.87796 82.7067 7.08957 82.7067 4.30447C82.7067 4.22217 82.7067 4.13987 82.7067 4.03452C82.7956 4.03123 82.868 4.02135 82.9404 4.02135C84.0757 4.02135 85.2111 4.02135 86.3465 4.02135C86.6196 4.02135 86.9257 4.32422 86.929 4.59417C86.929 4.74561 86.929 4.89375 86.929 5.0419C86.6493 5.07811 86.3991 5.10445 86.1523 5.14724C85.5731 5.2493 85.3526 5.48633 85.3 6.07232C85.2769 6.3291 85.2638 6.58917 85.2638 6.84595C85.2638 9.28209 85.2605 11.7182 85.2638 14.1544C85.2638 14.5033 85.3098 14.8523 85.3329 15.198C85.3427 15.3659 85.4349 15.458 85.5994 15.4844C86.4485 15.6193 87.2976 15.6358 88.1433 15.458C88.6732 15.3461 89.0385 15.0103 89.2919 14.556C89.5321 14.1247 89.7394 13.677 89.9468 13.2293C90.0093 13.091 90.0653 13.0351 90.2166 13.0976C90.3647 13.1569 90.5424 13.1602 90.6675 13.249C90.9044 13.4169 91.0756 13.6046 90.9801 13.9667C90.7596 14.8128 90.5918 15.6687 90.4108 16.5247C90.3746 16.6959 90.2956 16.7485 90.1179 16.7485C86.0799 16.7419 82.0386 16.7485 78.0006 16.7386C77.8887 16.7386 77.7374 16.6827 77.6683 16.5971C77.0693 15.886 76.4769 15.1716 75.901 14.4441C75.0092 13.3149 74.1338 12.1725 73.2485 11.0368C73.1926 10.9643 73.1366 10.882 73.0576 10.8458C72.9457 10.7964 72.8141 10.7833 72.6923 10.7537C72.6726 10.859 72.6331 10.9611 72.6331 11.0664C72.6331 12.2614 72.6331 13.4564 72.6331 14.6515C72.6331 14.7799 72.6463 14.9083 72.6627 15.0366C72.7318 15.5568 72.7483 15.5765 73.265 15.6621C73.3769 15.6819 73.492 15.7181 73.6039 15.7049C73.9297 15.6687 74.1371 15.8728 74.2687 16.1C74.3609 16.258 74.3214 16.4917 74.3444 16.7386L74.3345 16.7518ZM50.2711 10.3487C50.6364 10.3257 50.9721 10.3191 51.3012 10.2862C52.3148 10.1841 53.0553 9.56192 53.3317 8.58417C53.5193 7.92576 53.5094 7.26405 53.3646 6.59905C53.2165 5.911 52.8479 5.41719 52.1272 5.27234C51.8113 5.2065 51.4789 5.167 51.1564 5.18016C50.4028 5.20979 50.2678 5.36781 50.2678 6.12828C50.2678 7.42865 50.2678 8.72902 50.2678 10.0294V10.352L50.2711 10.3487ZM62.0856 7.55046C62.0659 7.55046 62.0428 7.55046 62.0231 7.55375C61.5788 8.75207 61.1378 9.95038 60.687 11.1652H63.3559C62.9281 9.9438 62.5069 8.74548 62.0889 7.55046H62.0856Z" />
  <path d="M10.4666 19.9967C9.90385 19.9605 9.3411 19.9506 8.78164 19.8815C7.91941 19.7728 7.22502 19.3021 6.56025 18.7786C4.34873 17.0404 2.70984 14.8578 1.51852 12.3262C0.722108 10.6209 0.212012 8.82669 0.0277186 6.9502C-0.0183547 6.4926 0.00468193 6.02513 0.0145548 5.56424C0.0178457 5.42597 0.060628 5.27124 0.129738 5.15273C0.626671 4.30996 1.10715 3.45402 1.65016 2.63758C2.00558 2.10426 2.53871 1.75201 3.12779 1.48535C4.83579 0.70513 6.62607 0.254116 8.49203 0.0829275C10.9734 -0.144226 13.4054 0.0829275 15.7683 0.882903C16.5779 1.15944 17.3611 1.52486 18.1312 1.90015C18.4109 2.03842 18.6775 2.28533 18.8454 2.54869C19.2995 3.26637 19.724 4.01038 20.1091 4.76755C20.5172 5.56753 20.5435 6.43005 20.425 7.30904C19.8919 11.1772 18.2135 14.4825 15.5281 17.3005C14.679 18.1926 13.7246 18.9564 12.6847 19.6148C12.3095 19.8551 11.9047 19.9802 11.4539 19.9671C11.1281 19.9572 10.799 19.9671 10.4699 19.9671V20L10.4666 19.9967ZM15.4228 6.27862C15.3866 6.2457 15.3207 6.1601 15.2352 6.12718C13.9056 5.57411 12.53 5.20869 11.0919 5.09347C9.05808 4.93216 7.09996 5.21857 5.24387 6.09755C5.10236 6.1634 5.05299 6.23911 5.07603 6.39055C5.34918 8.35921 5.958 10.2061 7.04073 11.885C7.84043 13.1261 8.831 14.1895 10.0552 15.0257C10.1704 15.1047 10.2593 15.1475 10.3942 15.0421C12.1911 13.6529 13.6127 11.9706 14.5276 9.88015C15.018 8.75755 15.3207 7.58557 15.4195 6.27862H15.4228ZM18.9737 6.09097C18.1444 9.23161 16.5581 11.964 14.5013 14.4496C16.7359 12.0628 18.3023 9.31721 18.9737 6.09097ZM12.5958 2.87461C10.8681 2.07134 4.36519 2.30179 3.28576 3.18077C6.34634 2.33471 9.43324 2.338 12.5958 2.87461ZM8.06421 17.7746C6.07648 15.638 4.66466 13.1591 3.63131 10.4497C3.8156 12.1616 6.69847 16.9351 8.06421 17.7746Z" />
</svg>
