<svg xmlns="http://www.w3.org/2000/svg" fill="currentColor" viewBox="0 0 72 20">
  <path clip-rule="evenodd" d="M1.73486 3.36463C1.73486 1.50639 3.16853 0 4.93704 0H17.1053C18.8738 0 20.3075 1.50639 20.3075 3.36463V14.2388C20.3075 16.1612 17.9922 16.9956 16.8693 15.4777L13.3588 10.7328V16.4867C13.3588 18.1591 12.0685 19.5149 10.4768 19.5149H4.93704C3.16853 19.5149 1.73486 18.0084 1.73486 16.1503V3.36463ZM4.93704 2.6917C4.58334 2.6917 4.29661 2.99298 4.29661 3.36463V16.1503C4.29661 16.5218 4.58334 16.8231 4.93704 16.8231H10.5729C10.7497 16.8231 10.7971 16.6725 10.7971 16.4867V8.7707C10.7971 6.84824 13.1123 6.01388 14.2352 7.53167L17.7458 12.2767V3.36463C17.7458 2.99298 17.7792 2.6917 17.4256 2.6917H4.93704Z" />
  <path clip-rule="evenodd" d="M1.73486 3.36463C1.73486 1.50639 3.16853 0 4.93704 0H17.1053C18.8738 0 20.3075 1.50639 20.3075 3.36463V14.2388C20.3075 16.1612 17.9922 16.9956 16.8693 15.4777L13.3588 10.7328V16.4867C13.3588 18.1591 12.0685 19.5149 10.4768 19.5149H4.93704C3.16853 19.5149 1.73486 18.0084 1.73486 16.1503V3.36463ZM4.93704 2.6917C4.58334 2.6917 4.29661 2.99298 4.29661 3.36463V16.1503C4.29661 16.5218 4.58334 16.8231 4.93704 16.8231H10.5729C10.7497 16.8231 10.7971 16.6725 10.7971 16.4867V8.7707C10.7971 6.84824 13.1123 6.01388 14.2352 7.53167L17.7458 12.2767V3.36463C17.7458 2.99298 17.7792 2.6917 17.4256 2.6917H4.93704Z" />
  <path clip-rule="evenodd" d="M1.73486 3.36463C1.73486 1.50639 3.16853 0 4.93704 0H17.1053C18.8738 0 20.3075 1.50639 20.3075 3.36463V14.2388C20.3075 16.1612 17.9922 16.9956 16.8693 15.4777L13.3588 10.7328V16.4867C13.3588 18.1591 12.0685 19.5149 10.4768 19.5149H4.93704C3.16853 19.5149 1.73486 18.0084 1.73486 16.1503V3.36463ZM4.93704 2.6917C4.58334 2.6917 4.29661 2.99298 4.29661 3.36463V16.1503C4.29661 16.5218 4.58334 16.8231 4.93704 16.8231H10.5729C10.7497 16.8231 10.7971 16.6725 10.7971 16.4867V8.7707C10.7971 6.84824 13.1123 6.01388 14.2352 7.53167L17.7458 12.2767V3.36463C17.7458 2.99298 17.7792 2.6917 17.4256 2.6917H4.93704Z" />
  <path d="M17.1053 0C18.8738 0 20.3075 1.50639 20.3075 3.36463V14.2388C20.3075 16.1612 17.9922 16.9956 16.8693 15.4777L13.3588 10.7328V16.4867C13.3588 18.1591 12.0685 19.5149 10.4768 19.5149C10.6537 19.5149 10.7969 19.3642 10.7969 19.1783L10.7971 8.7707C10.7971 6.84824 13.1123 6.01388 14.2352 7.53167L17.7458 12.2767L17.7457 0.672926C17.7457 0.301279 17.459 0 17.1053 0Z" />
  <path d="M35.2765 5.58339V10.6877L30.5663 5.58339H28.1148V13.9314H30.3507V8.44557L35.4809 13.9314H37.5125V5.58339H35.2765Z" />
  <path d="M41.6573 12.071V10.5922H46.6626V8.8153H41.6573V7.44381H47.7295V5.58339H39.376V13.9314H47.8544V12.071H41.6573Z" />
  <path d="M53.796 14.2057C56.9399 14.2057 58.9829 12.5838 58.9829 9.75739C58.9829 6.93101 56.9399 5.3091 53.796 5.3091C50.652 5.3091 48.6204 6.93101 48.6204 9.75739C48.6204 12.5838 50.652 14.2057 53.796 14.2057ZM53.796 12.226C52.0481 12.226 50.9698 11.3316 50.9698 9.75739C50.9698 8.18321 52.0594 7.28877 53.796 7.28877C55.5438 7.28877 56.6221 8.18321 56.6221 9.75739C56.6221 11.3316 55.5438 12.226 53.796 12.226Z" />
  <path d="M67.553 5.58339V10.6877L62.8427 5.58339H60.3912V13.9314H62.6271V8.44557L67.7573 13.9314H69.7889V5.58339H67.553Z" />
</svg>
