<svg xmlns="http://www.w3.org/2000/svg" fill="currentColor" viewBox="0 0 65 20">
  <path d="M61.09 15.668c-.525 0-.985-.1-1.382-.298a2.254 2.254 0 0 1-.93-.839c-.22-.361-.329-.78-.329-1.259v-.015c0-.453.112-.845.336-1.175.229-.33.557-.593.984-.786.432-.193.951-.308 1.557-.343l2.937-.168v1.03l-2.785.168c-.529.03-.94.157-1.236.381-.29.224-.435.521-.435.893v.015c0 .382.143.684.427.908.29.224.675.336 1.153.336.417 0 .79-.087 1.121-.26.336-.178.6-.42.794-.725a1.85 1.85 0 0 0 .297-1.03V10.16c0-.483-.152-.862-.458-1.136-.3-.28-.727-.42-1.281-.42-.51 0-.92.112-1.236.336-.31.218-.504.506-.58.862l-.015.068h-1.282l.007-.084c.04-.437.189-.834.443-1.19.26-.356.616-.638 1.068-.847.453-.213.99-.32 1.61-.32.625 0 1.165.107 1.618.32.457.214.81.517 1.06.908.249.387.374.845.374 1.374v5.485h-1.328v-1.29h-.03c-.153.29-.356.545-.61.764a2.975 2.975 0 0 1-.863.503c-.315.117-.65.176-1.007.176Zm-14.878-.153V7.581h1.327v1.16h.031a2.15 2.15 0 0 1 .84-.947c.38-.244.826-.366 1.334-.366.362 0 .687.061.977.183.295.117.55.29.763.519.213.224.377.498.488.824h.03a2.53 2.53 0 0 1 .588-.816c.25-.23.534-.405.855-.527a2.949 2.949 0 0 1 1.045-.183c.524 0 .98.11 1.366.328.386.214.686.516.9.908.214.387.32.844.32 1.373v5.478H55.75v-5.173c0-.366-.066-.679-.199-.938a1.345 1.345 0 0 0-.556-.595c-.244-.137-.543-.206-.893-.206-.351 0-.662.081-.931.244a1.66 1.66 0 0 0-.633.664c-.153.28-.23.6-.23.961v5.043H50.98v-5.318c0-.32-.068-.6-.206-.839a1.385 1.385 0 0 0-.564-.557 1.74 1.74 0 0 0-.855-.198c-.35 0-.663.086-.938.26-.27.167-.483.396-.64.686-.159.29-.238.62-.238.992v4.974h-1.327Zm-5.524.153c-.524 0-.984-.1-1.38-.298a2.256 2.256 0 0 1-.931-.839c-.22-.361-.328-.78-.328-1.259v-.015c0-.453.111-.845.335-1.175.23-.33.557-.593.984-.786.433-.193.951-.308 1.557-.343l2.937-.168v1.03l-2.785.168c-.529.03-.94.157-1.236.381a1.07 1.07 0 0 0-.434.893v.015c0 .382.142.684.427.908.29.224.674.336 1.152.336.417 0 .79-.087 1.121-.26.336-.178.6-.42.794-.725a1.85 1.85 0 0 0 .297-1.03V10.16c0-.483-.152-.862-.457-1.136-.3-.28-.728-.42-1.282-.42-.509 0-.92.112-1.236.336-.31.218-.504.506-.58.862l-.015.068h-1.282l.008-.084a2.39 2.39 0 0 1 .442-1.19 2.67 2.67 0 0 1 1.068-.847c.453-.213.99-.32 1.61-.32.626 0 1.165.107 1.618.32.457.214.81.517 1.06.908.25.387.374.845.374 1.374v5.485h-1.328v-1.29h-.03c-.153.29-.356.545-.61.764a2.976 2.976 0 0 1-.863.503 2.872 2.872 0 0 1-1.007.176Zm-5.439-.153V4.506h1.327v11.01H35.25Zm-3.189 0V4.506h1.327v11.01h-1.328Zm-6.638.183c-1.043 0-1.946-.23-2.709-.694-.758-.463-1.342-1.119-1.754-1.968-.412-.85-.618-1.857-.618-3.021v-.016c0-1.164.206-2.169.618-3.013.417-.85 1.004-1.506 1.762-1.969.763-.462 1.663-.694 2.7-.694 1.038 0 1.936.232 2.694.694.758.463 1.343 1.12 1.755 1.969.412.844.618 1.849.618 3.013v.016c0 1.164-.206 2.171-.618 3.02-.412.85-.997 1.506-1.755 1.97-.753.462-1.65.693-2.693.693Zm0-1.266c.758 0 1.409-.18 1.953-.542.55-.366.971-.88 1.266-1.54.296-.662.443-1.44.443-2.335v-.016c0-.9-.15-1.68-.45-2.342-.295-.661-.717-1.17-1.267-1.526-.549-.36-1.198-.541-1.945-.541-.748 0-1.399.18-1.953.541-.55.356-.974.865-1.274 1.526-.3.656-.45 1.437-.45 2.342v.016c0 .9.15 1.68.45 2.342.3.661.724 1.172 1.274 1.533s1.2.542 1.953.542ZM3.294.006c-.186.03-.41.127-.568.248-.479.363-.85 1.134-1.006 2.095a8.839 8.839 0 0 0-.099 1.252c0 .454.053 1.034.13 1.435a.58.58 0 0 1 .018.174 7.072 7.072 0 0 1-.155.126c-.27.215-.579.547-.791.85A4.575 4.575 0 0 0 .04 8.135c-.043.281-.054.85-.02 1.131.076.65.272 1.198.606 1.7l.11.163-.032.053c-.224.376-.415.92-.504 1.443-.07.414-.08.524-.08 1.078 0 .559.008.67.074 1.056.079.462.24.952.42 1.278.058.106.202.327.219.339.006.002-.012.056-.039.117a6.17 6.17 0 0 0-.456 1.561 4.31 4.31 0 0 0-.06.826c0 .467.027.694.124 1.065L.417 20h1.23l-.04-.076c-.248-.46-.271-1.313-.057-2.164.097-.394.208-.682.415-1.08l.123-.241v-.148c0-.138-.003-.154-.047-.244a.761.761 0 0 0-.163-.208 1.45 1.45 0 0 1-.32-.453c-.353-.767-.422-1.905-.174-2.876.104-.405.275-.765.454-.962a.655.655 0 0 0 .185-.442.608.608 0 0 0-.186-.435 2.613 2.613 0 0 1-.68-1.44 3.37 3.37 0 0 1 .573-2.363C2.2 6.19 2.86 5.755 3.596 5.64c.165-.027.474-.023.646.009.188.033.306.023.426-.035.15-.07.224-.158.312-.359.078-.18.138-.277.3-.48.195-.242.384-.407.685-.607.345-.225.737-.39 1.127-.468.142-.029.209-.033.474-.033.266 0 .332.004.474.033a3.393 3.393 0 0 1 1.595.831c.098.09.332.38.407.502.028.047.079.147.11.222.088.201.163.289.312.359.116.056.238.068.42.037.285-.048.505-.044.785.013.953.193 1.783.978 2.15 2.03.321.924.23 1.89-.246 2.629-.08.125-.161.225-.277.349-.252.268-.252.601-.002.877.411.45.668 1.555.59 2.53-.051.643-.216 1.22-.443 1.545-.04.058-.124.155-.187.216a.762.762 0 0 0-.162.208c-.045.09-.048.106-.048.244v.148l.124.241c.207.398.317.686.415 1.08.211.84.192 1.676-.049 2.151a.693.693 0 0 0-.037.082c0 .004.274.007.61.007h.609l.016-.062.03-.112a6.26 6.26 0 0 0 .073-.43 7.514 7.514 0 0 0 0-1.047c-.092-.73-.246-1.308-.497-1.856a.359.359 0 0 1-.039-.117c.008-.005.048-.062.09-.127.314-.474.506-1.07.604-1.856a11.86 11.86 0 0 0 0-1.357c-.069-.537-.152-.902-.29-1.271a5.089 5.089 0 0 0-.274-.583l-.032-.053.11-.163a3.75 3.75 0 0 0 .605-1.7c.035-.281.023-.85-.02-1.131a4.593 4.593 0 0 0-.783-1.949 4.434 4.434 0 0 0-.79-.85 7.072 7.072 0 0 1-.156-.126.578.578 0 0 1 .019-.174 8.04 8.04 0 0 0-.014-2.92c-.158-.77-.446-1.38-.816-1.734-.296-.282-.598-.402-.96-.38-.83.05-1.498 1.004-1.763 2.51a5.67 5.67 0 0 0-.08.604c0 .03-.006.054-.013.054a.802.802 0 0 1-.124-.064 4.048 4.048 0 0 0-2.046-.582c-.693 0-1.406.203-2.046.582a.796.796 0 0 1-.124.064c-.007 0-.012-.024-.012-.054 0-.08-.04-.373-.08-.605-.24-1.35-.79-2.245-1.522-2.47a1.706 1.706 0 0 0-.488-.035Zm.244 1.169c.207.163.437.631.569 1.155a4.8 4.8 0 0 1 .057.245l.035.193c.056.305.082.634.085 1.034l.001.395-.1.147-.098.148h-.231c-.27 0-.539.034-.796.103l-.198.05c-.027.006-.032-.003-.047-.12a7.03 7.03 0 0 1 .013-1.936c.103-.656.344-1.25.58-1.426.056-.042.066-.04.13.012Zm8.188-.01c.142.104.299.383.415.739.234.712.3 1.69.177 2.62-.016.118-.02.127-.048.121l-.198-.05a3.078 3.078 0 0 0-.795-.103h-.231l-.1-.148-.099-.147.002-.395a5.75 5.75 0 0 1 .178-1.476c.13-.52.362-.988.567-1.151.065-.052.075-.054.132-.01Z"/>
  <path d="M7.344 8.391a4.53 4.53 0 0 0-.546.072c-.243.05-.567.163-.793.273-.784.384-1.324 1.023-1.489 1.762-.033.147-.037.195-.037.442 0 .245.004.298.036.437.22.966 1.11 1.68 2.261 1.81.25.028 1.33.028 1.58 0 .925-.104 1.72-.605 2.078-1.309.095-.188.14-.31.184-.501.031-.14.035-.193.035-.437 0-.247-.004-.295-.037-.442-.24-1.074-1.282-1.92-2.56-2.08a5.746 5.746 0 0 0-.712-.027Zm.537.782c.426.046.855.198 1.2.428.185.123.447.382.559.551.138.21.216.424.252.684.016.119.008.21-.036.402-.067.287-.277.587-.56.797a2.594 2.594 0 0 1-.574.29c-.319.102-.527.12-1.27.115-.486-.005-.572-.01-.712-.035-.475-.089-.851-.278-1.124-.567-.221-.233-.322-.445-.376-.788-.025-.16.021-.424.115-.647.113-.271.406-.609.696-.802a2.76 2.76 0 0 1 1.185-.427c.156-.017.488-.017.645-.001Z"/>
  <path d="M7.018 10.221c-.11.06-.186.209-.163.319.026.12.131.24.295.339.087.053.093.06.097.113.003.032-.008.122-.024.203-.017.079-.03.162-.03.185.001.062.059.162.119.211.053.043.063.045.213.049.136.004.165.001.22-.024.14-.07.176-.196.124-.438-.043-.203-.034-.235.073-.296a.75.75 0 0 0 .27-.262.305.305 0 0 0-.146-.4.328.328 0 0 0-.15-.027c-.106 0-.173.024-.297.103l-.07.044-.045-.027c-.182-.108-.215-.12-.326-.12a.329.329 0 0 0-.16.028ZM3.531 8.554a.84.84 0 0 0-.541.533.988.988 0 0 0-.05.433.734.734 0 0 0 .498.556c.301.08.527.027.726-.17a.952.952 0 0 0 .243-.374c.046-.114.049-.134.049-.294l.001-.173-.06-.123a.745.745 0 0 0-.471-.394.85.85 0 0 0-.395.006ZM11.2 8.55a.745.745 0 0 0-.464.391l-.06.124v.172c0 .161.004.181.05.295.063.16.126.26.242.373.2.198.425.25.727.17a.717.717 0 0 0 .43-.362.626.626 0 0 0 .067-.415c-.053-.378-.275-.652-.604-.749a.884.884 0 0 0-.387 0Z"/>
</svg>
