<svg xmlns="http://www.w3.org/2000/svg" fill="currentColor" viewBox="0 0 65 20">
  <path d="M60.75 15.2762C60.2312 15.2762 59.7757 15.1792 59.3824 14.9859C59.0029 14.8043 58.6835 14.5205 58.4612 14.1675C58.2445 13.8153 58.1358 13.4064 58.1358 12.9401V12.9256C58.1358 12.4838 58.2467 12.1021 58.4685 11.7795C58.6949 11.4575 59.0197 11.2018 59.4429 11.0135C59.8707 10.8252 60.3845 10.7137 60.9843 10.6792L63.8928 10.5154V11.5194L61.1354 11.6832C60.6114 11.7127 60.2034 11.8369 59.9115 12.0548C59.6246 12.2732 59.4803 12.5634 59.4803 12.9256V12.9401C59.4803 13.3122 59.6217 13.607 59.9035 13.8254C60.191 14.0438 60.5712 14.1524 61.0449 14.1524C61.4579 14.1524 61.828 14.0688 62.155 13.9C62.4758 13.7368 62.747 13.4929 62.941 13.193C63.1378 12.8943 63.2403 12.545 63.2358 12.189V9.90476C63.2358 9.43398 63.0847 9.06459 62.782 8.7966C62.4849 8.5236 62.0617 8.38766 61.5134 8.38766C61.0092 8.38766 60.6018 8.49686 60.2894 8.71526C59.9816 8.92809 59.7904 9.20833 59.7151 9.55543L59.6998 9.62229H58.4306L58.438 9.54095C58.4754 9.12229 58.6269 8.72134 58.8765 8.38042C59.1334 8.03332 59.4859 7.75809 59.9341 7.55473C60.3822 7.34636 60.9136 7.24217 61.5281 7.24217C62.1471 7.24217 62.6819 7.34636 63.13 7.55417C63.5832 7.7631 63.9329 8.05783 64.1802 8.44003C64.4264 8.81666 64.5503 9.26293 64.5503 9.77885V15.1274H63.2358V13.8699H63.2053C63.0535 14.1534 62.8484 14.4058 62.6009 14.6137C62.3464 14.8236 62.0577 14.9895 61.7471 15.1046C61.4278 15.22 61.0901 15.2781 60.75 15.2762ZM46.0182 15.1269V7.39093H47.3326V8.52193H47.3632C47.5399 8.13936 47.8293 7.81792 48.1939 7.5993C48.5719 7.3614 49.0126 7.24217 49.5163 7.24217C49.8739 7.24217 50.1958 7.30179 50.4833 7.42046C50.7753 7.53467 51.0271 7.70349 51.2387 7.92635C51.4498 8.14475 51.6116 8.41273 51.7219 8.72975H51.7525C51.8903 8.42887 52.0881 8.15832 52.3342 7.93415C52.5809 7.71129 52.8627 7.53969 53.1801 7.42102C53.5113 7.30027 53.8619 7.23967 54.2151 7.24217C54.7339 7.24217 55.1849 7.34859 55.568 7.56197C55.946 7.76577 56.2556 8.07335 56.4592 8.44728C56.6708 8.8239 56.7767 9.27073 56.7767 9.78609V15.1269H55.4622V10.0842C55.4622 9.72759 55.3966 9.42228 55.2653 9.16933C55.1469 8.92454 54.9543 8.72191 54.7141 8.58935C54.4725 8.45563 54.1771 8.38877 53.8303 8.38877C53.4823 8.38877 53.175 8.46789 52.9079 8.62612C52.6414 8.77989 52.4326 8.9955 52.281 9.27352C52.1299 9.54652 52.0546 9.85852 52.0546 10.2106V15.1274H50.7402V9.9432C50.7402 9.63065 50.6723 9.3582 50.5365 9.1242C50.4077 8.89347 50.2131 8.70485 49.9769 8.58155C49.7403 8.45285 49.458 8.38822 49.1309 8.38822C48.7835 8.38822 48.4734 8.47235 48.2018 8.64116C47.934 8.80552 47.715 9.03652 47.5669 9.31085C47.4107 9.59332 47.3326 9.9159 47.3326 10.2775V15.1274L46.0182 15.1269ZM40.5481 15.2762C40.0298 15.2762 39.5737 15.1792 39.181 14.9859C38.8014 14.8043 38.4818 14.5205 38.2593 14.1675C38.0425 13.8153 37.9345 13.4064 37.9345 12.9401V12.9256C37.9345 12.4838 38.0454 12.1021 38.2666 11.7795C38.4935 11.4575 38.8183 11.2018 39.2416 11.0135C39.6694 10.8252 40.1831 10.7137 40.7824 10.6792L43.6908 10.5154V11.5194L40.9335 11.6832C40.4101 11.7127 40.0021 11.8369 39.7095 12.0548C39.4226 12.2732 39.2795 12.5634 39.2795 12.9256V12.9401C39.2795 13.3122 39.4204 13.607 39.7022 13.8254C39.9891 14.0438 40.3699 14.1524 40.8429 14.1524C41.256 14.1524 41.6261 14.0688 41.9537 13.9C42.2743 13.7368 42.5453 13.4929 42.7391 13.193C42.936 12.8955 43.0339 12.5607 43.0339 12.189V9.90476C43.0339 9.43398 42.8828 9.06459 42.5812 8.7966C42.2836 8.5236 41.8603 8.38766 41.3114 8.38766C40.8078 8.38766 40.3999 8.49686 40.0875 8.71526C39.7803 8.92809 39.589 9.20833 39.5132 9.55543L39.4985 9.62229H38.2293L38.2366 9.54095C38.2739 9.12234 38.4252 8.7214 38.6746 8.38042C38.9315 8.03332 39.284 7.75809 39.7327 7.55473C40.1809 7.34636 40.7116 7.24217 41.3267 7.24217C41.9463 7.24217 42.4799 7.34636 42.9281 7.55417C43.3813 7.7631 43.7316 8.05783 43.9783 8.44003C44.225 8.81666 44.3484 9.26293 44.3484 9.77885V15.1274H43.0339V13.8699H43.0039C42.8522 14.1534 42.6471 14.4058 42.3996 14.6137C42.1449 14.8236 41.856 14.9895 41.5451 15.1046C41.2261 15.2199 40.888 15.2781 40.5481 15.2762ZM35.1618 15.1274V4.3935H36.4763V15.1274H35.1618ZM32.0038 15.1274V4.3935H33.3183V15.1274H32.0038ZM25.4309 15.3057C24.3982 15.3057 23.5048 15.0801 22.7488 14.6288C21.9985 14.1775 21.419 13.5379 21.0116 12.71C20.6037 11.8815 20.3994 10.8993 20.3994 9.76436V9.74932C20.3994 8.61386 20.6031 7.6344 21.0116 6.81095C21.4247 5.98303 22.0064 5.34287 22.7567 4.89159C23.5121 4.4403 24.4033 4.21466 25.4309 4.21466C26.4585 4.21466 27.3474 4.4403 28.0978 4.89159C28.8486 5.34287 29.4275 5.98303 29.8355 6.81095C30.2434 7.6344 30.4472 8.61386 30.4472 9.74932V9.76436C30.4472 10.8998 30.2434 11.8815 29.836 12.71C29.4275 13.5379 28.8486 14.1775 28.0978 14.6293C27.3525 15.0806 26.4636 15.3057 25.4309 15.3057ZM25.4309 14.0711C26.1812 14.0711 26.8263 13.895 27.365 13.5429C27.9093 13.1863 28.3269 12.6849 28.6195 12.0403C28.9114 11.3957 29.0574 10.6368 29.0574 9.76436V9.74932C29.0574 8.87182 28.9086 8.1102 28.6115 7.46559C28.3196 6.82097 27.9014 6.32512 27.3576 5.97802C26.8133 5.6259 26.1716 5.44984 25.4309 5.44984C24.6908 5.44984 24.0457 5.6259 23.4968 5.97802C22.9531 6.32512 22.5326 6.82097 22.235 7.46559C21.9379 8.10519 21.7897 8.86625 21.7897 9.74932V9.76436C21.7897 10.6419 21.9379 11.4029 22.2356 12.0481C22.5326 12.6927 22.9531 13.1908 23.4974 13.5429C24.0406 13.895 24.6857 14.0711 25.4309 14.0711ZM3.51955 0.00544089C3.3156 0.0430007 3.12304 0.125891 2.95654 0.247798C2.48292 0.601584 2.11625 1.35373 1.96064 2.29029C1.89825 2.69434 1.86554 3.1023 1.86275 3.51099C1.86275 3.95336 1.91537 4.51942 1.99063 4.90942C2.00761 4.99689 2.01666 5.07377 2.0093 5.07934C2.00365 5.08492 1.93405 5.14063 1.85596 5.20192C1.55892 5.44342 1.29542 5.72234 1.07226 6.0315C0.667755 6.59705 0.402362 7.24746 0.297047 7.93136C0.254608 8.20547 0.243291 8.75983 0.277242 9.0345C0.353066 9.66742 0.54602 10.2017 0.877042 10.692L0.985684 10.8502L0.954563 10.902C0.73275 11.2692 0.543191 11.799 0.455484 12.3094C0.385319 12.7122 0.376831 12.8203 0.376831 13.3607C0.376831 13.9051 0.384188 14.0126 0.44926 14.3898C0.527913 14.8405 0.686916 15.318 0.864593 15.6355C0.922875 15.7392 1.06547 15.9548 1.08244 15.9659C1.0881 15.9687 1.07113 16.0205 1.04397 16.0807C0.83913 16.522 0.664283 17.1086 0.591288 17.6028C0.540362 17.9416 0.533571 18.0508 0.533571 18.4079C0.533571 18.8631 0.559035 19.0843 0.655795 19.4464L0.669941 19.4999H1.88878L1.84917 19.4258C1.60246 18.9778 1.57983 18.146 1.79202 17.3159C1.88821 16.932 1.99799 16.6507 2.20282 16.2629L2.32505 16.0278V15.8835C2.32505 15.7492 2.32222 15.7336 2.27808 15.6456C2.24413 15.5787 2.19886 15.5208 2.11738 15.4428C1.98391 15.3171 1.87631 15.1673 1.80051 15.0015C1.45081 14.2538 1.38178 13.1434 1.62849 12.1968C1.73034 11.8024 1.9001 11.4508 2.07777 11.2592C2.1983 11.1277 2.26111 10.9806 2.26111 10.8279C2.26111 10.6697 2.20452 10.5393 2.07607 10.4034C1.7094 10.0173 1.48307 9.54708 1.40272 8.9994C1.28728 8.2194 1.49608 7.36976 1.97083 6.69617C2.43595 6.0354 3.08894 5.61142 3.81832 5.49832C4.03083 5.47227 4.24595 5.47489 4.45773 5.50612C4.64446 5.53843 4.76103 5.5284 4.88042 5.47269C5.02811 5.40416 5.10223 5.31836 5.18881 5.1228C5.26576 4.9473 5.32518 4.85259 5.48588 4.6548C5.6794 4.41857 5.86556 4.25756 6.16433 4.06256C6.50416 3.84295 6.88287 3.68817 7.28075 3.60626C7.42108 3.5784 7.48672 3.57394 7.74984 3.57394C8.01296 3.57394 8.07803 3.5784 8.21949 3.60626C8.78647 3.71991 9.34949 4.00796 9.79878 4.4169C9.89497 4.50493 10.127 4.78796 10.2011 4.90552C10.2294 4.95176 10.2792 5.04982 10.3109 5.1228C10.3974 5.31836 10.4716 5.40416 10.6193 5.47269C10.7347 5.52729 10.8552 5.53843 11.0346 5.5089C11.3175 5.46154 11.5348 5.46544 11.8121 5.52172C12.7565 5.70947 13.5781 6.47499 13.9425 7.50125C14.2594 8.40159 14.17 9.34372 13.698 10.0635C13.6183 10.185 13.5385 10.2831 13.423 10.4034C13.1741 10.6653 13.1741 10.9901 13.4219 11.2592C13.8287 11.6971 14.0828 12.7752 14.0064 13.7262C13.9555 14.353 13.7914 14.9146 13.5668 15.2327C13.5272 15.2884 13.4445 15.3837 13.3823 15.4428C13.3008 15.5208 13.2555 15.5782 13.2216 15.6456C13.1775 15.7336 13.1746 15.7492 13.1746 15.8835V16.0278L13.2969 16.2629C13.5017 16.6507 13.6109 16.932 13.7077 17.3159C13.917 18.1349 13.8983 18.9494 13.6596 19.413C13.6398 19.452 13.6222 19.4887 13.6222 19.4926C13.6222 19.4971 13.8938 19.4999 14.2265 19.4999H14.8297L14.845 19.4397L14.875 19.3305C14.8908 19.2692 14.922 19.087 14.9474 18.9121C14.9718 18.7355 14.9718 18.0859 14.9474 17.8897C14.8569 17.1788 14.7041 16.6139 14.4557 16.0807C14.4285 16.0205 14.4116 15.9693 14.4172 15.9659C14.4246 15.962 14.4642 15.9058 14.5066 15.8434C14.8167 15.3809 15.0074 14.7998 15.1042 14.0326C15.1296 13.8209 15.1296 12.9128 15.1042 12.7094C15.0363 12.1857 14.9531 11.8302 14.8167 11.4703C14.7385 11.2754 14.6478 11.0856 14.5451 10.902L14.514 10.8502L14.6221 10.692C14.9531 10.2017 15.1466 9.66686 15.2219 9.0345C15.2558 8.75983 15.2445 8.20547 15.2021 7.93136C15.0961 7.24764 14.8308 6.59737 14.4269 6.0315C14.2038 5.72258 13.9405 5.44385 13.6437 5.20247C13.5656 5.14119 13.496 5.08492 13.4904 5.07934C13.483 5.07377 13.4915 4.99633 13.5085 4.90997C13.6805 4.02634 13.6748 2.92431 13.4943 2.06297C13.3382 1.31306 13.0535 0.716356 12.6869 0.372041C12.3938 0.0979266 12.095 -0.0196305 11.7368 0.00265524C10.9152 0.0500124 10.2526 0.980999 9.9906 2.44851C9.94816 2.6853 9.91138 2.9622 9.91138 3.03797C9.91138 3.0675 9.90572 3.0909 9.89837 3.0909C9.89101 3.0909 9.83612 3.06304 9.77614 3.02794C9.14239 2.65856 8.43678 2.46133 7.74984 2.46133C7.0629 2.46133 6.35785 2.65856 5.72353 3.02794C5.68474 3.0524 5.64384 3.07347 5.60131 3.0909C5.59396 3.0909 5.5883 3.0675 5.5883 3.03797C5.5883 2.95997 5.54982 2.67416 5.50908 2.44851C5.27142 1.13087 4.72651 0.258941 4.00279 0.0388694C3.8441 0.00547136 3.68143 -0.00578172 3.51955 0.00544089ZM3.76117 1.1448C3.96601 1.3047 4.19348 1.761 4.32419 2.2719C4.34852 2.36439 4.37399 2.4708 4.38078 2.5098C4.38643 2.54769 4.40228 2.63349 4.41529 2.69923C4.47075 2.99563 4.49621 3.31654 4.49904 3.70766L4.50074 4.09209L4.40228 4.23472L4.30439 4.37957H4.07522C3.80814 4.37957 3.54219 4.413 3.28756 4.47986L3.09121 4.52889C3.06461 4.53446 3.06009 4.5261 3.04481 4.41189C2.9605 3.78789 2.96502 3.09814 3.05726 2.52429C3.15967 1.88413 3.39846 1.30414 3.63159 1.13366C3.68705 1.09298 3.69667 1.09466 3.76117 1.1448ZM11.8692 1.13533C12.0101 1.23728 12.1652 1.50861 12.28 1.85627C12.512 2.55047 12.5771 3.5043 12.4554 4.41133C12.4396 4.5261 12.4351 4.53446 12.4079 4.52889L12.2121 4.47986C11.9575 4.413 11.6915 4.37957 11.4239 4.37957H11.1953L11.0968 4.23472L10.9989 4.09209L11.0001 3.70766C11.0035 3.16389 11.0544 2.7399 11.1766 2.268C11.3062 1.761 11.5348 1.30414 11.7385 1.1448C11.8024 1.09466 11.8126 1.09298 11.8692 1.13533Z" />
  <path d="M7.52915 8.18137C7.22077 8.2109 7.13702 8.22205 6.98877 8.25157C6.71788 8.31097 6.45463 8.40011 6.20394 8.51733C5.42759 8.89117 4.89287 9.51462 4.72934 10.2356C4.69652 10.3782 4.69256 10.4255 4.69256 10.6668C4.69256 10.9047 4.69652 10.9565 4.7282 11.0924C4.94549 12.034 5.82708 12.7304 6.96783 12.8575C7.21511 12.8842 8.28456 12.8842 8.53184 12.8575C9.44738 12.7555 10.235 12.2669 10.5893 11.5811C10.6727 11.4273 10.7341 11.2629 10.7715 11.0924C10.8026 10.9565 10.8071 10.9047 10.8071 10.6668C10.8071 10.4255 10.8026 10.3782 10.7698 10.2356C10.5321 9.18813 9.5 8.36356 8.23477 8.20644C8.06954 8.18694 7.63723 8.17023 7.52915 8.18137ZM8.06105 8.94299C8.48502 8.98829 8.89214 9.13146 9.24933 9.36085C9.43324 9.48063 9.69183 9.73302 9.80273 9.89793C9.93967 10.1024 10.0178 10.3108 10.0534 10.5643C10.0687 10.6807 10.0602 10.7687 10.0178 10.9565C9.95099 11.2362 9.74332 11.5292 9.46322 11.7337C9.2863 11.8507 9.09528 11.9456 8.89455 12.0162C8.5788 12.1154 8.37227 12.1337 7.6361 12.1282C7.15513 12.1243 7.07025 12.1198 6.93218 12.0947C6.4614 12.0078 6.08907 11.8229 5.81859 11.5415C5.59961 11.3147 5.50002 11.1075 5.44627 10.7726C5.42193 10.6178 5.4672 10.3604 5.55944 10.1431C5.67261 9.87843 5.96232 9.54916 6.24977 9.36029C6.60303 9.13462 7.00448 8.99238 7.42277 8.94466C7.63518 8.92798 7.84856 8.92742 8.06105 8.94299Z" />
  <path d="M7.20611 9.96553C7.0986 10.0229 7.02334 10.1689 7.04597 10.2764C7.07143 10.3929 7.17555 10.5104 7.33738 10.6068C7.42396 10.6586 7.42962 10.6659 7.43358 10.7177C7.43697 10.7483 7.42566 10.8363 7.40981 10.9149C7.39284 10.9918 7.37982 11.0731 7.37982 11.0954C7.38152 11.1556 7.43867 11.2536 7.49808 11.3016C7.55071 11.3433 7.56033 11.3445 7.70858 11.3489C7.84382 11.3534 7.87211 11.35 7.92587 11.325C8.06563 11.2581 8.10128 11.1344 8.04979 10.8982C8.00735 10.7004 8.01584 10.6698 8.12222 10.6096C8.23482 10.545 8.35421 10.4319 8.38986 10.355C8.4224 10.2841 8.4254 10.2035 8.39821 10.1304C8.37101 10.0574 8.3158 9.99779 8.24444 9.96442C8.19765 9.94413 8.14667 9.93497 8.09562 9.93767C7.9915 9.93767 7.92473 9.96163 7.80251 10.038L7.73291 10.082L7.68878 10.0552C7.5077 9.95049 7.47545 9.93767 7.36624 9.93879C7.28759 9.93879 7.24459 9.94603 7.20611 9.96553ZM3.75443 8.34034C3.50263 8.41834 3.31477 8.60053 3.21801 8.8596C3.17104 8.98217 3.14841 9.17717 3.16821 9.28247C3.21518 9.53319 3.42398 9.76162 3.66163 9.82402C3.9604 9.9009 4.18334 9.85076 4.38139 9.65743C4.49626 9.54712 4.55907 9.45017 4.62131 9.29362C4.66658 9.18274 4.66997 9.16324 4.66997 9.00669L4.67111 8.83843L4.61169 8.71809C4.56606 8.62511 4.50082 8.54278 4.42032 8.47659C4.33982 8.4104 4.24592 8.36186 4.14487 8.33421C4.01607 8.30594 3.88234 8.30841 3.75443 8.34034ZM11.3487 8.33589C11.154 8.3877 10.9809 8.53033 10.8881 8.71809L10.8287 8.83843L10.8298 9.00613C10.8298 9.16324 10.8326 9.18274 10.8785 9.29306C10.9407 9.45017 11.003 9.54656 11.1184 9.65743C11.3164 9.8502 11.5394 9.9009 11.8381 9.82402C12.0102 9.77944 12.1822 9.63626 12.2648 9.46967C12.3355 9.32816 12.3525 9.2262 12.3299 9.06519C12.2772 8.69692 12.0583 8.42949 11.7329 8.33533C11.6064 8.30731 11.4752 8.30787 11.3487 8.33589Z" />
</svg>
