<svg xmlns="http://www.w3.org/2000/svg" fill="currentColor" viewBox="0 0 19 20">
  <path d="M17.979 9.215c1.894-4.497-1.367-9.18-6.18-9.211-1.432-.009-2.864 0-4.293 0H3.212C1.036.01.02.849.02 2.629c0 1.66 1.162 2.583 3.276 2.586 2.615.006 5.234 0 7.849.003.928 0 1.912.051 1.9 1.326-.011 1.26-.996 1.323-1.924 1.326-2.763.006-5.53-.009-8.293.01C1.05 7.892.08 8.836.039 10.665c-.05 2.268-.05 4.536-.011 6.804.026 1.535 1.088 2.534 2.556 2.531 1.42 0 2.496-1.063 2.55-2.55.03-.856.065-1.72-.012-2.567-.107-1.172.272-1.62 1.482-1.556 1.773.094 3.552.033 5.329 0 2.86-.055 4.978-1.587 6.04-4.11l.006-.002Zm-1.694 5.156c-1.61 1.23-3.908 1.396-5.805 1.46 1.111 1.141 2.283 2.473 3.6 3.63.459.403 1.29.542 1.935.509 1.661-.085 2.634-1.36 2.414-2.952-.14-1.006-1.556-2.123-2.14-2.647h-.004Z"/>
</svg>
