<svg xmlns="http://www.w3.org/2000/svg" fill="currentColor" viewBox="0 0 112 20">
  <path d="M20.0731 9.25677C21.8724 5.00128 18.775 0.568122 14.2049 0.539465C12.8449 0.530868 11.4849 0.539465 10.1277 0.539465C8.76762 0.539465 7.40758 0.539465 6.05036 0.539465C3.98356 0.545197 3.01774 1.33898 3.01774 3.02398C3.01774 4.59436 4.12154 5.46838 6.12921 5.47125C8.61275 5.47698 11.0991 5.47125 13.5826 5.47411C14.464 5.47411 15.3988 5.52283 15.3876 6.72927C15.3763 7.92138 14.4415 7.98156 13.5601 7.98442C10.9358 7.99015 8.30864 7.97582 5.68431 7.99302C3.99764 8.00448 3.07687 8.89856 3.03745 10.6294C2.98958 12.7758 2.98958 14.9222 3.02619 17.0685C3.05153 18.5214 4.05959 19.4671 5.45341 19.4642C6.80218 19.4642 7.82432 18.4584 7.87501 17.0513C7.90316 16.2404 7.93695 15.4236 7.86374 14.6213C7.76237 13.5123 8.1228 13.0881 9.27165 13.1483C10.9555 13.2372 12.645 13.1798 14.3317 13.1483C17.0489 13.0967 19.0594 11.6467 20.0674 9.25964L20.0731 9.25677Z" />
  <path d="M18.4655 14.1373C16.9365 15.3008 14.7543 15.4584 12.9522 15.5186C14.0081 16.5989 15.1203 17.8598 16.3706 18.9545C16.807 19.3356 17.5954 19.4674 18.2093 19.4359C19.7861 19.3557 20.7097 18.1492 20.5013 16.6419C20.369 15.6905 19.023 14.6331 18.4683 14.1373H18.4655Z" />
  <path d="M32.5073 4.18136C35.0621 4.18136 37.3009 4.88985 37.3009 7.51716C37.3009 9.92798 35.5409 10.8948 32.4209 10.8948H31.6977V14.634H29.4021V4.18136H32.5073ZM32.5369 9.03253C34.4277 9.03253 35.0053 8.61433 35.0053 7.63278C35.0053 6.47657 34.2105 6.18875 32.4777 6.18875H31.6977V9.03253H32.5369Z" />
  <path d="M38.5869 3.60326H40.7813V8.16661L40.8109 8.18137C41.3318 7.7484 42.0822 7.37202 42.9757 7.37202C43.7261 7.37202 44.3901 7.63278 44.8393 8.09527C45.2713 8.55775 45.4589 9.17768 45.4589 10.2035V14.634H43.2645V10.5627C43.2645 10.0288 43.1929 9.76808 43.0201 9.56636C42.8325 9.34988 42.5734 9.26378 42.2698 9.26378C41.707 9.26378 41.1738 9.5516 40.7838 9.85665V14.6365H38.5894V3.60572L38.5869 3.60326Z" />
  <path d="M50.756 7.37201C53.022 7.37201 54.7104 8.98825 54.7104 11.0817C54.7104 13.1752 53.022 14.7914 50.756 14.7914C48.4901 14.7914 46.8017 13.1752 46.8017 11.0817C46.8017 8.98825 48.4901 7.37201 50.756 7.37201ZM50.756 12.9021C51.7508 12.9021 52.516 12.0928 52.516 11.0817C52.516 10.0707 51.7508 9.26377 50.756 9.26377C49.7613 9.26377 48.9961 10.0731 48.9961 11.0817C48.9961 12.0903 49.7613 12.9021 50.756 12.9021Z" />
  <path d="M56.6185 11.9624V9.34987H55.4633V7.52946H56.6185V5.68198L58.8129 5.30805V7.53191H60.6888V9.34987H58.8129V11.7312C58.8129 12.4249 58.9708 12.944 59.6348 12.944C59.9952 12.944 60.4 12.7988 60.6888 12.6537V14.4003C60.3581 14.6168 59.7064 14.789 59.0868 14.789C58.3661 14.789 57.6873 14.5577 57.238 14.0805C56.8628 13.6771 56.6185 13.0842 56.6185 11.96" />
  <path d="M65.4405 7.37201C67.7064 7.37201 69.3948 8.98825 69.3948 11.0817C69.3948 13.1752 67.7064 14.7914 65.4405 14.7914C63.1745 14.7914 61.4861 13.1752 61.4861 11.0817C61.4861 8.98825 63.1745 7.37201 65.4405 7.37201ZM65.4405 12.9021C66.4352 12.9021 67.2029 12.0928 67.2029 11.0817C67.2029 10.0707 66.4377 9.26377 65.4405 9.26377C64.4432 9.26377 63.678 10.0731 63.678 11.0817C63.678 12.0928 64.4432 12.9021 65.4405 12.9021Z" />
  <path d="M70.8092 4.18136H74.0847C76.4667 4.18136 78.5895 4.83081 78.5895 7.32774C78.5895 8.67091 77.8515 9.76808 76.4667 10.2158L79.4115 14.634H76.7703L74.1292 10.5036H73.1048V14.634H70.8092V4.18136ZM74.26 8.78653C75.5584 8.78653 76.2939 8.45443 76.2939 7.48764C76.2939 6.57743 75.6892 6.18875 73.9835 6.18875H73.1023V8.78653H74.26Z" />
  <path d="M83.4572 7.37201C85.7231 7.37201 87.4115 8.98825 87.4115 11.0817C87.4115 13.1752 85.7231 14.7914 83.4572 14.7914C81.1912 14.7914 79.5028 13.1752 79.5028 11.0817C79.5028 8.98825 81.1912 7.37201 83.4572 7.37201ZM83.4572 12.9021C84.4519 12.9021 85.2196 12.0928 85.2196 11.0817C85.2196 10.0707 84.4544 9.26377 83.4572 9.26377C82.4599 9.26377 81.6947 10.0731 81.6947 11.0817C81.6947 12.0903 82.4599 12.9021 83.4572 12.9021Z" />
  <path d="M92.2915 7.37201C94.5575 7.37201 96.2459 8.98825 96.2459 11.0817C96.2459 13.1752 94.5575 14.7914 92.2915 14.7914C90.0255 14.7914 88.3372 13.1752 88.3372 11.0817C88.3372 8.98825 90.0255 7.37201 92.2915 7.37201ZM92.2915 12.9021C93.2887 12.9021 94.0539 12.0928 94.0539 11.0817C94.0539 10.0707 93.2887 9.26377 92.2915 9.26377C91.2943 9.26377 90.5291 10.0731 90.5291 11.0817C90.5291 12.0903 91.2943 12.9021 92.2915 12.9021Z" />
  <path d="M106.801 10.5331C106.801 9.99932 106.714 9.75332 106.541 9.56636C106.339 9.34987 106.08 9.26378 105.791 9.26378C105.285 9.26378 104.767 9.52454 104.392 9.85664C104.406 9.9575 104.406 10.0731 104.406 10.174V14.634H102.212V10.5331C102.212 10.0559 102.138 9.76808 101.953 9.56636C101.75 9.34987 101.491 9.26378 101.202 9.26378C100.696 9.26378 100.178 9.5393 99.8176 9.84188V14.6365H97.6232V7.53438H99.788V8.16907L99.8176 8.18382C100.366 7.72134 101.089 7.37447 101.955 7.37447C102.72 7.37447 103.602 7.67706 104.019 8.38555C104.784 7.70658 105.621 7.37447 106.517 7.37447C107.309 7.37447 107.931 7.65 108.351 8.08296C108.798 8.54545 109 9.16537 109 10.1764V14.6365H106.806V10.5381L106.801 10.5331Z" />
</svg>
