<svg xmlns="http://www.w3.org/2000/svg" fill="currentColor" viewBox="0 0 122 20">
  <path d="M34.4971 13.7901C33.3242 13.7901 32.3611 13.5139 31.6079 12.9619C30.8545 12.4002 30.4492 11.6005 30.392 10.5628H33.3814C33.4099 10.9152 33.5149 11.1721 33.6961 11.3339C33.8773 11.4958 34.1108 11.5767 34.3969 11.5767C34.6544 11.5767 34.8642 11.5149 35.0263 11.3911C35.1979 11.2578 35.2838 11.0769 35.2838 10.8485C35.2838 10.5534 35.1454 10.3249 34.8689 10.163C34.5924 10.0012 34.1443 9.82036 33.5244 9.62041C32.8664 9.40148 32.3325 9.19198 31.9225 8.99203C31.522 8.78265 31.1691 8.4828 30.8641 8.09248C30.5684 7.69263 30.4206 7.17381 30.4206 6.53598C30.4206 5.88863 30.5827 5.33648 30.907 4.87954C31.2312 4.41306 31.6793 4.06083 32.2514 3.82283C32.8235 3.58485 33.472 3.46585 34.1966 3.46585C35.3696 3.46585 36.304 3.74192 37.0001 4.29406C37.7057 4.83669 38.0824 5.60304 38.13 6.5931H35.0835C35.0739 6.28846 34.9786 6.06 34.7974 5.90767C34.6258 5.75536 34.4017 5.67919 34.1251 5.67919C33.9154 5.67919 33.7437 5.74108 33.6102 5.86483C33.4767 5.9886 33.4099 6.16471 33.4099 6.39319C33.4099 6.58358 33.4816 6.75017 33.6245 6.89298C33.7772 7.02625 33.963 7.14525 34.1823 7.24996C34.4017 7.34517 34.7258 7.46892 35.155 7.62125C35.7938 7.84019 36.3183 8.05915 36.7283 8.27811C37.1479 8.48751 37.5054 8.78737 37.8011 9.1777C38.1063 9.55848 38.2588 10.044 38.2588 10.6343C38.2588 11.234 38.1063 11.7719 37.8011 12.2479C37.5054 12.7238 37.0716 13.0999 36.4995 13.3759C35.9369 13.6521 35.2695 13.7901 34.4971 13.7901Z" />
  <path d="M40.9778 4.93669C40.4821 4.93669 40.0815 4.80342 39.7764 4.53686C39.4808 4.26079 39.333 3.91807 39.333 3.50871C39.333 3.08985 39.4808 2.74238 39.7764 2.46631C40.0815 2.19023 40.4821 2.05219 40.9778 2.05219C41.4642 2.05219 41.8551 2.19023 42.1508 2.46631C42.4558 2.74238 42.6085 3.08985 42.6085 3.50871C42.6085 3.91807 42.4558 4.26079 42.1508 4.53686C41.8551 4.80342 41.4642 4.93669 40.9778 4.93669ZM42.3653 5.67923V13.6901H39.5619V5.67923H42.3653Z" />
  <path d="M54.4463 5.60663C55.457 5.60663 56.2485 5.91126 56.8206 6.52053C57.4023 7.12979 57.6931 7.96278 57.6931 9.01953V13.6889H54.8898V9.39075C54.8898 8.96231 54.7705 8.62919 54.5321 8.39114C54.2938 8.15317 53.9696 8.03417 53.5596 8.03417C53.1494 8.03417 52.8252 8.15317 52.5869 8.39114C52.3485 8.62919 52.2292 8.96231 52.2292 9.39075V13.6889H49.4259V9.39075C49.4259 8.96231 49.3067 8.62919 49.0682 8.39114C48.8395 8.15317 48.52 8.03417 48.11 8.03417C47.6904 8.03417 47.3615 8.15317 47.1231 8.39114C46.8846 8.62919 46.7655 8.96231 46.7655 9.39075V13.6889H43.9621V5.67802H46.7655V6.73473C47.0134 6.39201 47.3328 6.12069 47.7238 5.92078C48.1243 5.71134 48.582 5.60663 49.097 5.60663C49.6881 5.60663 50.2126 5.73515 50.6703 5.99217C51.1375 6.24921 51.5046 6.61096 51.7716 7.07744C52.0577 6.63952 52.4344 6.28729 52.9016 6.02073C53.3687 5.74467 53.8837 5.60663 54.4463 5.60663Z" />
  <path d="M62.0324 6.79226C62.2517 6.42099 62.5616 6.12588 62.9621 5.90692C63.3626 5.68796 63.8346 5.57849 64.3782 5.57849C65.017 5.57849 65.5939 5.74509 66.1088 6.07828C66.6333 6.41147 67.0433 6.88746 67.3389 7.50624C67.644 8.12503 67.7966 8.84855 67.7966 9.67675C67.7966 10.5049 67.644 11.2332 67.3389 11.8615C67.0433 12.4803 66.6333 12.9563 66.1088 13.2895C65.5939 13.6228 65.017 13.7893 64.3782 13.7893C63.8346 13.7893 63.3626 13.6799 62.9621 13.4609C62.5711 13.2419 62.2613 12.9469 62.0324 12.5755V17.5163H59.229V5.67844H62.0324V6.79226ZM64.9503 9.67675C64.9503 9.15312 64.8072 8.74864 64.5211 8.46293C64.2446 8.16788 63.9014 8.02032 63.4913 8.02032C63.0813 8.02032 62.7332 8.16788 62.4471 8.46293C62.1707 8.75807 62.0324 9.16267 62.0324 9.67675C62.0324 10.2004 62.1707 10.6097 62.4471 10.9048C62.7332 11.2 63.0813 11.3474 63.4913 11.3474C63.9014 11.3474 64.2446 11.2 64.5211 10.9048C64.8072 10.6001 64.9503 10.1908 64.9503 9.67675Z" />
  <path d="M71.7535 3.12253V13.6895H68.9501V3.12253H71.7535Z" />
  <path d="M74.7659 4.93669C74.2701 4.93669 73.8696 4.80342 73.5645 4.53686C73.2689 4.26079 73.1211 3.91807 73.1211 3.50871C73.1211 3.08985 73.2689 2.74238 73.5645 2.46631C73.8696 2.19023 74.2701 2.05219 74.7659 2.05219C75.2522 2.05219 75.6432 2.19023 75.9389 2.46631C76.2439 2.74238 76.3966 3.08985 76.3966 3.50871C76.3966 3.91807 76.2439 4.26079 75.9389 4.53686C75.6432 4.80342 75.2522 4.93669 74.7659 4.93669ZM76.1534 5.67923V13.6901H73.35V5.67923H76.1534Z" />
  <path d="M81.1685 13.7893C80.4439 13.7893 79.7955 13.6703 79.2234 13.4323C78.6607 13.1848 78.2125 12.8517 77.8787 12.4328C77.5546 12.0044 77.3734 11.5237 77.3352 10.9905H80.0529C80.0911 11.2475 80.2102 11.4475 80.4104 11.5902C80.6107 11.733 80.8586 11.8044 81.1542 11.8044C81.3831 11.8044 81.5642 11.7569 81.6977 11.6617C81.8313 11.5665 81.898 11.4427 81.898 11.2903C81.898 11.0905 81.7884 10.9429 81.5691 10.8478C81.3497 10.7526 80.9874 10.6478 80.4819 10.5335C79.9098 10.4193 79.4331 10.2907 79.0517 10.148C78.6703 10.0051 78.3365 9.77194 78.0504 9.44826C77.7739 9.12457 77.6356 8.6867 77.6356 8.13455C77.6356 7.65857 77.7644 7.23017 78.0218 6.84938C78.2793 6.45907 78.656 6.14967 79.1517 5.9212C79.6572 5.69272 80.2626 5.57849 80.9683 5.57849C82.0172 5.57849 82.842 5.83552 83.4428 6.34959C84.0435 6.86366 84.3916 7.53957 84.4869 8.3773H81.9552C81.9075 8.12028 81.7931 7.92512 81.612 7.79184C81.4403 7.64905 81.2067 7.57765 80.9111 7.57765C80.6822 7.57765 80.5058 7.62049 80.3819 7.70616C80.2675 7.79184 80.2102 7.91084 80.2102 8.06315C80.2102 8.25355 80.3198 8.40112 80.5392 8.50587C80.7585 8.60107 81.1114 8.70098 81.5977 8.80573C82.1792 8.92947 82.6608 9.06748 83.0422 9.21976C83.4332 9.37218 83.7717 9.61966 84.0578 9.96233C84.3534 10.2956 84.5012 10.7526 84.5012 11.3332C84.5012 11.7997 84.3629 12.2186 84.0864 12.5898C83.8193 12.9611 83.4332 13.2562 82.9279 13.4752C82.432 13.6846 81.8456 13.7893 81.1685 13.7893Z" />
  <path d="M96.3636 5.60663C97.3744 5.60663 98.1658 5.91126 98.7379 6.52053C99.3196 7.12979 99.6105 7.96278 99.6105 9.01953V13.6889H96.8071V9.39075C96.8071 8.96231 96.6878 8.62919 96.4495 8.39114C96.2111 8.15317 95.8869 8.03417 95.4769 8.03417C95.0669 8.03417 94.7427 8.15317 94.5042 8.39114C94.2658 8.62919 94.1467 8.96231 94.1467 9.39075V13.6889H91.3432V9.39075C91.3432 8.96231 91.224 8.62919 90.9857 8.39114C90.7568 8.15317 90.4373 8.03417 90.0273 8.03417C89.6078 8.03417 89.2788 8.15317 89.0404 8.39114C88.8021 8.62919 88.6828 8.96231 88.6828 9.39075V13.6889H85.8794V5.67802H88.6828V6.73473C88.9307 6.39201 89.2502 6.12069 89.6412 5.92078C90.0416 5.71134 90.4994 5.60663 91.0143 5.60663C91.6054 5.60663 92.1299 5.73515 92.5876 5.99217C93.0548 6.24921 93.4219 6.61096 93.6889 7.07744C93.975 6.63952 94.3517 6.28729 94.8189 6.02073C95.2862 5.74467 95.8011 5.60663 96.3636 5.60663Z" />
  <path d="M100.689 9.67675C100.689 8.84854 100.837 8.12503 101.132 7.50624C101.437 6.88746 101.847 6.41147 102.362 6.07828C102.887 5.74509 103.468 5.57849 104.107 5.57849C104.66 5.57849 105.137 5.68796 105.538 5.90692C105.938 6.12588 106.248 6.42099 106.467 6.79226V5.67844H109.271V13.6893H106.467V12.5755C106.248 12.9469 105.933 13.2419 105.523 13.4609C105.123 13.6799 104.651 13.7893 104.107 13.7893C103.468 13.7893 102.887 13.6228 102.362 13.2895C101.847 12.9563 101.437 12.4803 101.132 11.8615C100.837 11.2332 100.689 10.5049 100.689 9.67675ZM106.467 9.67675C106.467 9.16267 106.324 8.75807 106.038 8.46293C105.762 8.16788 105.418 8.02032 105.008 8.02032C104.589 8.02032 104.241 8.16788 103.964 8.46293C103.688 8.74864 103.55 9.15312 103.55 9.67675C103.55 10.1908 103.688 10.6001 103.964 10.9048C104.241 11.2 104.589 11.3474 105.008 11.3474C105.418 11.3474 105.762 11.2 106.038 10.9048C106.324 10.6097 106.467 10.2004 106.467 9.67675Z" />
  <path d="M113.672 7.09171C113.986 6.63477 114.368 6.27301 114.816 6.00646C115.264 5.7399 115.746 5.60663 116.26 5.60663V8.59109H115.474C114.864 8.59109 114.411 8.71011 114.115 8.94804C113.819 9.18609 113.672 9.60012 113.672 10.1904V13.6889H110.868V5.67802H113.672V7.09171Z" />
  <path d="M122 11.3049V13.6896H120.784C118.734 13.6896 117.709 12.6759 117.709 10.6481V8.00633H116.722V5.67874H117.709V3.7367H120.527V5.67874H121.986V8.00633H120.527V10.6909C120.527 10.9099 120.574 11.067 120.67 11.1622C120.775 11.2574 120.946 11.3049 121.185 11.3049H122Z" />
  <path fill-rule="evenodd" clip-rule="evenodd" d="M5.02565 13.8708C4.61612 13.8708 4.45125 14.1513 4.45125 14.3009C4.45125 14.4506 4.61612 14.731 5.02565 14.731H18.6678C20.016 14.731 21.109 15.8222 21.109 17.1682C21.109 18.4171 20.1679 19.4468 18.955 19.5887V19.6054L8.54388 19.5337L7.10788 17.5982H18.6678C18.9058 17.5982 19.0986 17.4057 19.0986 17.1682C19.0986 16.9306 18.9058 16.7381 18.6678 16.7381H5.02565C3.6904 16.7381 2.44083 15.7348 2.44083 14.3009C2.44083 12.867 3.6904 11.8637 5.02565 11.8637H17.1958L18.6678 13.8708H5.02565Z" />
  <path d="M2.44122 8.13646C2.20329 8.13646 2.01042 8.32901 2.01042 8.56654C2.01042 8.80408 2.20329 8.99663 2.44122 8.99663H22.8326C24.1808 8.99663 25.2738 10.0879 25.2738 11.4338C25.2738 12.7799 24.1808 13.871 22.8326 13.871H19.7451L18.2374 11.8639H22.8326C23.0705 11.8639 23.2634 11.6714 23.2634 11.4338C23.2634 11.1963 23.0705 11.0037 22.8326 11.0037H2.44122C1.09297 11.0037 0 9.91264 0 8.56654C0 7.22052 1.09297 6.12934 2.44122 6.12934H5.31325L6.74925 8.13646H2.44122Z" />
  <path fill-rule="evenodd" clip-rule="evenodd" d="M6.60531 2.40214C6.36738 2.40214 6.17449 2.59469 6.17449 2.83223C6.17449 3.06977 6.36738 3.26233 6.60531 3.26233H20.391C21.7392 3.26233 22.8322 4.35351 22.8322 5.69954C22.8322 6.99744 21.8161 8.05839 20.5346 8.13261V8.13675H7.82591L6.38989 6.12964H20.391C20.629 6.12964 20.8218 5.93708 20.8218 5.69954C20.8218 5.462 20.629 5.26945 20.391 5.26945H6.60531C5.25706 5.26945 4.16408 4.17827 4.16408 2.83223C4.16408 1.4862 5.25706 0.39502 6.60531 0.39502H16.9446L18.3806 2.40214H6.60531Z" />
</svg>
