<svg xmlns="http://www.w3.org/2000/svg" fill="currentColor" viewBox="0 0 107 20">
  <path d="M21.8 4.432v11.247h-2.598v-1.191c-.59.968-1.677 1.527-3.262 1.527-2.635 0-3.943-1.378-3.943-3.576V4.433h2.838v7.243c0 1.173.626 1.861 1.842 1.861 1.42 0 2.285-.819 2.285-2.327V4.432H21.8Zm18.428 3.39v7.858H37.39V8.678c0-1.34-.534-2.16-1.769-2.16-1.235 0-1.953.931-1.953 2.234v6.928H30.83V8.678c0-1.434-.59-2.16-1.769-2.16-1.253 0-1.954.931-1.954 2.234v6.928H24.27V4.43h2.635v1.248c.646-1.079 1.714-1.62 3.17-1.62 1.42 0 2.488.596 3.096 1.658.756-1.1 1.88-1.658 3.336-1.658 2.377 0 3.722 1.434 3.722 3.762v.001Zm22.777 7.858h-2.837V.037h2.837V15.68Zm30.775 0h-2.838V4.43h2.838v11.25ZM90.886 2.737h2.93V0h-2.93v2.737Zm13.527 9.107c-1.162 1.248-1.954 1.731-3.022 1.731-1.272 0-2.175-.745-2.58-1.9V8.4c.423-1.173 1.326-1.919 2.615-1.919.94 0 1.697.336 2.895 1.472l1.768-1.77c-1.419-1.564-2.8-2.142-4.663-2.142-2.597 0-4.605 1.379-5.398 3.688v4.619c.773 2.31 2.746 3.668 5.326 3.668 2.009 0 3.39-.671 4.938-2.607l-1.879-1.564ZM5.842 8.752c-.774-.167-1.327-.317-1.64-.39-.387-.113-.683-.261-.83-.466v-.857c.258-.41.885-.67 1.751-.67 1.198 0 2.027.279 3.335 1.322l1.53-1.862c-1.548-1.304-2.874-1.77-4.792-1.77-2.211 0-3.74.913-4.348 2.216v2.83c.478.95 1.585 1.491 3.796 1.975.792.187 1.327.316 1.64.373.405.13.774.298.977.595v.987c-.277.448-.94.69-1.806.69a4.287 4.287 0 0 1-1.807-.354c-.552-.224-1.197-.653-2.008-1.323L0 13.892c1.769 1.582 3.261 2.123 5.381 2.123 2.267 0 3.87-.875 4.478-2.272v-2.85c-.516-1.061-1.75-1.619-4.017-2.14Zm41.831-4.71c-2.562 0-4.57 1.396-5.4 3.63v4.73c.812 2.235 2.838 3.632 5.4 3.632 2.562 0 4.552-1.396 5.362-3.613V7.653c-.829-2.216-2.837-3.612-5.362-3.612Zm2.616 7.652c-.442 1.193-1.381 1.9-2.635 1.9-1.234 0-2.21-.707-2.653-1.9V8.38c.443-1.192 1.381-1.918 2.653-1.918 1.254 0 2.175.726 2.618 1.918l.017 3.314Zm20.309-7.653c-2.562 0-4.571 1.397-5.4 3.63v4.731c.829 2.235 2.838 3.632 5.4 3.632 2.561 0 4.552-1.396 5.362-3.613V7.653c-.81-2.216-2.82-3.612-5.362-3.612Zm2.616 7.653c-.443 1.193-1.382 1.9-2.616 1.9-1.235 0-2.212-.707-2.654-1.9V8.38c.443-1.192 1.382-1.918 2.654-1.918 1.27 0 2.174.726 2.616 1.918v3.314Zm12.623-7.262v1.247c-.718-1.08-1.842-1.62-3.39-1.62-2.102 0-3.797 1.304-4.534 3.371v4.637c.718 2.067 2.414 3.352 4.534 3.352 1.418 0 2.488-.484 3.243-1.434v.894c0 1.862-1.069 2.737-2.728 2.737-1.234 0-2.248-.372-3.869-1.34l-1.382 2.067A9.609 9.609 0 0 0 83 20c3.133 0 5.437-1.695 5.437-4.86V4.432h-2.599Zm-.35 6.835c-.423 1.061-1.309 1.73-2.413 1.73-1.107 0-1.99-.651-2.415-1.73V8.194c.424-1.062 1.29-1.714 2.415-1.714 1.124 0 1.99.652 2.413 1.714v3.073Z"/>
</svg>
