<svg xmlns="http://www.w3.org/2000/svg" fill="currentColor" viewBox="0 0 105 20">
  <path d="M35.034 10.522c0 3.1-2.092 4.382-4.221 4.382-2.14 0-4.221-1.282-4.221-4.382V4.911h1.996v5.418c0 1.88.979 2.571 2.225 2.571 1.245 0 2.224-.69 2.224-2.57V4.91h1.997v5.612Zm3.955-8.885h-2.053V14.65h2.052l.001-13.013Zm6.232 4.96h-2.358v4.88c0 1.302.798 1.281 2.358 1.2v1.973c-3.138.405-4.412-.51-4.412-3.172v-9.84h2.054v2.846h2.358v2.114Zm20.537-4.96h-2.054V14.65h2.054V1.637Zm16.205 4.96h-2.358v4.88c0 1.302.798 1.281 2.358 1.2v1.973c-3.138.405-4.411-.51-4.411-3.172v-9.84h2.053v2.846h2.358v2.114Zm1.51-.988h2.055v9.04h-2.055v-9.04Zm.097-1.932a1.453 1.453 0 0 1 0-1.972 1.23 1.23 0 0 1 1.864 0c.512.55.512 1.403-.02 1.972-.515.55-1.312.55-1.844 0Zm-9.262.807h2.187l-3.651 10.49c-1.113 3.14-1.958 3.741-4.658 3.741l.019-2.053c1.292.08 2.016-.59 2.53-1.992l.093-.204-4.03-9.982h2.243l2.834 7.38 2.433-7.38Zm14.137 8.884c-.95-1.037-1.426-2.297-1.426-3.802 0-1.525.475-2.785 1.426-3.802.97-1.037 2.167-1.545 3.593-1.545 1.844 0 3.48 1.017 4.24 2.623L94.51 7.94c-.437-.976-1.35-1.566-2.49-1.566a2.78 2.78 0 0 0-2.112.915c-.55.61-.836 1.362-.836 2.277s.286 1.667.836 2.277a2.778 2.778 0 0 0 2.112.915c1.121 0 2.072-.61 2.528-1.566l1.768 1.078a4.743 4.743 0 0 1-4.278 2.643c-1.426 0-2.623-.508-3.593-1.545Zm12.954-4.757c1.464.345 3.365.996 3.327 3.171 0 .976-.36 1.749-1.064 2.298-.704.55-1.578.833-2.643.833-1.882 0-3.27-.894-3.88-2.378l1.77-1.098c.323.976 1.026 1.463 2.11 1.463 1.083 0 1.616-.385 1.616-1.138 0-.65-.798-1.037-1.806-1.3-1.426-.387-3.347-.997-3.31-3.132 0-.935.325-1.687.99-2.256.665-.57 1.502-.855 2.491-.855 1.578 0 2.852.794 3.518 2.115l-1.731 1.037c-.323-.772-.932-1.16-1.787-1.16-.78 0-1.387.368-1.387 1.079 0 .67.797 1.016 1.786 1.321ZM57.106 12.82c.855 0 1.578-.305 2.149-.915.57-.63.855-1.402.855-2.338 0-.935-.285-1.707-.855-2.317-.571-.63-1.294-.935-2.15-.935-.855 0-1.577.306-2.147.935-.571.61-.856 1.382-.856 2.317 0 .936.285 1.708.856 2.34.57.609 1.292.913 2.148.913Zm3.004-8.335h2.054V14.65H60.11v-1.465c-.78 1.16-1.882 1.728-3.327 1.728-1.312 0-2.415-.508-3.347-1.545-.932-1.037-1.388-2.317-1.388-3.802 0-1.504.456-2.764 1.388-3.8.932-1.038 2.034-1.546 3.347-1.546 1.445 0 2.548.57 3.327 1.707V4.484ZM48.73 6.327c.5-1.228 1.462-1.841 2.85-1.841v2.316c-.759-.06-1.425.139-1.999.594-.574.436-.852 1.168-.852 2.177v4.99h-2v-9.9h2v1.664Zm-37.121-.83-.002 2.8c.01 3.822-2.907 6.94-6.47 6.936a6.093 6.093 0 0 1-3.748-1.269c1.874 3.6 5.466 6.033 9.55 6.036 5.934-.005 10.837-5.17 10.93-11.519l-.001-.026c.005-.146 0-2.854.007-2.974C21.866 2.468 19.564-.007 16.746 0c-2.83-.004-5.147 2.458-5.137 5.497Z"/>
  <path d="M5.13 2.817C2.302 2.817 0 5.28 0 8.303c0 3.025 2.302 5.485 5.13 5.485s5.13-2.461 5.13-5.485c0-3.025-2.3-5.486-5.13-5.486Z"/>
</svg>
