<svg xmlns="http://www.w3.org/2000/svg" fill="currentColor" viewBox="0 0 105 20">
  <path d="M7.63602 3.20023C4.88801 3.20023 2.65213 5.59649 2.65213 8.54082C2.65213 11.4852 4.88801 13.8806 7.63602 13.8806C10.3832 13.8806 12.6191 11.4843 12.6191 8.54082C12.6191 5.59564 10.384 3.20023 7.63602 3.20023Z" />
  <path d="M36.6848 10.7006C36.6848 13.7189 34.6532 14.9663 32.5844 14.9663C30.5062 14.9663 28.484 13.7189 28.484 10.7006V5.23766H30.4231V10.5128C30.4231 12.3432 31.3744 13.0162 32.5844 13.0162C33.7943 13.0162 34.7456 12.3432 34.7456 10.5128V5.23766H36.6848V10.7006ZM40.5274 2.05115H38.5323V14.719H40.5266L40.5274 2.05115ZM46.5813 6.88021H44.2903V11.6302C44.2903 12.898 45.0662 12.8776 46.5813 12.7986V14.719C43.5332 15.1142 42.2952 14.2236 42.2952 11.6311V2.05115H44.2903V4.82214H46.5813V6.88021ZM66.5313 2.05115H64.5362V14.719H66.5313V2.05115ZM82.2732 6.88021H79.9822V11.6302C79.9822 12.898 80.7581 12.8776 82.2732 12.7986V14.719C79.2251 15.1142 77.988 14.2236 77.988 11.6311V2.05115H79.9822V4.82214H82.2732V6.88021ZM83.7401 5.91745H85.736V14.7182H83.7401V5.91745ZM83.8342 4.03699C83.5933 3.77548 83.4596 3.43266 83.4596 3.07678C83.4596 2.72091 83.5933 2.37808 83.8342 2.11658C83.9464 1.98609 84.0854 1.88139 84.2417 1.80963C84.398 1.73786 84.5679 1.70071 84.7398 1.70071C84.9117 1.70071 85.0815 1.73786 85.2378 1.80963C85.3941 1.88139 85.5331 1.98609 85.6453 2.11658C86.1422 2.65192 86.1422 3.48296 85.6249 4.03699C85.1255 4.57232 84.3514 4.57232 83.8342 4.03699ZM74.8372 4.82214H76.9612L73.4145 15.0351C72.3334 18.0925 71.5127 18.6771 68.8902 18.6771L68.908 16.6777C70.1637 16.7567 70.8666 16.1041 71.3651 14.7386L71.4567 14.5406L67.5412 4.82214H69.7202L72.4733 12.0067L74.8372 4.82214ZM88.5697 13.4716C87.6463 12.4621 87.1851 11.2351 87.1851 9.77016C87.1851 8.28567 87.6463 7.05865 88.5697 6.06871C89.5125 5.05922 90.675 4.56467 92.0604 4.56467C93.852 4.56467 95.4401 5.55462 96.1795 7.11813L94.4616 8.1871C94.0369 7.23709 93.15 6.66267 92.0426 6.66267C91.2295 6.66267 90.5461 6.96008 89.9916 7.5532C89.4566 8.14716 89.1793 8.87879 89.1793 9.77016C89.1793 10.6607 89.4566 11.3932 89.9916 11.9871C90.2501 12.2738 90.5669 12.5017 90.9208 12.6553C91.2746 12.8089 91.6571 12.8847 92.0426 12.8776C93.1322 12.8776 94.0555 12.2837 94.4981 11.3532L96.2159 12.4026C95.8336 13.1788 95.2413 13.8316 94.5065 14.2866C93.7717 14.7415 92.9241 14.9803 92.0604 14.9756C90.675 14.9756 89.5125 14.4811 88.5697 13.4716ZM101.154 8.84055C102.576 9.17619 104.423 9.8101 104.386 11.9276C104.386 12.8776 104.036 13.6297 103.352 14.1641C102.668 14.6995 101.819 14.9756 100.784 14.9756C98.9563 14.9756 97.6073 14.1055 97.0163 12.6601L98.7342 11.5911C99.0487 12.5412 99.7321 13.0162 100.784 13.0162C101.837 13.0162 102.355 12.6406 102.355 11.9081C102.355 11.275 101.579 10.8986 100.6 10.642C99.2149 10.2656 97.3487 9.67159 97.3852 7.59313C97.3852 6.68307 97.7006 5.95059 98.3467 5.39656C98.9928 4.84254 99.8059 4.56467 100.767 4.56467C102.299 4.56467 103.537 5.33708 104.184 6.62359L102.502 7.63307C102.188 6.88105 101.597 6.50462 100.767 6.50462C100.009 6.50462 99.4184 6.86151 99.4184 7.55405C99.4184 8.20665 100.193 8.54314 101.154 8.84055ZM58.1262 12.9371C58.9571 12.9371 59.6592 12.6397 60.2137 12.0466C60.7674 11.4331 61.0446 10.6811 61.0446 9.77016C61.0446 8.86009 60.7682 8.10808 60.2137 7.51411C59.6592 6.9006 58.9571 6.60404 58.1262 6.60404C57.2953 6.60404 56.5932 6.90145 56.0395 7.51411C55.485 8.10808 55.2086 8.86009 55.2086 9.77016C55.2086 10.6811 55.485 11.4331 56.0395 12.0475C56.5932 12.6406 57.2953 12.9371 58.1262 12.9371ZM61.0446 4.82214H63.0397V14.719H61.0446V13.2932C60.2875 14.4216 59.2166 14.9756 57.8125 14.9756C56.5381 14.9756 55.4664 14.4811 54.5617 13.4716C53.6561 12.4621 53.2135 11.2156 53.2135 9.77016C53.2135 8.30606 53.6561 7.07904 54.5617 6.06956C55.4664 5.06007 56.5373 4.56552 57.8125 4.56552C59.2166 4.56552 60.2883 5.11955 61.0446 6.22761V4.82214ZM49.989 6.61679C50.4748 5.42121 51.4101 4.82384 52.7591 4.82384V7.07904C52.0214 7.02126 51.3736 7.21415 50.8165 7.65687C50.2586 8.08173 49.989 8.79466 49.989 9.77696V14.6341H48.0465V4.99804H49.9882V6.61594L49.989 6.61679ZM13.9291 5.80869L13.9274 8.53464C13.9367 12.2556 11.1039 15.2917 7.642 15.2875C6.32533 15.2929 5.04445 14.8581 4.00201 14.052C5.82158 17.5571 9.3115 19.9254 13.2779 19.9279C19.0427 19.9228 23.8062 14.8949 23.8969 8.71394L23.8952 8.68845C23.9003 8.54569 23.8952 5.90981 23.902 5.79339C23.8935 2.8601 21.6568 0.450248 18.9198 0.457046C16.1701 0.452797 13.9198 2.8499 13.9291 5.80869Z" />
</svg>
