<svg xmlns="http://www.w3.org/2000/svg" fill="currentColor" viewBox="0 0 136 20">
  <path d="M32.01 3.565 26.292.247a1.448 1.448 0 0 0-2.173 1.255v8.406l-4.057-2.33a7.048 7.048 0 0 0-7.04 0l-4.056 2.33v-8.43c0-1.118-1.21-1.79-2.174-1.252l-5.716 3.34A2.137 2.137 0 0 0 0 5.423v7.913c0 .56.134 1.076.403 1.547.27.47.629.874 1.099 1.188l2.959 1.882 2.263 1.435c1.367.875 3.094.786 4.394-.18l.179-.134.045-.045 3.407-2.599c.986-.763 2.623-.763 3.632 0l3.385 2.577.2.158a3.888 3.888 0 0 0 4.394.18l2.264-1.436 2.96-1.882a3.11 3.11 0 0 0 1.098-1.189 3.31 3.31 0 0 0 .403-1.547v-7.89c0-.762-.403-1.48-1.075-1.86v.024Z"/>
  <path d="M24.163 15.019v2.847c0 .873-.627 1.59-1.39 1.59-.762 0-.672-.157-1.03-.425l-3.386-2.601c-.986-.762-2.621-.762-3.63 0l-3.408 2.6c-.336.247-.56.336-.875.336-.784 0-1.501-.581-1.501-1.524v-2.824l4.864-3.138a5.038 5.038 0 0 1 5.469 0l4.887 3.07v.069Z"/>
  <path d="M24.12 9.884v5.179l-4.821-3.094a5.038 5.038 0 0 0-5.469 0l-4.864 3.094V9.884l4.056-2.33a7.048 7.048 0 0 1 7.04 0l4.057 2.33Zm8.964-4.46v7.89c0 .561-.133 1.076-.402 1.548l-8.563-4.978V1.48c0-1.12 1.21-1.792 2.174-1.254l5.715 3.317a2.135 2.135 0 0 1 1.077 1.86v.023Z"/>
  <path d="M8.966 1.48v8.427L.403 14.883A3.063 3.063 0 0 1 0 13.337V5.423c0-.762.404-1.48 1.076-1.86L6.792.244A1.448 1.448 0 0 1 8.966 1.5v-.022.002Zm13.696 17.864c.761 0 1.48-.606 1.48-1.457V15.04l4.528 2.893-2.287 1.456a3.81 3.81 0 0 1-4.393-.18l-.224-.179c.313.225.582.314.896.314Z"/>
  <path d="M32.682 14.884c-.262.482-.64.89-1.1 1.188l-2.958 1.882-4.505-2.869V9.91l8.563 4.998v-.023ZM8.966 17.886c0 .875.717 1.549 1.48 1.458.335-.045.604-.09.873-.291l-.202.158a3.886 3.886 0 0 1-4.393.178L4.46 17.954l4.505-2.891v2.823Z"/>
  <path d="M8.966 9.885v5.178L4.46 17.956 1.5 16.072a3.101 3.101 0 0 1-1.098-1.189l8.563-4.976v-.022Zm126.019.336c.404-.358.606-.964.606-1.816 0-.85-.113-1.053-.359-1.568a4.635 4.635 0 0 0-2.668-2.399c-.627-.269-1.345-.38-2.13-.38a6.464 6.464 0 0 0-3.114.761 5.41 5.41 0 0 0-2.107 2.04c-.517.852-.763 1.86-.763 2.959 0 1.098.134 1.615.403 2.33a5.894 5.894 0 0 0 1.188 1.929 5.626 5.626 0 0 0 1.927 1.3c.74.314 1.615.471 2.556.471.941 0 1.614-.09 2.286-.291.673-.18 1.233-.426 1.615-.695.425-.292.628-.583.628-.852 0-.27 0-.27-.045-.403-.045-.136-.113-.247-.202-.404-.091-.18-.225-.314-.404-.36a.74.74 0 0 0-.493-.044c-.134.045-.291.09-.426.18a3.748 3.748 0 0 1-.425.224c-.159.068-.36.157-.606.224a5.626 5.626 0 0 1-.784.18 7.536 7.536 0 0 1-1.1.067c-.425 0-1.142-.135-1.703-.381-.56-.247-1.009-.628-1.389-1.076a2.711 2.711 0 0 1-.517-1.526h6.614c.583 0 1.076-.178 1.48-.514l-.068.044Zm-1.636-1.77c0 .269-.045.448-.157.493-.089.046-.247.09-.583.09h-5.716c0-.494.157-.941.448-1.345a3.12 3.12 0 0 1 1.277-1.054 4.175 4.175 0 0 1 1.838-.403c.674 0 1.077.113 1.503.314.448.2.784.492 1.053.829.248.314.36.672.36 1.076h-.023Zm-11.365-4.169a2.497 2.497 0 0 0-.605-.067h-2.062V1.232c0-.247-.022-.448-.067-.605-.068-.202-.18-.36-.382-.448-.18-.113-.426-.158-.739-.158-.314 0-.561.046-.74.18a.688.688 0 0 0-.336.448c-.045.18-.068.381-.068.628V4.28h-1.053c-.359 0-.628.09-.784.292-.157.18-.247.47-.247.874s.068.695.179.874c.158.202.426.291.807.291h1.098v5.268c0 .74.068 1.367.225 1.86.157.494.404.92.739 1.255.336.314.784.562 1.301.719.515.156 1.165.223 1.905.223.739 0 .403-.022.56-.067a.627.627 0 0 0 .47-.336c.112-.18.158-.448.158-.785 0-.336-.046-.56-.135-.717-.089-.18-.246-.291-.447-.359a2.64 2.64 0 0 0-.65-.068c-.27 0-.651 0-.898-.044-.224-.022-.403-.09-.516-.2a1.193 1.193 0 0 1-.268-.472c-.067-.246-.09-.56-.09-.964V6.656h2.085c.224.023.426 0 .604-.045a.746.746 0 0 0 .449-.38c.089-.18.134-.427.134-.762 0-.337-.045-.583-.157-.74a.605.605 0 0 0-.447-.36l-.023-.089v.002Zm-9.392-.045c-.156-.113-.38-.18-.717-.18-.336 0-.695.09-.896.27-.18.18-.269.47-.269.851v.516a5.658 5.658 0 0 0-.627-.627 4.01 4.01 0 0 0-1.278-.74c-.493-.202-1.1-.292-1.816-.292-.718 0-1.48.158-2.152.471a6.045 6.045 0 0 0-1.748 1.277 5.91 5.91 0 0 0-1.211 1.884 6.219 6.219 0 0 0-.403 2.241c0 .785.135 1.57.403 2.286a6.628 6.628 0 0 0 1.165 1.905c.517.56 1.099.987 1.749 1.3a5.05 5.05 0 0 0 2.174.472c.785 0 1.458-.136 2.017-.38.538-.27.987-.562 1.323-.898.158-.157.292-.314.404-.449l-.045.629c.045.358.134.627.291.784.18.18.47.246.852.246s.561-.045.74-.157c.179-.09.292-.269.359-.47.045-.18.067-.403.067-.628V5.38c0-.27-.022-.494-.067-.695a.865.865 0 0 0-.336-.494l.021.045Zm-1.994 5.715c0 .695-.157 1.323-.449 1.884a3.257 3.257 0 0 1-1.187 1.277 2.95 2.95 0 0 1-1.615.47c-.582 0-1.322-.156-1.86-.446a3.378 3.378 0 0 1-1.234-1.278 3.859 3.859 0 0 1-.447-1.839c0-.672.157-1.322.447-1.86a3.381 3.381 0 0 1 1.212-1.3c.515-.337 1.143-.494 1.837-.494.695 0 1.145.158 1.615.471.492.292.896.718 1.211 1.277.313.516.47 1.166.47 1.861v-.023Zm-11.59-5.737c-.178-.113-.403-.159-.739-.159-.336 0-.583.046-.785.136-.178.09-.291.246-.358.449-.045.178-.068.38-.068.604v9.437c0 .224.023.426.068.606a.8.8 0 0 0 .358.447c.18.113.426.159.763.159.335 0 .56-.046.717-.136.201-.09.313-.246.381-.449.045-.178.068-.38.068-.604V5.29c0-.246-.023-.47-.068-.628a.857.857 0 0 0-.337-.447Zm.09-4.058C98.898.044 98.629 0 98.27 0s-.65.045-.852.157a.781.781 0 0 0-.426.493c-.067.18-.112.426-.112.695 0 .269.022.493.067.695.075.223.226.414.426.537.203.113.471.159.852.159.38 0 .65-.046.852-.159a.806.806 0 0 0 .404-.492c.067-.203.113-.449.113-.695 0-.247-.023-.493-.09-.695A.85.85 0 0 0 99.1.18V.157ZM94.302 4.26c-.494-.249-.874-.27-1.12-.068-.225.179-.427.447-.606.83l-3.25 7.71-3.34-7.958c-.18-.403-.403-.627-.672-.695-.247-.068-.56 0-.898.158-.38.179-.627.402-.717.627-.112.224-.09.56.113.987l4.304 9.413c.112.225.269.405.47.494.202.09.426.134.717.134.292 0 .56-.045.762-.157a.964.964 0 0 0 .448-.492l4.283-9.258c.156-.314.224-.605.224-.874 0-.27-.248-.605-.718-.851Zm-12.956-.023c-.157-.113-.38-.18-.717-.18-.336 0-.695.09-.896.27-.202.18-.27.47-.27.851v.516a5.663 5.663 0 0 0-.627-.627 3.986 3.986 0 0 0-1.277-.74c-.494-.202-1.1-.292-1.817-.292a5.19 5.19 0 0 0-2.151.471 6.052 6.052 0 0 0-1.748 1.277 5.902 5.902 0 0 0-1.212 1.884 6.213 6.213 0 0 0-.403 2.241c0 .785.136 1.57.403 2.286a6.609 6.609 0 0 0 1.166 1.905 5.75 5.75 0 0 0 1.748 1.3c.674.315 1.39.472 2.175.472.785 0 1.458-.136 2.017-.38.538-.27.987-.562 1.322-.898a6.48 6.48 0 0 0 .405-.449l-.045.629c.022.358.134.627.314.784.178.18.47.246.85.246.383 0 .561-.045.74-.157.18-.09.292-.269.36-.47.045-.18.067-.403.067-.628V5.38c0-.27-.023-.494-.068-.695a.856.856 0 0 0-.336-.494v.045ZM79.35 9.952c0 .695-.156 1.323-.447 1.884a3.249 3.249 0 0 1-1.19 1.277c-.48.31-1.04.474-1.613.47-.583 0-1.322-.156-1.86-.446a3.375 3.375 0 0 1-1.232-1.278 3.842 3.842 0 0 1-.45-1.839c0-.672.158-1.322.448-1.86a3.38 3.38 0 0 1 1.212-1.3c.515-.337 1.142-.494 1.837-.494.695 0 1.144.158 1.614.471.493.292.897.718 1.21 1.277.315.516.471 1.166.471 1.861v-.023ZM66.955 5.446a4.635 4.635 0 0 0-1.636-.985c-.627-.269-1.345-.382-2.13-.382-1.165 0-2.218.27-3.115.763a5.645 5.645 0 0 0-2.13 2.04c-.516.851-.762 1.86-.762 2.959 0 1.098.134 1.613.403 2.33a5.906 5.906 0 0 0 1.188 1.928c.549.558 1.205 1 1.927 1.3.74.314 1.615.47 2.556.47.942 0 1.614-.09 2.287-.29.673-.18 1.232-.427 1.614-.696.426-.291.627-.583.627-.852s0-.269-.045-.403c-.044-.134-.112-.246-.201-.403-.09-.179-.224-.313-.404-.358a.741.741 0 0 0-.493-.046c-.134.046-.29.09-.425.18a3.569 3.569 0 0 1-.426.224c-.158.068-.36.158-.583.225a5.677 5.677 0 0 1-.784.178 7.721 7.721 0 0 1-1.099.068c-.426 0-1.143-.136-1.704-.38-.56-.248-1.009-.63-1.39-1.078a2.706 2.706 0 0 1-.515-1.524h6.611c.584 0 1.076-.179 1.48-.515.403-.358.605-.964.605-1.816 0-.852-.113-1.053-.36-1.568a4.763 4.763 0 0 0-1.03-1.413l-.067.045Zm-.852 3.005c0 .269-.045.447-.156.492-.09.046-.248.09-.583.09h-5.717c0-.493.157-.942.45-1.344a3.12 3.12 0 0 1 1.276-1.054 4.14 4.14 0 0 1 1.816-.403c.65 0 1.077.111 1.503.314.447.2.784.492 1.03.828.246.314.36.673.36 1.077h.02ZM55.298 4.192c-.403-.158-.761-.18-1.009-.045-.246.134-.426.403-.582.807l-2.488 6.68-2.287-6.658a1.234 1.234 0 0 0-.223-.403c-.09-.136-.225-.225-.36-.314-.157-.09-.358-.135-.627-.135s-.448.045-.605.136a.978.978 0 0 0-.381.358c-.068.112-.113.246-.18.38l-2.33 6.59-2.489-6.746c-.134-.381-.337-.629-.583-.718-.246-.09-.56-.068-.964.09-.246.09-.448.18-.583.314a.777.777 0 0 0-.224.493c0 .179.046.404.135.65l3.609 9.28c.022.157.09.292.157.426.09.135.201.246.358.313.158.09.38.136.628.136.247 0 .426-.046.583-.113a.745.745 0 0 0 .358-.336c.091-.135.158-.291.224-.494l2.354-6.836 2.354 6.836c.067.159.135.314.224.472.09.157.224.268.359.336.157.067.336.112.583.112.246 0 .448-.045.583-.135a.711.711 0 0 0 .358-.313 1.65 1.65 0 0 0 .201-.404l3.609-9.28c.18-.426.202-.763.068-1.009-.136-.246-.381-.426-.74-.538l-.09.068Z"/>
</svg>
