<svg xmlns="http://www.w3.org/2000/svg" fill="currentColor" viewBox="0 0 49 20">
  <path fill-rule="evenodd" d="M9.322 13.597V20h1.244v-7.668l3.304 5.758a8.922 8.922 0 0 0 1.076-.627l-3.618-6.302 3.985 1.459c.181-.376.323-.77.422-1.176l-2.238-.82h6.39v-1.25h-7.625l5.724-3.323a8.98 8.98 0 0 0-.622-1.083l-6.229 3.617 1.438-3.973a5.903 5.903 0 0 0-1.167-.43l-.841 2.326V0H9.32v7.668L6.017 1.91a8.917 8.917 0 0 0-1.076.626l3.603 6.276-3.96-1.45a5.972 5.972 0 0 0-.428 1.174l2.291.84H0v1.249h7.624L1.9 13.949c.182.376.39.737.622 1.082L8.8 11.386l-1.454 4.017c.37.18.761.324 1.169.424l.807-2.23Z" clip-rule="evenodd"/>
  <path d="M28.686 6.25h-5.667V7.5h5.667V6.25Zm19.638 0h-5.667V7.5h5.667V6.25ZM34.85 3.35h-1.34v10.4h1.342V3.35Zm-2.983 2.9h-1.342v7.5h1.342v-7.5Zm0-1.55h-1.342V3.35h1.342V4.7Zm-3.032 7.8H22.87v1.25h5.965V12.5Zm-5.965 0 4.226-5h1.59l-4.226 5h-1.59Zm19.638 0 4.226-5h1.59l-4.226 5h-1.59Zm-4.674-9.15h-1.342v10.4h1.342V3.35Zm10.639 9.15h-5.965v1.25h5.965V12.5Zm-7.656-6.25h-1.342v7.5h1.342v-7.5Zm0-1.55h-1.342V3.35h1.342V4.7Z"/>
</svg>
